<svg xmlns="http://www.w3.org/2000/svg" version="1.0" viewBox="0 0 1180 1058"><g fill="#BFBFFF" stroke-width="0"><path d="M616.9 296.5c-.1 4.1-.2 8.1-.3 8.7-.1 1.4.3 1.4 4.6.3 1.9-.5 3.2-.1 4.6 1.3 2.5 2.5 3.2 1.3 3.2-5.5 0-3.7-.3-4.4-1.7-4.1q-1.8.3-2.1 3.6c-.3 2.8-.7 3.2-3.3 3.2H619v-7.5c0-4.3-.4-7.5-1-7.5s-1.1 3.3-1.1 7.5m52.9-5.8c.6.2 1.8.2 2.5 0 .6-.3.1-.5-1.3-.5s-1.9.2-1.2.5m42.2.3c0 .5.9 1 2 1s2-.5 2-1c0-.6-.9-1-2-1s-2 .4-2 1m10 2c0 .5.7 1 1.6 1 .8 0 1.2-.5.9-1-.3-.6-1-1-1.6-1-.5 0-.9.4-.9 1m-52.7.7c.9.2 2.5.2 3.5 0 .9-.3.1-.5-1.8-.5s-2.7.2-1.7.5m56.7 8.6v8.7l14.8-.2 14.7-.2-12.7-.5c-7.8-.4-13.2-1.1-13.9-1.8-.6-.6-1.3-3.9-1.3-7.2-.3-9.5-1.6-8.4-1.6 1.2m-137 3.8c0 1.1.5 1.7 1 1.4.6-.3 1-1.3 1-2.1s-.4-1.4-1-1.4c-.5 0-1 .9-1 2.1"/><path d="M732.8 304.7c1.2.2 3 .2 4 0 .9-.3-.1-.5-2.3-.4-2.2 0-3 .2-1.7.4m-135.5 5.5c-1 .3 4.7.6 12.7.6 16.2-.1 16.1-.5-.2-1-5.9-.2-11.5 0-12.5.4"/><path d="M625.8 310.7c.6.2 1.8.2 2.5 0 .6-.3.1-.5-1.3-.5s-1.9.2-1.2.5m132.4 7.8.3 8 7.8.3c4.6.2 7.7-.1 7.7-.7s-3.3-1.1-7.2-1.3l-7.3-.3v-6.2c0-3.4-.4-6.5-.8-6.9-.4-.5-.7 2.8-.5 7.1m-162.8-.3c.9 7.1-.3 8.3-7.4 7.3-3.4-.5-5-.3-5 .4s2.3 1.1 6 1.1c3.6 0 6-.4 6-1.1 0-.5.5-.7 1-.4.6.4 1-1.6 1-5.4 0-3.4-.5-6.3-1.1-6.7-.9-.5-1 .8-.5 4.8"/><path d="M588 320c0 1.3.5 2 1.3 1.7.6-.2 1.2-1 1.2-1.7s-.6-1.5-1.2-1.8c-.8-.2-1.3.5-1.3 1.8m-10.5 9c-.5 1.5-.1 2.6 1.1 3.4 1.5 1.2 1.6 2.7 1.2 13.9-.4 7.5-.2 12.7.3 12.7 1.5 0 .7-31.2-.8-31.7-.6-.2-1.4.5-1.8 1.7m197.1 20.9c-.4.7-.5 1.5-.2 1.8.9.9 1.9-.4 1.4-1.8-.4-1.1-.6-1.1-1.2 0m-209.1 6.9c.3.8.5 1.6.5 1.8s2.3.4 5 .4c3.6 0 5-.4 5-1.4s-1.6-1.5-5.5-1.8c-4.3-.2-5.4 0-5 1m211.8 1.9c2 .2 5.4.2 7.5 0 2-.2.3-.4-3.8-.4s-5.8.2-3.7.4M564.1 397c-.2 20.1-.4 41.3-.5 47.2 0 5.9.2 10.4.7 9.9.4-.4.6-21.6.4-47.2l-.2-46.4zm233.3-14.5c0 12.1.2 16.9.3 10.7.2-6.2.2-16.1 0-22-.1-5.9-.3-.8-.3 11.3m-7.4 1.8c0 19.5.2 22.4 1.5 22.4 1 0 1.4-.6 1-1.4-.3-.8-.5-10.9-.5-22.4 0-13.3-.4-20.9-1-20.9s-1 8.1-1 22.3m-95.8-.6c.2 3.6.8 6.8 1.3 7 .6.2.9-2.3.7-6.7-.2-3.8-.8-7-1.3-7-.6 0-.9 2.9-.7 6.7m12.1.3c0 4.1.2 5.8.4 3.7.2-2 .2-5.4 0-7.5-.2-2-.4-.3-.4 3.8m-7 6.7c.9.2 2.5.2 3.5 0 .9-.3.1-.5-1.8-.5s-2.7.2-1.7.5M801.5 404c-.3.5-2 1.4-3.8 1.9-3.1.9-3 .9 1.6 1 2.7.1 4.7-.3 4.7-1 0-.5-.5-.7-1.2-.3-.8.5-.9.2-.5-.9.7-1.9.2-2.3-.8-.7m5.3 7.3c-1.2 2.9-1 8.3.3 7 .6-.6.9-2.8.7-4.9-.2-2.9-.5-3.4-1-2.1m7.2 9.2c0 1.4.5 2.5 1 2.5.6 0 1-.6 1-1.3s.3-.8.8-.2c2.1 2.9 6.1.5 4.1-2.6-.7-1.1-.9-1.1-.9.3 0 2.2-2.8 2.4-3.6.3-.9-2.4-2.4-1.7-2.4 1m8.7 5.2c-1.1 1.1-.8 28.1.3 28.8.6.4 1-4.7 1-14.4 0-8.3-.1-15.1-.3-15.1s-.7.3-1 .7M546 448.6c0 .8.5 1.2 1 .9.6-.3 1-1 1-1.6 0-.5-.4-.9-1-.9-.5 0-1 .7-1 1.6m8.2-.4c.7 2 4.8 2.3 4.8.4 0-1.1-.9-1.6-2.6-1.6-1.6 0-2.4.5-2.2 1.2M550 454c.8.5 2.6.9 4 .9 2.3 0 2.3-.1.5-.9-1.1-.5-2.9-.9-4-.9-1.7-.1-1.7.1-.5.9m208.7 3.7c-.3.5 9.2.7 21.1.5 35.5-.4 38.6-.8 8-1-15.8-.1-28.9.1-29.1.5m-211.9 7.8c-.1 3 0 5.5.5 5.5.4 0 .7-2.5.7-5.5 0-7.1-.7-7.1-1.2 0m211.4 24.2c-.1 19 .2 29.3.8 29.3 1.2 0 1.2-35.5.1-49.5-.6-6.5-.8-.8-.9 20.2m-234.4-23c3.9.2 10.5.2 14.5 0 3.9-.1.7-.3-7.3-.3s-11.2.2-7.2.3M499.3 497c0 3.6.2 5 .4 3.2.2-1.7.2-4.7 0-6.5-.2-1.7-.4-.3-.4 3.3m-9.3 5c0 .5.7 1 1.5 1s1.5-.5 1.5-1c0-.6-.7-1-1.5-1s-1.5.4-1.5 1m-11 8.5-.5 7-4.5.6-4.5.6 4.8.1c5.7.2 5.9-.2 5.5-8.9l-.4-6.4zm4.3.5c0 4.1.2 5.8.4 3.7.2-2 .2-5.4 0-7.5-.2-2-.4-.3-.4 3.8m-16.6 17.2c.5 4.9.3 5.7-1.3 6.1s-1.5.5.4.6c2 .1 2.2-.4 2.2-4.7 0-2.6-.5-5.4-1-6.2q-.9-1.35-.3 4.2M453 534c0 .5 1.6 1 3.5 1s3.5-.5 3.5-1c0-.6-1.6-1-3.5-1s-3.5.4-3.5 1m-2.4 3.7c-.4 1.6-.7 4.7-.8 7.1-.2 5-.9 5.6-5.9 5.3-2.1-.1-4 .3-4.4.9s1.7 1 5.9 1h6.6v-8.5c0-8.8-.4-10.5-1.4-5.8M432 547c-.8.5-1.1 1.2-.8 1.5 1 1 6.9-.5 6.2-1.6-.7-1.2-3.5-1.1-5.4.1m1.2 8.3c-.8.9-.6 2.1.8 4.2l2 3v-4.3c0-4.3-.9-5.2-2.8-2.9M435 569c0 4.7-.3 6-1.5 6-1.9 0-1.9.5.1 3.5 1.3 2 1.4 2.8.4 4-1.1 1.3-1 1.4.4.9 1.3-.5 1.6-2.3 1.6-10.5 0-5.4-.2-9.9-.5-9.9s-.5 2.7-.5 6m-8 7c-1.1.7-1.2 1.2-.3 2.1 1.4 1.4 4.6.4 4.1-1.3-.6-1.6-2-1.9-3.8-.8m-3.5 7c.3.5 1.6 1 2.8 1 1.8 0 1.9-.2.7-1-2-1.3-4.3-1.3-3.5 0m-5.1 7.3c-.2.7 0 2.4.5 3.8.9 2.2 1 2.1 1-1.4.1-3.7-.5-4.8-1.5-2.4M402.5 617c0 8.2.3 15 .8 15 .4 0 .7-6.8.7-15 0-8.3-.3-15-.7-15-.5 0-.8 6.7-.8 15m355.6 23.2c0 3.5.3 7.1.7 8 .4 1 .7-1.9.7-6.2 0-4.4-.3-8-.7-8-.5 0-.8 2.8-.7 6.2M370.5 647c.2.4 4.4.8 9.2.9s8.5 0 8.3-.2c-.9-.8-18-1.5-17.5-.7m373.3 5.1c-2.2 2.4-2.5 10.9-.4 10.9 1 0 1.2-1.2.8-4.9-.2-2.6 0-5.1.5-5.4s3.1-.7 5.7-.8c6.5-.4 6.7-1.5.3-1.7-4-.1-5.6.4-6.9 1.9m-374.3 2.1c-1 3.3-1 9.8.1 9.8 1.4 0 2.4-3.2 2.4-7.8 0-3.1-1.7-4.5-2.5-2m-9.7 9.5c1.2.2 3.2.2 4.5 0 1.2-.2.2-.4-2.3-.4s-3.5.2-2.2.4m367.7 3.3c.3.5.8 1 1.1 1 .2 0 .4-.5.4-1 0-.6-.5-1-1.1-1-.5 0-.7.4-.4 1M350 669.5c0 .8.2 1.5.4 1.5s.6-.7 1-1.5c.3-.8.1-1.5-.4-1.5-.6 0-1 .7-1 1.5m4.1-.8c0 .4.4 1.7.9 2.8.8 1.9.9 1.9.9-.2.1-1.2-.3-2.5-.9-2.8-.5-.3-1-.3-.9.2m372.2 6c-.3.8-.3 1.7.1 2 .3.4.6.2.6-.4 0-.7 1.4-.9 3.6-.6 2.8.4 3.5.2 3.2-.9-.6-1.8-6.8-1.9-7.5-.1M338 676.5c0 2.1 3.9 3.4 9.5 3.3 3.3 0 4.9-.3 3.5-.5-1.4-.3-3.1-1-3.8-1.6-1-.8-1.6-.7-2.3.4-.5.8-.9.9-.9.3 0-.7-.7-1.4-1.4-1.7-1.1-.4-1.3-.1-.9 1.1.6 1.5.3 1.4-1.5-.2-1.2-1.1-2.2-1.6-2.2-1.1m16.5.4c-.3.5-.1 1.2.5 1.6.5.3 1-.1 1-.9 0-1.8-.6-2.1-1.5-.7m373.6 4.8c-.1.9-1.9 1.1-6.8.6-3.8-.3-6.6-.3-6.3 0 1 1.1 15 1.5 15.6.5.4-.6.2-.8-.4-.4-.5.3-1.3 0-1.5-.6-.4-1-.6-1-.6-.1m-389.4 17.6c.3 9.4.6 17.6.8 18.2.2.5.4-7 .4-16.7.1-9.7-.3-17.9-.8-18.2s-.7 6.7-.4 16.7m371.1-.8c-.2 10.9 0 16.1.7 15.4 1.1-1.1 1.4-31.9.3-31.9-.4 0-.8 7.4-1 16.5m-15.4 18c0 1.4.1 2.5.2 2.5 0 0 1-1.1 2.2-2.5l2.2-2.5h-2.4c-1.9 0-2.4.5-2.2 2.5m7.4-1.8c1.2.2 3 .2 4 0 .9-.3-.1-.5-2.3-.4-2.2 0-3 .2-1.7.4m-362.9 10.5c-.3 2.2-.1 3.4.4 2.9s.7-2.1.5-3.7c-.3-2.7-.4-2.6-.9.8m355.4.1c.4 1 .7 2.1.7 2.3s3.4.4 7.5.4h7.5v8c0 8.6 1.4 10.7 2.4 3.7.6-4.2-.4-9.8-2.3-12.1-.6-.7-3.3-1.2-6.8-1.1-4 .1-6.4-.3-7.7-1.4-1.8-1.5-1.9-1.5-1.3.2m-348.5 5.9c.9.9 1.5.9 2.4 0s.7-1.2-1.2-1.2-2.1.3-1.2 1.2m9.4 1.6c-.1 1.8-.7 4.2-1.2 5.2-.7 1.3-.7 2.1 0 2.5 1.5.9 2.2-1.7 1.7-6.6-.3-3.6-.4-3.8-.5-1.1m-4.6 6.7c-.8 2.2.3 4 1.6 2.7.7-.7.7-1.6.1-2.7-.9-1.6-1-1.6-1.7 0m365.9 3.5c-.4.6.7 1 2.4 1s3.1-.5 3.1-1c0-.6-1.1-1-2.4-1-1.4 0-2.8.4-3.1 1m-359.9 3.9c-.4.6 25.8.4 29.9-.3 1.1-.2-5.1-.4-13.7-.4-8.7 0-16 .3-16.2.7m177.1-.2c-1.1 1-.8 15.3.2 15.3.5 0 1.1-3.6 1.3-8 .3-7.6 0-8.9-1.5-7.3m7.3 0c0 .5 6.2.7 13.7.5 20.6-.4 21.9-.9 3.1-1-9.3-.1-16.8.1-16.8.5m36.3-.1c1.4.5 1.7 1.8 1.7 8 0 4.5.4 7.4 1 7.4.7 0 1-2.9.8-7.8-.3-7.4-.4-7.7-2.8-7.9-1.4-.1-1.8 0-.7.3M726 760.9c0 8.7.4 14.1 1 14.1s1-5.1 1-13.4c0-7.9-.4-13.7-1-14.1s-1 4.3-1 13.4m-323.5 8.5c0 4.1.3 7.2.8 6.9.4-.2.7-3.5.7-7.4 0-3.8-.3-6.9-.7-6.9-.5 0-.8 3.3-.8 7.4m66.5-.3c0 4.5.4 6.8 1 6.4 1.2-.7.9-13.5-.2-13.5-.5 0-.8 3.2-.8 7.1m10.8-6.4c2.8.2 7.6.2 10.5 0 2.8-.2.5-.3-5.3-.3s-8.1.1-5.2.3m139.2.3c0 .5.7 1 1.5 1s1.5-.5 1.5-1c0-.6-.7-1-1.5-1s-1.5.4-1.5 1m8 5.4c0 3.6.5 6.8 1 7.1.6.4 1-2 1-6.4 0-4.1-.4-7.1-1-7.1s-1 2.8-1 6.4m-214.7 10.3c1.5.2 2.7.9 2.7 1.5 0 .7.5.6 1.5-.2 1.1-.9 7.5-1.1 25.5-.9 13.2.2 24 .1 24-.4 0-.4-12.7-.6-28.2-.6-15.6.1-27.1.4-25.5.6m263.7.3c25 .3 45.9.2 46.5-.3.5-.4-20-.6-45.5-.5l-46.5.2z"/></g><path fill="#FFFFBF" d="M621 292.7c0 4.4.9 8.3 1.9 8.3.4 0 .7-2.7.6-6 0-4.1-.4-6-1.2-6s-1.3 1.4-1.3 3.7m10-2.2c0 1.3 2.2 1.5 14 1.5s14-.2 14-1.5-2.2-1.5-14-1.5-14 .2-14 1.5m32.2.5c0 1.4.2 1.9.5 1.2.2-.6.2-1.8 0-2.5-.3-.6-.5-.1-.5 1.3m2.8 0c0 1.1.2 2 .4 2s.6-.9.9-2 .1-2-.4-2-.9.9-.9 2m8-1c0 .6 5.3 1 14 1s14-.4 14-1-5.3-1-14-1-14 .4-14 1m42 .5c0 1 1.1 1.5 3.5 1.5s3.5-.5 3.5-1.5-1.1-1.5-3.5-1.5-3.5.5-3.5 1.5m13.9 9.6c-.3 1.3-.2 4 .1 5.9l.6 3.5.6-3.8c.4-2.1.3-4.8-.1-6-.8-2-.8-2-1.2.4m-136.8 5.1c-2.1 2.2-3.6 5.6-2.9 6.4.3.2 1.9-.1 3.7-.7 2.6-.9 2.9-1.4 2-2.5s-.8-1.9.6-3.4c1.6-1.8 1.6-2 .2-2-.9 0-2.5 1-3.6 2.2m16.9 1c0 .4-1.6.8-3.5.8s-3.5.4-3.5 1c0 1.2 1.9 1.2 8.4.4 5.3-.8 6-2 1.6-2.6-1.6-.3-3-.1-3 .4m138.3-.5c-1.2.2-2.4 1.1-2.7 1.9-.4 1.1.4 1.4 3.2 1.4 2 0 5.4.4 7.5.9 3.4.8 3.7.7 3.7-1.4 0-3-4.8-4.1-11.7-2.8m-175.1 19.8c0 5.7.4 7.7 1.5 8.4 1.3.7 1.5 2.2 1.1 8.2-.3 4.1-.3 6.8-.1 6.1.3-.6 1.1-1.2 1.9-1.2 1.1 0 1.4-1.6 1.4-7 0-6.2-.2-7-1.9-7s-3.1-1.8-3.1-4.1c0-1.2 7.5-4.9 10-4.9 1.1 0 2-.5 2-1 0-.6-.9-1-2.1-1s-2.3-.8-2.6-2c-.4-1.6-1.4-2-4.3-2h-3.9zm17.9-4.2c-1.3 2.1-1.2 2.1.5.5 1-1 1.6-2 1.3-2.2-.3-.3-1.1.5-1.8 1.7M760 323c0 .6 3 1 7 1s7-.4 7-1-3-1-7-1-7 .4-7 1m16 24.5c0 1.2 1.3 1.5 6.1 1.5 8.1 0 7.7-2.4-.4-2.8-4.6-.2-5.7 0-5.7 1.3m-210.3 4.2c-1.1 1-.8 2.5.3 1.8.6-.3 1 .1 1 .9 0 1.2 1 1.6 3.6 1.6 2.9 0 3.5-.3 3-1.6-.3-.9-.6-2-.6-2.5 0-1-6.3-1.2-7.3-.2M776 353c0 .6 2.7 1 6.1 1 3.7 0 5.8-.4 5.4-1-.3-.6-3.1-1-6.1-1s-5.4.4-5.4 1m25.4 29.5c0 12.1.2 16.9.3 10.7.2-6.2.2-16.1 0-22-.1-5.9-.3-.8-.3 11.3M559 398.1c0 23.7.3 35.8 1 35.4.6-.4 1-13.5 1-36.1 0-22.9-.4-35.4-1-35.4s-1 12.7-1 36.1m3.5-1.1c0 19.5.1 27.5.2 17.7.2-9.7.2-25.7 0-35.5-.1-9.7-.2-1.7-.2 17.8m231.9-14c0 11.8.2 16.7.3 10.7.2-5.9.2-15.5 0-21.5-.1-5.9-.3-1-.3 10.8m-97.4.5c0 5.8.2 6.5 2 6.5s2-.7 2-6.5-.2-6.5-2-6.5-2 .7-2 6.5m6.3-.5c0 3.6.2 5 .4 3.2.2-1.7.2-4.7 0-6.5-.2-1.7-.4-.3-.4 3.3m106.4 25c-.3 1.1-.1 2.3.4 2.6s.9-.6.9-2c0-3.1-.6-3.4-1.3-.6m-1.5 7c0 1.9.2 2.7.5 1.7.2-.9.2-2.5 0-3.5-.3-.9-.5-.1-.5 1.8m16.8 25c0 3.3.4 6 1 6s1-2.7 1-6-.4-6-1-6-1 2.7-1 6m-265.6.4c-.3.8-.4 2.7-.2 4.3.3 2.3.5 2 .9-1.5.5-4.3.2-5.3-.7-2.8m-.3 9.3c0 .7-1 1.3-2 1.3-3.1 0-3.5 1.9-.6 2.6 3.2.8 3.8.3 3.2-2.8-.2-1.2-.5-1.7-.6-1.1m-13.4 3.4c.7.7 1.5 1 1.8.7s-.2-.9-1.2-1.2c-1.4-.6-1.5-.5-.6.5M760 461c0 .6 10 1 28 1s28-.4 28-1-10-1-28-1-28 .4-28 1m-243.9 8.6c0 1.1.3 1.4.6.6.3-.7.2-1.6-.1-1.9-.3-.4-.6.2-.5 1.3m-13.1 6.9c0 1.2 1.3 1.5 6 1.5s6-.3 6-1.5-1.3-1.5-6-1.5-6 .3-6 1.5m1.7 5.2c1.8.2 5 .2 7 0 2.1-.2.7-.4-3.2-.4-3.8 0-5.5.2-3.8.4m-10.7 13c0 3.6.4 6.3 1 6.3 1.3 0 1.3-9 0-11-.7-1.1-1 .3-1 4.7m-6 .8c0 3 .5 5.5 1 5.5.6 0 1-2.5 1-5.5s-.4-5.5-1-5.5c-.5 0-1 2.5-1 5.5m-6.9 15.2c.2 7.9.6 7 1.1-2.5.2-2.8 0-5.2-.4-5.2-.5 0-.7 3.5-.7 7.7m-7.8.3c0 4.1.2 5.8.4 3.7.2-2 .2-5.4 0-7.5-.2-2-.4-.3-.4 3.8m-10 6.8c-1.9 1.2-3.3 6-3.3 11.3v5l3.3-.3 3.2-.3-.3-5.5c-.2-3 .1-6.7.7-8.3.9-2.3.8-2.7-.7-2.7-.9 0-2.2.4-2.9.8m-15.6 22c-.5.7-1.3 1-1.8.7-.5-.4-.9 1.2-.9 3.4 0 4.7 2.5 5.8 3.6 1.7.8-3.3.2-7.5-.9-5.8m-17.6 12.8c0 1.1.3 1.4.6.6.3-.7.2-1.6-.1-1.9-.3-.4-.6.2-.5 1.3m.5 11c.4 2.7 1 5.3 1.4 5.7.4.5.4-1.5-.1-4.4-1.1-6.7-2.1-7.8-1.3-1.3m.1 15.1c-.5.7-1.7 1.3-2.8 1.3-2.8 0-2.3 1.7.7 2.4 3.2.8 3.7.5 3.2-2.6-.2-1.6-.6-1.9-1.1-1.1m-14.3 3.8c-.3 1.3-.4 3-.1 3.7s.6 0 .6-1.5c.1-1.6.5-2.6 1-2.2.5.3 1.2.1 1.5-.4s-.1-1.1-.9-1.5c-1-.3-1.7.3-2.1 1.9m.3 11.8c-.4 1.1-1.8 1.7-3.9 1.8l-3.3.2 3.5.6c3.6.7 5.6-.7 4.8-3.1-.3-.7-.7-.5-1.1.5m-52.2 55.2c-1 2.2-2.7 4.8-3.7 5.8s-1.8 2.4-1.8 3.3c0 1.6 4.3 3.7 4.8 2.3.2-.5 1.1-.9 2.1-.9 1.5 0 1.7-.8 1.3-6.3-.5-8.5-.6-8.7-2.7-4.2m380.5 8c0 4.1.2 4.5 2.3 4.5 1.3 0 3.2-.9 4.2-2s2.2-2 2.6-2 2-.5 3.6-1.1c2.5-.9 2.6-1.1 1-2.1-1-.5-2.5-.7-3.3-.4s-1.4.2-1.4-.2-2-.8-4.5-1l-4.5-.2zm-393 3.4c0 .5.9.7 2 .4s2-.7 2-.9-.9-.4-2-.4-2 .4-2 .9m393.2 5.1c0 1.4.2 1.9.5 1.2.2-.6.2-1.8 0-2.5-.3-.6-.5-.1-.5 1.3m-33.4 17.7c.7.3 1.6.2 1.9-.1.4-.3-.2-.6-1.3-.5-1.1 0-1.4.3-.6.6m6.5 0c.9.2 2.3.2 3 0 .6-.3-.1-.5-1.8-.5-1.6 0-2.2.2-1.2.5M331 704.3v13.8l2.8-.3c2.4-.3 2.8.1 3.2 3.2 1.1 7.1 1.5.1 1-15l-.5-15.5H331zm380-7.7c0 7.2 2.1 13.4 4.4 13.4 1.2 0 1.6-1 1.6-3.5 0-2.4-.5-3.5-1.5-3.5-1.2 0-1.5-1.3-1.5-5.9 0-4.3-.4-6-1.5-6.5-1.2-.4-1.5.6-1.5 6M695.3 723c.1 1.9.8 2.6 2.7 2.7 2.1.2 2.2.1.6-.5-1.1-.5-2.3-1.7-2.8-2.8-.6-1.6-.7-1.5-.5.6m19 1.7c-1.9.4-2.3 1.1-2.3 3.9 0 3 .3 3.4 2.5 3.4 2.3 0 2.5-.4 2.5-4 0-2.2-.1-3.9-.2-3.9-.2.1-1.3.4-2.5.6m-10 1c.9.2 2.5.2 3.5 0 .9-.3.1-.5-1.8-.5s-2.7.2-1.7.5M337.4 731c.1 1.9.7 2.5 2.6 2.7 2.1.1 2.1 0 .3-.3-1.2-.3-2.4-1.5-2.6-2.7q-.45-2.7-.3.3m13.6 4.4c0 .8.5 1.8 1 2.1.6.3 1-.3 1-1.4 0-1.2-.4-2.1-1-2.1-.5 0-1 .6-1 1.4m365.9-.9c-.1.3-.1 1.4-.1 2.5 0 3.5.2 3.8 3.2 4.2q3 .45 3-.9c0-.8 1.2-1.3 3-1.3 1.7 0 3 .5 3 1.2 0 2 2-1.4 2-3.5 0-1.4-.6-1.6-3.9-1.1-2.4.4-4.1.2-4.5-.5-.7-1.1-5.5-1.6-5.7-.6m-180.1 13.2c-2.3.6-2.4 4.9-.2 6.1 1.2.7 1.5 1.9 1.2 4.6-.2 2.3 0 3.5.6 3.3 1.3-.4 2.1-14.8.9-14.6-.4.1-1.6.3-2.5.6m38.8 0c-.3.4-.6 3.7-.6 7.5 0 6.1.2 6.8 2 6.8s2-.7 2-6.9c0-5-.4-7-1.4-7.4-.8-.3-1.7-.3-2 0M728.4 762c0 8 .2 11.2.3 7.2.2-3.9.2-10.5 0-14.5-.1-3.9-.3-.7-.3 7.3m2-.5c0 7.7.2 10.7.3 6.7.2-4 .2-10.3 0-14s-.3-.4-.3 7.3m-257.8 7.1c1.2 10.1 2.3 11.6 2.1 3-.1-5.6-.6-8.1-1.5-8.4-1.1-.3-1.2.8-.6 5.4m149.4 2c0 3.4.4 5.3 1 4.9.6-.3 1-2.8 1-5.6 0-2.7-.4-4.9-1-4.9-.5 0-1 2.5-1 5.6m-212 11.3c0 1.4 9.6 2.1 30.3 2.1 16.8 0 19.7.2 19.7 1.5 0 1.1 1.1 1.5 3.7 1.5 2.4 0 4.5.8 6 2.2 2.8 2.6 4.6 1.4 4.1-2.8-.3-2.6-.7-2.9-3.5-2.8-2.1 0-3.3-.4-3.3-1.3 0-.8-1.3-1.3-3.5-1.3-1.9 0-3.5.4-3.5 1s-7.8 1-21.5 1-21.5-.4-21.5-1-1.6-1-3.5-1-3.5.4-3.5.9m307 .1c0 .6-15.6 1.1-43.2 1.3l-43.3.2 43.3.3c37.6.2 43.2.4 43.2 1.7 0 1.1 1.1 1.5 3.7 1.5 2.4 0 4.5.8 6 2.2 2.8 2.6 4.6 1.4 4.1-2.8-.3-2.5-.7-2.9-3.8-3-1.9-.1-3.6-.6-3.8-1.3-.5-1.4-6.2-1.5-6.2-.1m-314.5 6c-1.3 2.1.9 3 7.5 3 6.3 0 6.8-.1 6.3-2-.5-1.7-1.4-2-6.9-2-3.4 0-6.6.4-6.9 1"/><g fill="#BFBFBF" stroke-width="0"><path d="M623.6 292.2c-.8 4.1.2 6 2.8 5.2 1.1-.4 2.4-1.1 2.7-1.6s21.6-.7 48.7-.6c31.6.2 48.2 0 48.3-.7.2-3.3 1.9 4.5 1.7 8.1-.1 2.5.4 5 1.1 5.7.9.9 1.1.1 1-3.3 0-2.5.2-6.6.6-9.3.7-4.6.4-5.3-2.7-4.8-.5 0-.8-.4-.8-.9 0-1.3-2.7-1.3-3.5 0-.4.6-.1 1.7.5 2.5 1 1.2.9 1.5-.4 1.5-.9 0-1.6-.5-1.6-1 0-.6-2.8-1-6.5-1s-6.5.4-6.5 1c0 .5-1.6 1-3.5 1-2.4 0-3.5-.5-3.5-1.5 0-1.3-2.6-1.5-17.4-1.5-13 0-17.6.3-17.9 1.2-.3.7-.6.3-.6-1-.1-1.2-.5-2.2-1-2.2s-1.2 1-1.4 2.2l-.4 2.3-.2-2.3c-.1-2.1-2.1-3.3-2.1-1.1 0 .5-.4.7-1 .4-.5-.3-1-.1-1 .4 0 .7-4.8 1.1-14 1.1-12.7 0-14-.2-14-1.8 0-1.4-.2-1.5-1-.2-.5.8-1 1-1 .5 0-.6-1.1-1-2.4-1-1.9 0-2.6.7-3 2.7m49.2 1.5c-1 .2-2.6.2-3.5 0-1-.3-.2-.5 1.7-.5s2.7.2 1.8.5"/><path d="M703 289.9c0 .5 1 1.1 2.3 1.5 3.3.9 3.7.8 3.7-.9q0-1.5-3-1.5c-1.6 0-3 .4-3 .9M606 305c0 .5.7 1 1.5 1s1.5-.5 1.5-1c0-.6-.7-1-1.5-1s-1.5.4-1.5 1m15.8.7c.7.3 1.6.2 1.9-.1.4-.3-.2-.6-1.3-.5-1.1 0-1.4.3-.6.6m109.2 1.9c0 2.3.3 2.5 2.3 1.9 1.2-.4 3.9-.9 6-1.2 2-.3 3.7-.9 3.7-1.3 0-.8-5.8-2-9.7-2-1.8 0-2.3.6-2.3 2.6m-106 .4c0 1.9.3 2.1 1.2 1.2s.9-1.5 0-2.4-1.2-.7-1.2 1.2m3.1.6c0 1.1.3 1.4.6.6.3-.7.2-1.6-.1-1.9-.3-.4-.6.2-.5 1.3m-22.3 1.1c2.3.2 5.9.2 8 0 2-.2.1-.4-4.3-.4s-6.1.2-3.7.4m136.9 0c1.8.2 5 .2 7 0 2.1-.2.7-.4-3.2-.4-3.8 0-5.5.2-3.8.4m-148.5 1.2c-.9.5-1 1.8-.3 4.7l.9 3.9.1-4c.1-3 .4-3.6 1.1-2.5.8 1.3 1 1.3 1-.2 0-2.1-1.2-2.9-2.8-1.9m160.8-.5c0 .2.7.7 1.6 1 .8.3 1.2.2.9-.4-.6-1-2.5-1.4-2.5-.6m-176 15.4c0 1.5 1.1 2.1 2.7 1.5 1.2-.5 1.2-.7.1-1.4-1.7-1.1-2.8-1.1-2.8-.1m16 .2c0 .5.5 1 1.1 1 .5 0 .7-.5.4-1-.3-.6-.8-1-1.1-1-.2 0-.4.4-.4 1m179.4 11.5c0 7.1.1 9.9.3 6.2s.2-9.6 0-13-.3-.4-.3 6.8m-197.7-9.8c-1.3 1.3-.7 5.3.8 5.3 1.2 0 1.5 1.9 1.7 10.2l.2 10.3.3-10c.3-8.3.1-10.2-1.3-11.2-1-.7-1.4-1.9-.9-3.2.6-2.1.4-2.6-.8-1.4m197.4 25.9c0 1.1.3 1.4.6.6.3-.7.2-1.6-.1-1.9-.3-.4-.6.2-.5 1.3m-210 0c-.1.6-1.2.9-2.6.6-2.3-.4-2.5-.2-2.5 3.7 0 3.7.2 4.1 2.5 4.1 3.1 0 4.7-2.8 3.5-6.6-.4-1.6-.9-2.4-.9-1.8m224.6.2c-.9.2-1.7.8-1.7 1.3s-2.9.9-6.5.9c-3.7 0-6.5.4-6.5 1s2.9 1 6.8 1c6.1 0 7.1.3 9 2.5 2.1 2.4 2.2 3.4 2.2 23.3 0 11.4.4 21.2.8 21.9.5.8 1.7 1 3.7.5 1.9-.5 2.5-1.1 1.7-1.6-.9-.5-1.2-6.5-1.2-22.2 0-13.6-.4-21.4-1-21.4-.5 0-1-1.7-1-3.8 0-3.8-1-4.4-6.3-3.4m7.1 30.2c.2 18.9.1 21.1-1.3 20-1.2-1-1.5-4.6-1.5-21.7 0-15.9.3-20.4 1.3-20.1.9.4 1.3 5.8 1.5 21.8M576 357.5c0 .8.7 1.5 1.5 1.5s1.5-.7 1.5-1.5-.7-1.5-1.5-1.5-1.5.7-1.5 1.5m121.7 19.2 4.2.4.4 6.7.3 6.7.2-6.8c.1-4 .6-6.7 1.3-6.7s.9 2.4.7 7c-.2 3.9 0 7 .4 7s.9-3.3 1.1-7.3l.3-7.2.2 7.2c.3 9.7 2.2 9.5 2.2-.2V376l-7.7.2c-4.6.1-6.1.3-3.6.5m106.6 27.9c-.3.8-.1 2 .6 2.7.6.6 1.1 2 1.1 3.1 0 1.7.2 1.8 1 .6.6-1 1-1.1 1-.3 0 .7.4 1.3.8 1.3.5 0 .8-1.6.8-3.6-.1-2.9-.7-3.9-2.4-4.5s-2.4-.5-2.9.7m-46.5 12.1-.3 7.8-7.7.3-7.8.3V439h31v-30h-14.9zm49.1 1.5c-.1.2-.2 1.6-.3 3.1l-.2 2.8 7.5-.2c4.9-.1 7.6.2 7.9 1 .2.6.8.9 1.3.5.5-.3.9 1.4.9 3.7s.3 4 .6 3.6c1.3-1.2-.7-13.5-2.2-14.1-.8-.3-1.4 0-1.3.7.3 2.7-.2 3.6-2.1 3.4-2.3-.1-2.8-1.7-.5-1.7s1.8-2.6-.5-2.7c-1.1-.1-2 .4-1.9 1 .3 2.4-.1 3.7-1.1 3.7-.5 0-1-1.1-1-2.5 0-2.2-.4-2.5-3.5-2.5-1.9 0-3.6.1-3.6.2m-245.2 21.3c.3 4.4.7 8.2.9 8.4.7.8.3-7.3-.6-11.9-.6-3.4-.7-2.5-.3 3.5m262.4 11.3c0 2.6-.5 4.1-1.1 3.7-.5-.3-1-.1-1 .4 0 .8-10 1.1-31.4 1.1-17.3 0-31.7.3-31.9.7-.3.5 12.6.8 28.6.8l29.2-.1-28.7.6c-15.7.3-29 .8-29.4 1.2-.4.5-.4 1.1.1 1.5.4.5 1 .2 1.2-.5.4-.9 7-1.2 28.4-1.2 24.5 0 27.9.2 27.9 1.5 0 1.9 3 1.6 4.8-.5 1-1.3 1.1-1.3.6.3-.5 1.3-.2 1.6 1 1.1.9-.3 1.6-1.1 1.5-1.8-.2-.6.1-2.7.5-4.7s.6-4.7.3-6c-.2-1.4-.5-.6-.6 1.9m-261.9-.1c-.2 1.7-1.2 2.5-4.3 3.3-2.3.6-5.3.8-6.8.4-5.6-1.5-6.1-1.3-6.1 2.7 0 3.8 1.4 6 2.3 3.7.3-.7.6 1.3.6 4.4.1 3.2-.3 5.8-.7 5.8s-.7-1.7-.5-3.8c.2-3.5.2-3.6-.6-.7-.5 1.6-.9 2.4-1 1.7-.1-.9-3.6-1.2-13.9-1.2h-13.9l-1 4.7c-.6 2.7-1 6.7-.9 9.1l.1 4.2h-6.2c-4.7 0-6.3-.3-6.3-1.4 0-1-1.2-1.4-4-1.3l-4.1.2.6 10.5c.5 8 .4 10.1-.5 9s-1.3-1.2-1.7-.3c-.2.7-1.1 1.3-1.8 1.3s-1.6-.6-1.8-1.3q-.6-1.5-.6 0c-.1.7-1.2 1.3-2.6 1.3-2.4 0-2.5.2-2.7 7.7l-.2 7.8-.5-7.5-.5-7.5-.6 8-.6 8-.4-8-.4-8-.5 7.5-.6 7.5-6.2-.1-6.3-.1.1 3.6c.1 3.1.2 3.3.8 1.1.6-2.3 1.2-2.5 8.6-3l8-.5.3-7.8.3-7.7H501v-16h16v-16h32v-16h8c5 0 8-.4 8-1.1 0-.5-.4-.8-.9-.4-.5.3-1.2-.9-1.4-2.7-.2-1.9-.4-2.4-.5-1.1m-64.5 49c-.2 2.1-.4.6-.4-3.2 0-3.9.2-5.5.4-3.8.2 1.8.2 5 0 7m2 .5c-.2 1.8-.4.4-.4-3.2s.2-5 .4-3.3c.2 1.8.2 4.8 0 6.5m65.1-19.5-.3 7.8-15.7.3-15.8.3V505h-16v16h-16v16h-16v16h-16v16h-16v14.9l7.8.3 7.7.3.3 7.7.3 7.8h14.8l.3-7.8.3-7.7 8.3-.3 8.2-.3v8c0 5.7-.4 8-1.4 8.4-.7.3-4.3.5-8 .4l-6.6-.2V633h16v31h16v16l7.3.1c3.9.1 7.5.1 8 0 .4 0 .7 3.5.7 7.9v8h48v-14h-16v-16h-15.9l-.3-8.3-.3-8.2H541l-7.5-.1-.3-8.2-.3-8.2H517v-32h16v15h16v16h16v16h16v16h48v-14l-7.2-.1c-4-.1-7.6-.1-8 0-.5 0-.8-3.7-.8-8.4V633h-16v-16h-16v-16h-16v-16h-16v-17h16v16h32v16h31.9l.3 7.7.3 7.8 8 .5 8 .5.3 7.7.3 7.7 15.7.3 15.7.3.3 7.7.3 7.8h46.8l.3-7.8.3-7.7 7.8-.3 7.7-.3V553h-16v-16h-32v-16h-32v-16h-48v-16h-32v-16h-15.9zM533 560v8h-16v16h-7.9c-9.3 0-9.7-.4-8.6-10.1l.7-5.9H517v-16h16zm232.5-41-8 .6 8.3.2 8.2.2v113h-8.1c-7.1 0-7.9.2-6.5 1.5 2.2 2.2 12.5 2 14.2-.3 1.1-1.4 1.3-12.9 1.4-59 0-31.4-.3-57.1-.7-57-.5.1-4.4.5-8.8.8m-313.8 13.7c-1.9 3 .2 3.8 8.6 3.4 5.6-.3 7.4-.6 5.7-1.1-1.4-.4-4.8-.5-7.7-.3-4.4.5-5.2.3-5.5-1.3-.2-1.3-.6-1.5-1.1-.7m-7.4 15.1c-2.9.2-5.3.7-5.3 1.1 0 1.4 8.1 1.8 9.8.5 2.3-1.7 1.5-1.9-4.5-1.6m-11 .9c-2.3.4-3.3 2.3-1.3 2.3.6 0 1 .8 1 1.7 0 1.3-.2 1.5-.9.5-.5-.8-.8 0-.9 2.3-.1 1.9.3 3.5.9 3.5s.9-.7.6-1.5c-.5-1.2.9-2.6 6.1-6 .1-.1 0-1-.4-1.9-.6-1.6-1-1.7-5.1-.9m.7 15.3c-.2 3.8-.3 4.1-1 2-.6-2-.8-2.1-.8-.5-.1 1.1.3 3.8.7 6 .8 4 .8 4 1.5-2.7.5-3.6.6-7.2.3-8-.3-.7-.6.7-.7 3.2m-1.7 16.3c.2 2.5.7 3.3 2.2 3.4 1.1.1 1.4-.1.8-.4-.7-.3-1.3-1.5-1.3-2.8s-.4-2.6-.9-3c-.5-.3-.9 1-.8 2.8m-15.3 6c0 4.2 2.2 4.8 2.8.8.2-1.3 1.2-2.6 2.3-2.8 2.8-.8 1.2-2.4-2.2-2.1-2.7.2-2.9.5-2.9 4.1m11.8-2.6c.7.3 1.6.2 1.9-.1.4-.3-.2-.6-1.3-.5-1.1 0-1.4.3-.6.6m8.2 8.8v7.5h15v-15h-15zm-19.4 3.1c-.7 2.8-.3 2.8-11.8.9-3.5-.5-3.8-.4-3.8 1.9 0 2.7 1.5 4.2 2.5 2.6.3-.5 3.9-1 8-1h7.4l-.4-3.1c-.6-4.2-1.1-4.6-1.9-1.3M389 631c0 .5-.7 1-1.5 1-1.2 0-1.5 1.5-1.5 7.5 0 9.6 1.8 9.8 2.2.2l.3-7.2 6.8-.3c8.6-.4 8.8-2.2.2-2.2-3.7 0-6.5.4-6.5 1m-20.7 15.7c-1.4.5-1.8 8.3-.5 8.3 1.7-.1 3.9-2.7 4.6-5.5.4-1.6.4-2.7 0-2.3s-1.2.4-1.8-.1c-.6-.4-1.7-.6-2.3-.4m389.8 1c-.1.9-2.4 1.3-7.9 1.3-7.1 0-7.8.2-7.9 2-.2 2.4 1.5 2.7 2.4.5.4-1.2 1.9-1.5 5.9-1.4 3 .1 5.1.5 4.8.8s-1.1.6-1.6.6c-.6 0-1.3.6-1.6 1.4s0 1.1.7.7c.6-.4 1.1-.4 1.1.1 0 .4 1.4.8 3 .9 2.4.1 3-.3 2.9-2-.1-2.4-1.7-6.8-1.8-4.9m-403.9 13.4c-1.7.7-2.2 1.4-1.7 2.8.3 1.1-.1 3.4-1 5.1-1.7 3.3-.7 4.2 1.3 1 .7-1.2 1.7-1.8 2.2-1.5.6.3 1-.2 1-1.2 0-2.8 2-4.3 6-4.3 2.9-.1 3.2-.2 1.7-1.1-.9-.6-2.5-.9-3.5-.7-.9.1-2.1 0-2.7-.4-.5-.3-2-.2-3.3.3m12.8 1.5c0 .8.5 1.2 1 .9.6-.3 1-1 1-1.6 0-.5-.4-.9-1-.9-.5 0-1 .7-1 1.6m4.1 0c0 1.1.3 1.4.6.6.3-.7.2-1.6-.1-1.9-.3-.4-.6.2-.5 1.3M742 664c0 .6-3.3 1-8 1h-8v4.4c0 3.6.3 4.4 1.8 4.2 1-.2 1.9-1.4 2.2-3.1.5-3 3-4.7 3-2.1 0 2.2 4.6 2.1 5.9-.2.6-.9 1.1-1.1 1.1-.5 0 .8 1 1.1 2.3.9 2.7-.4 3.9-5.6 1.3-5.6-.9 0-1.6.4-1.6 1m-13 3c0 .5-.2 1-.4 1-.3 0-.8-.5-1.1-1-.3-.6-.1-1 .4-1 .6 0 1.1.4 1.1 1m-1.3 4.2c-.3.8-.6.5-.6-.6-.1-1.1.2-1.7.5-1.3.3.3.4 1.2.1 1.9"/><path d="M354.1 672.2c-.1 2.6-.4 2.8-4.8 2.9-2.7.1-5.4.1-6 0-1.7-.2-1.6.7.1 2.5 1.1 1 1.5 1.1 1.9.1.3-.9.7-.9 1.8 0 .8.6 2.5 1.3 3.9 1.6 1.4.2-.2.5-3.5.6-3.6 0-6.6-.4-7.3-1.1-1.7-1.7-2.3-.6-2.6 5.3-.2 3-.1 3.7.1 1.6.2-2 .8-3.5 1.4-3.2.5.4.9.1.9-.4 0-.7 3-1.1 8-1.1 7.3 0 9.7-.9 7-2.5-.8-.5-.7-1.1 0-2.1.9-.9.9-2.1.2-4.1l-1-2.8z"/><path d="M339 675.9c0 .5.7 1.4 1.5 2.1 1.6 1.4 1.8 1 .9-1.4-.6-1.7-2.4-2.2-2.4-.7m387.3 2.2-.5 2.9h-8.1c-4.4 0-7.7.3-7.4.6 1.1 1.2 17.7 1.1 17.7 0 0-.6.4-.4 1 .4.8 1.2 1 1.2 1.5-.2 1.1-2.7.1-6.1-1.8-6.4-1.3-.2-2 .6-2.4 2.7M705.5 713c-4 .6-4 .6-1 1.2 2.7.5 2.5.6-1 .6-6 0-6.5.1-6.5 1.3 0 .7 1 .9 2.5.7 1.4-.3 2.5-.1 2.5.3 0 1.1 7 1.2 7.1.1 0-.4.2-1.7.5-3 .2-1.2.3-2.1.1-2.1-.1.1-2 .5-4.2.9m-11.3 7c-.1 2.2 0 4 .2 4 .7 0 1.2-6 .6-7-.4-.6-.7.7-.8 3m-355 0c0 1.4.2 1.9.5 1.2.2-.6.2-1.8 0-2.5-.3-.6-.5-.1-.5 1.3m370.4 5.8c-.2.4.2 1.6 1 2.7 1.3 1.8 1.4 1.8 1.4-.8 0-2.5-1.3-3.6-2.4-1.9m-371.4 3.3c-.1 4.1 3.3 5.4 9.1 3.4 5.6-2 5.5-2 6.6 1.7l.9 3.3.1-3.8c.1-3.4-.1-3.7-2.7-3.7-1.5 0-3.3.5-4 1.2-.8.8-1.5.8-2.6-.1-.8-.7-1.9-1-2.5-.7-.5.4-1.8-.5-2.9-1.8l-1.9-2.5zm355.9-1.9c-.1 1.4 1.2 1.7 7.9 2 4.4.2 8 0 8-.5 0-.4-3.3-.7-7.4-.7-5 0-7.6-.4-7.9-1.3-.4-.7-.6-.6-.6.5"/><path d="M697.8 726.7c.7.3 1.6.2 1.9-.1.4-.3-.2-.6-1.3-.5-1.1 0-1.4.3-.6.6m8 0c.7.3 1.6.2 1.9-.1.4-.3-.2-.6-1.3-.5-1.1 0-1.4.3-.6.6m6.7 9.9c0 2.7.4 4 1.2 3.7 2.1-.8 2.3-3.4.6-5.7-1.8-2.2-1.8-2.2-1.8 2m11 4c-.8.9-1.5 2-1.5 2.5s-1.4.9-3.1.9c-1.6 0-2.8-.4-2.5-.8.8-1.3-3.8-.9-5.2.5-1.1 1.1 0 1.3 6.1 1.3 5.4 0 7.8.4 8.7 1.5.7.8 1.6 1.2 2.1.9s.9 5.9.9 14.1c0 8.8-.4 14.4-.9 14-.5-.3-2.2.6-3.8 2.1-2.3 2.1-3.4 2.5-6.3 2-1.9-.3-22.3-.6-45.2-.6-41.6 0-41.7 0-43.8-2.2-1.6-1.7-2-3.5-2-8.5 0-3.5-.4-6.3-1-6.3s-1 2.8-1 6.4c0 4-.4 6.6-1.1 6.8-1.9.6-.2 7.8 1.9 7.9.9 0 2.5.2 3.5.4.9.2 1.7-.3 1.7-1.1 0-1.2 7.1-1.4 46-1.4 32.3 0 46 .3 46 1.1 0 .6 1.4.9 3.5.6 1.9-.3 3.5-.1 3.7.4s.3-9.2.3-21.5-.3-21.9-.7-21.3c-.5.7-.8.8-.8.2 0-1.7-3.8-1.5-5.5.1m-371.1 1.6c-.8 2.7.4 5.6 2.4 5.4.9-.2 1.7-.8 1.6-1.4-.1-.7-.2-2.3-.2-3.5-.2-2.8-2.9-3.2-3.8-.5m183.1 4.8c-.4.7.3.8 2.2.4 3.8-.9 4.2-1.4 1-1.4-1.4 0-2.9.5-3.2 1M386 754.5c0 6 .3 7.5 1.5 7.5.8 0 1.5.4 1.5 1s2.8 1 6.5 1c8.6 0 8.4-1.8-.2-2.2l-6.8-.3-.3-7.3c-.4-9.5-2.2-9.3-2.2.3m149 2.9c0 1.9.5 3.8 1 4.1.6.4 1-1 1-3.4 0-2.3-.4-4.1-1-4.1-.5 0-1 1.5-1 3.4m-63.3 11.5c.3 4.5.2 7.1-.4 6.8-.5-.3-2 .4-3.3 1.6-2.3 2.2-2.7 2.2-26.3 1.8-16.5-.2-24.2 0-25 .8s5.8 1.1 24.6 1.1c18.3 0 25.7.3 25.7 1.1 0 .6.8.9 1.9.6 1-.2 2.6 0 3.5.5 1.4.8 1.6.3 1.5-2.9 0-2.1-.6-7.2-1.4-11.3l-1.4-7.5zM495 763c0 .6 6.7 1 18 1s18-.4 18-1-6.7-1-18-1-18 .4-18 1m86 0c0 .6 6.7 1 18 1s18-.4 18-1-6.7-1-18-1-18 .4-18 1m41 .1c0 .5.5.7 1 .4.6-.3 1-.8 1-1.1 0-.2-.4-.4-1-.4-.5 0-1 .5-1 1.1m-219.6 14.2c-1.3 3.4 0 5.2 3.9 5.5 2.1.2 3.7-.1 3.7-.7s1.1-1.1 2.5-1.1c4.3 0 2.7-1.7-2.2-2.5-2.7-.4-5.4-1.1-6-1.7-.9-.7-1.4-.6-1.9.5"/></g><path fill="#BFFFBF" d="M702 291.2c0 2.4.4 2.8 2.8 2.8 3.6-.1 6.3-2.2 5.1-4.1-.7-1.1-.9-1.1-.9.5 0 1.5-.5 1.7-2.7 1.1-1.5-.3-3.1-1.2-3.5-1.8-.5-.7-.8 0-.8 1.5m25-1.4c0 .4.9.8 2 .9s2-.2 2-.8c0-.5-.9-.9-2-.9s-2 .4-2 .8m-130.4 15c-1 1.2-1.5 2.6-1.1 3.1.8 1.4 7.5 1.4 7.5.1 0-.6 1.6-1 3.5-1s3.5-.4 3.5-1c0-.5-.7-.7-1.6-.3-.9.3-1.9.1-2.3-.6-.4-.6-2.3-1.4-4.2-1.7-2.6-.5-3.8-.1-5.3 1.4m20.9 2.2c-1.1.5-3.3.9-5 1.1-2.5.1-2.2.3 1.5 1 8.2 1.4 11 1.1 11-1.1 0-1.5-.6-2-2.7-1.9-1.6 0-3.7.4-4.8.9m125.3 0c-.1.5-2.7 1.1-5.6 1.2-4.1.2-4.9.4-3.4 1.1 2.6 1.2 11.4-.4 12-2.1.2-.6-.3-1.2-1.1-1.2-.9 0-1.7.4-1.9 1m-151.5 4.7c-1.9.7-1.6 6 .5 7.3 1.6.9 1.5 1.1-.5 2.9-1.3 1.1-2.3 2.2-2.3 2.6 0 .3 1 .5 2.3.3 1.9-.3 2.2-1 2.5-4.8.3-5.3-.8-8.9-2.5-8.3m183.8 35.9c0 1.1.3 1.4.6.6.3-.7.2-1.6-.1-1.9-.3-.4-.6.2-.5 1.3m-200.5 2.1c-2.2 3-1.3 5.6 2.3 6.1 1.9.3 2.1-.1 2.1-4.2 0-5.3-1.5-5.9-4.4-1.9m200.2 4.1c-.6 2.1-.3 2.2 5.8 2.2 3.6 0 6.4-.4 6.4-1s-2.4-1-5.4-1c-3.4 0-5.6-.5-5.8-1.2-.3-.7-.7-.2-1 1M561.5 397c0 19.5.1 27.5.2 17.7.2-9.7.2-25.7 0-35.5-.1-9.7-.2-1.7-.2 17.8m231.9-14.5c0 11.5.2 16.1.3 10.2.2-5.9.2-15.4 0-21-.1-5.6-.3-.8-.3 10.8m2 1.5c0 11.8.2 16.7.3 10.7.2-5.9.2-15.5 0-21.5-.1-5.9-.3-1-.3 10.8m-91.6-.5c-.1 3.6 0 6.5.5 6.5.4 0 .7-2.9.7-6.5s-.2-6.5-.4-6.5-.6 2.9-.8 6.5M811 408.7c0 1.2-.4 2.5-1 2.8-.5.3-1 1.9-1 3.6 0 2.5.4 2.9 2.6 2.9 2.6 0 2.7-.1 2-4.7-.7-5-2.6-8.4-2.6-4.6m16 11.7c0 1.4-.4 2.8-1 3.1-.5.3-1 2.9-1 5.6 0 4.3.3 5 1.8 4.7 1.1-.2 1.8-1.4 2-3.3.2-1.7.8-3.4 1.3-4 .5-.5.9-2.6.9-4.7 0-3.1-.4-3.8-2-3.8-1.5 0-2 .7-2 2.4m-266.3 19.3c-1.1 1-.8 13.3.3 13.3.6 0 1-3 1-7 0-7-.1-7.6-1.3-6.3M825 450.3c0 3.2.5 4.7 1.6 5.1 2.7 1 4.5-1.4 4.2-5.3-.3-3.1-.7-3.6-3-3.9-2.7-.3-2.8-.1-2.8 4.1m-51.2 9.4c7.8.2 20.6.2 28.5 0 7.8-.1 1.4-.3-14.3-.3s-22.1.2-14.2.3m-257.4 1.4c-.3.6-.2 1.5.2 1.9 1 1 29.2 1.5 30.1.6.3-.3 0-1.2-.7-2.1-1-1.2-3.9-1.5-15.1-1.5-8.8 0-14 .4-14.5 1.1M503 483.5c0 1.2 1.4 1.5 6.5 1.5 5.3 0 6.3-.3 5.9-1.5-.5-1.1-2.2-1.5-6.5-1.5-4.6 0-5.9.3-5.9 1.5m-5.7 13c0 3.8.2 5.3.4 3.2.2-2 .2-5.2 0-7-.2-1.7-.4-.1-.4 3.8M474 510.4c0 4.4.4 7.6 1 7.6s1-3 1-6.9-.4-7.3-1-7.6c-.6-.4-1 2.2-1 6.9m-29 27.4c0 2.6 1.1 3.4 2.7 2.1 1-.9 1-1.5.2-2.5-1.6-1.9-2.9-1.7-2.9.4m-7 11.1c0 .6.4 1.3 1 1.6s.7-.1.4-.9c-.7-1.8-1.4-2.1-1.4-.7m-6.6 4c0 1.1.4 1.7.8 1.5.4-.3.8-1.2.8-2s-.4-1.4-.8-1.4-.8.9-.8 1.9m-.4 7.3c.1.7.7 2.4 1.5 3.8l1.5 2.5-.2-3.4c-.3-3.2-2.8-5.9-2.8-2.9m1.1 21.4c0 1.1.3 1.4.6.6.3-.7.2-1.6-.1-1.9-.3-.4-.6.2-.5 1.3m-29.4 8.1c-1.4 1.3-.6 2.2 2.8 3.3 2 .7 3.2 1.6 2.9 2.2-.9 1.5 1.6 2.8 5.1 2.7 3-.2 3-.2-.5-.9l-3.5-.7 3.2-.2c1.7 0 3.4-.5 3.7-1 .4-.5-.3-.7-1.5-.4-1.9.5-2.1.3-1.4-2.6l.7-3.1h-5.5c-2.9 0-5.7.3-6 .7m-38.5 71.5c.6 1.8 2.5 2 3.1.3.5-1 0-1.5-1.4-1.5-1.2 0-1.9.5-1.7 1.2m-18.5 1.4c-.4.4-.7 3.4-.7 6.6v5.8h4.5c4.4 0 4.5-.1 4.5-3.1v-3.2l-2.7 2.8-2.8 2.7-.8-5.3c-.9-6.7-1.1-7.2-2-6.3m385 6.4c-.4 1.7 0 2 3.1 1.9 2.1 0 4.6-.4 5.7-.9 1.4-.6.6-.7-2.2-.3-3.5.5-4.3.3-4.3-1.1 0-2.3-1.7-2-2.3.4m4.2 4.6c-1 1.3-1 1.7.2 2.5 2.6 1.6 9.9.8 9.9-1.1 0-.8-5.4-3-7.5-3-.7 0-1.8.7-2.6 1.6M331 678.9c0 2.2.5 4.3 1.1 4.7.7.4.9 2.1.6 4-.5 3.1-.3 3.4 1.9 3.4s2.4-.4 2.4-4.9c0-2.8-.4-5.3-1-5.6-.5-.3-1-1.7-1-3.1 0-1.7-.5-2.4-2-2.4-1.7 0-2 .7-2 3.9m381.7 4.8c-1.4.4-1.7 1.3-1.5 3.6.3 3.1.4 3.2 5.9 3.4 4.5.2 5.9-.1 7.4-1.7s1.5-2.1.4-3.3c-1.5-1.5-9.2-2.7-12.2-2m-13.9 33.1c-1.4.2-2.9 1-3.2 1.8-.8 2.2 1.1 6.4 3.1 6.5 3.5.3 16.7-.2 17.1-.6.3-.2.5-2.1.6-4.2.1-3.7 0-3.8-3.6-4.1-2.2-.2-3.8.1-3.8.7 0 1.2-6.6 1.5-7.2.3-.1-.4-1.5-.6-3-.4m11.7 3.2c-1.1.5-3.1.9-4.5.9-1.5.1-3.1.6-3.6 1.1-.7.7-1.6.4-2.9-1-1.8-2-1.8-2 5.6-1.9 5.1 0 6.8.3 5.4.9m-375.7-2.5c-.8.8.4 6.5 1.3 6.5 1.2 0 1.2-5.7 0-6.4-.4-.3-1-.3-1.3-.1m13 14.8c-2.8 1.1-3.6 3.1-1.9 4.2.5.3 1.3 0 1.6-.6.4-.5 1.3-.8 2.1-.5s1.4.1 1.4-.4c0-2.4 2-.7 2.1 1.7.1 1.9.3 2.2.6 1 .7-2.7-.5-6.7-2-6.6-.6.1-2.4.6-3.9 1.2m365.4.9c.7 1.9 3.8 2.2 3.8.4 0-1-.9-1.6-2.1-1.6s-1.9.5-1.7 1.2m.4 7.1c-1.8 1.3-1.8 1.4-.2 2 2.2.9 3.6.1 3.6-1.9 0-1.8-1.1-1.8-3.4-.1M345 743.9c0 1.9.6 3.4 1.5 3.8 2.3.8 3-.4 1.9-3.4-1.3-3.9-3.4-4.1-3.4-.4m199.8 3.7c-.5.4-.8 3.9-.8 7.8 0 4.9.3 6.7 1 6 .6-.6 1-4 .8-7.8-.2-3.7-.6-6.4-1-6m-7.5 9.9c0 2.2.2 3 .4 1.7.2-1.2.2-3 0-4-.3-.9-.5.1-.4 2.3m-65.3 4.9c0 .2.7.7 1.6 1 .8.3 1.2.2.9-.4-.6-1-2.5-1.4-2.5-.6m144.6 1.2c-.9 2.4-.7 11.2.3 11.8.5.4 1.1-2.3 1.3-6 .3-6.4-.4-9-1.6-5.8m6.4-.1c-.8 1-.9 1.5-.2 1.5.6 0 1.3 2.4 1.5 5.2.3 5 .3 4.9.5-1.5.1-3.7 0-6.7-.2-6.7s-.9.7-1.6 1.5M417 782c0 .6 7.8 1 21.5 1s21.5-.4 21.5-1-7.8-1-21.5-1-21.5.4-21.5 1m214 0c0 .7 15 1 43 1s43-.3 43-1-15-1-43-1-43 .3-43 1m-161.4.8c-.3.5.1.9.9.9s1.2-.4.9-.9c-.3-.4-.7-.8-.9-.8s-.6.4-.9.8m258 .4c.3.5 1 .6 1.5.3 1.3-.9 1.1-1.2-.6-1.2-.8 0-1.2.4-.9.9m-322.8.5c.7.3 1.6.2 1.9-.1.4-.3-.2-.6-1.3-.5-1.1 0-1.4.3-.6.6m19.7 1c17.1.7 35.5.7 35.5 0 0-.4-9.6-.6-21.2-.5-11.7.1-18.1.3-14.3.5m221 0c38.1.7 71.5.7 71.5 0 0-.4-19.5-.6-43.2-.5-23.8.1-36.5.4-28.3.5m-229.3 4c.3 1.6 2.3 1.8 21.6 2.1 20.7.2 21.2.2 21.2-1.8 0-1.9-.6-2-21.6-2-20 0-21.5.1-21.2 1.7m214.8.3c0 2 .7 2 42.5 2s42.5 0 42.5-2-.7-2-42.5-2-42.5 0-42.5 2"/><path fill="#BFFFFF" d="M616.3 297c0 4.1.2 5.8.4 3.7.2-2 .2-5.4 0-7.5-.2-2-.4-.3-.4 3.8m2.9-.3-.2 7.3 2.8-.1c2.2-.1 2.3-.2.5-.6-2-.4-2.2-1.2-2.6-7.1l-.3-6.7zm-15.4 7c.7.3 1.6.2 1.9-.1.4-.3-.2-.6-1.3-.5-1.1 0-1.4.3-.6.6m137.7 1.3c-1.7.7-1.5.9 1.3.9 1.7.1 3.2-.4 3.2-.9 0-1.2-1.7-1.2-4.5 0M588 313.9c-1.4 2.7-1.3 4.1.5 4.1q1.5 0 1.5-3c0-3.5-.5-3.8-2-1.1m5.8 7.8c-.2 2.3-.8 2.8-3 2.8-1.6-.1-2.8.3-2.8.7 0 1.3 5.5.9 6.8-.4 1.4-1.4 1.6-5.8.3-5.8-.5 0-1.1 1.2-1.3 2.7m165.3-1.1c0 1.1.3 1.4.6.6.3-.7.2-1.6-.1-1.9-.3-.4-.6.2-.5 1.3m16.3 14.9c0 6 .1 8.4.3 5.2s.2-8.1 0-11-.3-.3-.3 5.8m36 68.9c-.4.9-.1 2.2.5 3 .6.7 1.4 3.4 1.7 6 .4 3 1.2 4.6 2.1 4.6 1.1 0 1.3-1.5 1.1-7.3-.3-6.6-.5-7.2-2.6-7.5-1.3-.2-2.5.3-2.8 1.2m13.6 16.7c0 1.7.4 2.8 1 2.4.6-.3 1-1.7 1-3.1 0-1.3-.4-2.4-1-2.4-.5 0-1 1.4-1 3.1m4.8 5.9c-1.2 2.8-1.5 7-.6 7 1.3 0 2-2.5 1.6-5.7-.3-1.8-.6-2.3-1-1.3m-266.5 18.5c0 3.3.2 4.5.4 2.7s.2-4.5 0-6-.4 0-.4 3.3m266.2 9.5c-.4.6-1.5.8-2.6.5-1.6-.5-1.9-.1-1.9 2.9 0 3.3.2 3.6 3 3.6s3-.2 3-4c0-4.1-.4-4.8-1.5-3M516 465c0 1.3 2.1 1.5 14.5 1.2 8-.2 14.5-.7 14.5-1.2s-6.5-1-14.5-1.2c-12.4-.3-14.5-.1-14.5 1.2m-40.2 45.6c.5 9.8 2.5 9.6 3.2-.4.5-6.7.4-7.2-1.5-7.2s-2 .6-1.7 7.6m286.9 8.1c1.8.2 5 .2 7 0 2.1-.2.7-.4-3.2-.4-3.8 0-5.5.2-3.8.4m12.3 57c-.3 32-.2 57.9.3 57.4.4-.4.6-26.6.5-58.2l-.3-57.4zm-330-42.1c0 1.8 4.1 5.5 5.2 4.7.5-.2.8-1.7.8-3.4 0-2.6-.3-2.9-3-2.9-2.1 0-3 .5-3 1.6m-7.5 13.4c.3.5 2.2 1 4.1 1s3.4-.5 3.4-1c0-.6-1.8-1-4.1-1-2.4 0-3.8.4-3.4 1m-23.9 44.6c-.8 3.2-.1 4.2 2.2 2.8 2.2-1.4 2.2-4.8.1-5.2-1.1-.2-1.9.6-2.3 2.4M402 594c0 1.5.7 2 2.9 2 4.2 0 4.7-1.6.9-2.9-4-1.4-3.8-1.4-3.8.9m.3 18c0 4.1.2 5.8.4 3.7.2-2 .2-5.4 0-7.5-.2-2-.4-.3-.4 3.8m-10.6 17.7c1.8.2 5 .2 7 0 2.1-.2.7-.4-3.2-.4-3.8 0-5.5.2-3.8.4m-46 31c-1.1 1-.8 2.5.2 1.8.6-.3 1.3 2.1 1.7 5.5.3 3.3 1 5.7 1.5 5.4s.9-1.4.9-2.5c0-1 .5-2.8 1.2-3.8 2.3-3.7-2.6-9.4-5.5-6.4m393.8 9.3c-1.1.5-3.7.9-5.7.9-2.1.1-3.8.5-3.8 1 0 1.4 4.1 2.1 6 .9 1.2-.8 2.6-.8 5 .1 3.7 1.2 5.7.3 4.7-2.3-.7-1.7-3.1-2-6.2-.6M335 677.4c0 1.4.5 2.8 1 3.1.6.4 1-.7 1-2.4s-.4-3.1-1-3.1c-.5 0-1 1.1-1 2.4m397.8-.7c.6.2 1.8.2 2.5 0 .6-.3.1-.5-1.3-.5s-1.9.2-1.2.5M331 686.5c0 2.2.4 3.4 1 3 .6-.3 1-1.7 1-3s-.4-2.7-1-3c-.6-.4-1 .8-1 3m392-2.8c0 .1.7.9 1.6 1.8 1.5 1.5 1.5 1.7-.1 3.5-1.8 2-1.7 2 2.3 2 4.1 0 4.2-.1 4.2-3.4 0-3.2-.2-3.4-4-3.8-2.2-.2-4-.3-4-.1m-9.7 28c-3.2 2.1-2.9 4 .7 4.5 2.7.4 3 .2 3-2.3 0-3.5-.9-4.1-3.7-2.2m-382.1 14c.3 7.5.4 7.8 2.7 7.8 2.2 0 2.5-.5 2.8-4.8.3-2.7 0-4.7-.6-4.7-.5 0-1.1-1.2-1.3-2.7-.2-1.7-1-2.9-2.1-3.1-1.6-.3-1.8.4-1.5 7.5m368.3-4.7c1.3 1.4 2.2 1.7 2.9 1 .5-.5 2.1-1 3.6-1.1 1.4 0 3.4-.4 4.5-.9 1.4-.6-.3-.9-5.4-.9-7.4-.1-7.4-.1-5.6 1.9m-352 15c-.3.6-1.1.8-1.6.5-1.8-1.2-.9 3.5 1.1 5.5 1.1 1.1 2 2.9 2 4s.4 2 .9 2c1.2 0 2.2-4.1 1.3-5.4-.4-.6-.7-2.4-.7-4 0-3-1.8-4.6-3-2.6m18.8 11.7c3.7.2 9.7.2 13.5 0 3.7-.2.6-.3-6.8-.3s-10.5.1-6.7.3m173.7 6.9c0 6.7.2 7.4 2 7.4s2-.7 2-6.9c0-6-.2-6.9-2-7.4-1.9-.5-2 0-2 6.9m12.2-6.9c3.7.2 10 .2 14 0 4-.1 1-.3-6.7-.3s-11 .1-7.3.3m-72.4 16c2.8.2 7.6.2 10.5 0 2.8-.2.5-.3-5.3-.3s-8.1.1-5.2.3m-88.1 1c1.8.2 5 .2 7 0 2.1-.2.7-.4-3.2-.4-3.8 0-5.5.2-3.8.4m112.5 0c4.8.2 12.9.2 18 0 5.1-.1 1.2-.3-8.7-.3s-14.1.2-9.3.3m85 0c4.8.2 12.9.2 18 0 5.1-.1 1.2-.3-8.7-.3s-14.1.2-9.3.3M618 770c0 5.3.2 6 2 6s2-.7 2-6-.2-6-2-6-2 .7-2 6m-146.8 1.5c0 1.6.2 2.2.5 1.2.2-.9.2-2.3 0-3-.3-.6-.5.1-.5 1.8M416 785.7c0 1 5 1.3 21.4 1.3 21.5 0 21.5 0 21.9 2.2.4 2 .4 1.9.6-.5 0-1.5-.5-3-1.1-3.2-.7-.2-10.6-.6-22.1-.7-16-.2-20.7 0-20.7.9m215 .3c0 .7 14.5 1 42.4 1h42.5l.4 2.2c.4 1.6.5 1.3.4-.7l-.2-3-42.7-.3c-28.4-.1-42.8.1-42.8.8"/><path fill="#FFBFBF" d="M667.5 290c-.3.5-.1 1 .4 1 .6 0 1.1-.5 1.1-1 0-.6-.2-1-.4-1-.3 0-.8.4-1.1 1m-85.2 34.7c.9.2 2.3.2 3 0 .6-.3-.1-.5-1.8-.5-1.6 0-2.2.2-1.2.5m180.4 0c1.8.2 5 .2 7 0 2.1-.2.7-.4-3.2-.4-3.8 0-5.5.2-3.8.4m-187.2 2.7c-1.6 1.1-1.7 1.8-.8 3.7l1.2 2.4v-2.6c.1-1.4.6-3 1.3-3.7 1.6-1.6.6-1.5-1.7.2m-28.7 125.3c.7.3 1.6.2 1.9-.1.4-.3-.2-.6-1.3-.5-1.1 0-1.4.3-.6.6m-120 127c.6.2 1.8.2 2.5 0 .6-.3.1-.5-1.3-.5s-1.9.2-1.2.5m-8.8.7c0 .2.7.7 1.6 1 .8.3 1.2.2.9-.4-.6-1-2.5-1.4-2.5-.6m309.1 90.2c0 1.1.3 1.4.6.6.3-.7.2-1.6-.1-1.9-.3-.4-.6.2-.5 1.3M715.4 737c0 1.3.4 1.6 1 1 .7-.7.7-1.3 0-2-.6-.6-1-.3-1 1"/><path fill="#FFBFFF" d="M669.8 289.7c.6.2 1.8.2 2.5 0 .6-.3.1-.5-1.3-.5s-1.9.2-1.2.5m41.2 1c0 1.2.3 1.4.8.7.4-.7 1.6-1.4 2.7-1.7 1.5-.4 1.4-.5-.7-.6s-2.8.4-2.8 1.6m-122.9 15.5c-.1 1.9.4 2.8 1.4 2.8.8 0 1.5-.5 1.5-1.1 0-.5-.4-.8-.9-.4-.5.3-1.2-.5-1.4-1.7-.4-2-.4-1.9-.6.4m2.9-1.1c0 .5.5.7 1 .4.6-.3 1-.8 1-1.1 0-.2-.4-.4-1-.4-.5 0-1 .5-1 1.1m22-.1c0 .5.7 1 1.5 1s1.5-.5 1.5-1c0-.6-.7-1-1.5-1s-1.5.4-1.5 1m125 0c0 .5.5 1 1 1 .6 0 1-.5 1-1 0-.6-.4-1-1-1-.5 0-1 .4-1 1m-150.9 14.6c0 1.1.3 1.4.6.6.3-.7.2-1.6-.1-1.9-.3-.4-.6.2-.5 1.3m3.5 1.1c-.6 1.4-.5 1.5.5.6.7-.7 1-1.5.7-1.8s-.9.2-1.2 1.2M567 348c0 .5.9 1.1 2 1.1 1.1.1 2.5.2 3.2.3.6.1 1.3-.5 1.6-1.2.2-.8-.8-1.2-3.2-1.2-2 0-3.6.4-3.6 1m-4.2 51.7c-.2 20.8 0 38.2.3 38.6.4.5.7-16.5.8-37.7s0-38.6-.3-38.6-.6 17-.8 37.7m-2.6 36.3c0 1.4.2 1.9.5 1.2.2-.6.2-1.8 0-2.5-.3-.6-.5-.1-.5 1.3m264.1 4c0 3.6.2 5 .4 3.2.2-1.7.2-4.7 0-6.5-.2-1.7-.4-.3-.4 3.3m-267.5 6.7c.7.3 1.6.2 1.9-.1.4-.3-.2-.6-1.3-.5-1.1 0-1.4.3-.6.6m-11.7 1.3c-.1 2.5 1.2 3.7 5.2 4.8 3 .8 3.7.8 3.7-.4 0-.8.7-1.4 1.5-1.4 1.2 0 1.1-.4-.5-2-2.5-2.5-6.5-2.6-7.5-.3-.7 1.7-.8 1.6-1.5-.2-.6-1.3-.9-1.5-.9-.5m214.2 20.5c0 4.4.2 6.1.4 3.7.2-2.3.2-5.9 0-8-.2-2-.4-.1-.4 4.3M466.2 528c0 1.4.2 1.9.5 1.2.2-.6.2-1.8 0-2.5-.3-.6-.5-.1-.5 1.3m-17 15.5c0 1.6.2 2.2.5 1.2.2-.9.2-2.3 0-3-.3-.6-.5.1-.5 1.8m-17 29c0 1.6.2 2.2.5 1.2.2-.9.2-2.3 0-3-.3-.6-.5.1-.5 1.8m2 0c0 1.6.2 2.2.5 1.2.2-.9.2-2.3 0-3-.3-.6-.5.1-.5 1.8m-17.2 4.7c0 1.5 1 2.7 2.7 3.5 3.2 1.5 6.7 1.7 5.8.4-.3-.5-.1-1.2.5-1.6s.7-1.1.4-1.7c-.4-.6 0-1.4.7-1.9.9-.6-.7-.9-4.3-.9-5.4 0-5.8.2-5.8 2.2m-14.7 47.3c0 3.3.2 4.5.4 2.7s.2-4.5 0-6-.4 0-.4 3.3m357 17c0 3.3.2 4.5.4 2.7s.2-4.5 0-6-.4 0-.4 3.3m-382.5 5.2c1.7.2 4.7.2 6.5 0 1.7-.2.3-.4-3.3-.4s-5 .2-3.2.4M338.4 704c0 8 .2 11.2.3 7.2.2-3.9.2-10.5 0-14.5-.1-3.9-.3-.7-.3 7.3m373.8 5c0 1.4.2 1.9.5 1.2.2-.6.2-1.8 0-2.5-.3-.6-.5-.1-.5 1.3m-242 56.5c0 1.6.2 2.2.5 1.2.2-.9.2-2.3 0-3-.3-.6-.5.1-.5 1.8m-67.9 4c0 3.3.2 4.5.4 2.7s.2-4.5 0-6-.4 0-.4 3.3M461 789c0 .5.5 1 1 1 .6 0 1-.5 1-1 0-.6-.4-1-1-1-.5 0-1 .4-1 1m256 0c0 .5.5 1 1 1 .6 0 1-.5 1-1 0-.6-.4-1-1-1-.5 0-1 .4-1 1"/><g fill="gray" stroke-width="0"><path d="m676.8 295.7 48.2.3v16h31.9l.3 7.7.3 7.8 7.7.3 7.7.3.3 15.7.3 15.7 8.2.5c4.4.3 7.9.2 7.6-.3-.2-.4-3.8-.7-7.8-.7h-7.4l-.3-15.8-.3-15.7-7.7-.3-7.7-.3-.3-7.7-.3-7.7-15.7-.3-15.7-.3-.3-7.7-.3-7.7h-97zm-72 16c4.5.2 11.9.2 16.5 0 4.5-.1.8-.3-8.3-.3s-12.8.2-8.2.3"/><path d="M645 319.5v7.5h-16v16h-16v97l6.3.1c3.4.1 7 .1 8 0 1.5-.2 1.7.8 1.7 8.1v8.3h31.5l.3 7.5c.2 4.4.8 7.8 1.5 8.2s4.2.8 7.9.8h6.7l.3 7.7.3 7.8h15l.5 8 .5 8 7.8.3 7.7.3V520l-15.2-.2-15.3-.3-.5-7.5-.5-7.5-24-.5c-13.2-.3-24.1-.7-24.2-.8-.2-.1-.3-3.6-.3-7.7 0-5.5-.3-7.5-1.2-7.4-.7.1-7.9.1-16 0L597 488v-16h-11.8c-6.6 0-17.4.3-24 .7l-12.2.6v14.5l-16 .7-15.9.7-.3 7.7-.3 7.6-15.5-.1c-8.5 0-12 .1-7.7.3l7.8.4-.3 7.7-.3 7.7h-15.9c-12.1 0-16 .3-16.2 1.3-.1.7 0 .8.3.2.2-.5 4-1 8.4-1h8l-.3 7.7-.3 7.8-7.7.3c-4.3.2-7.8-.1-7.8-.5s-3.7-.6-8.2-.3l-8.3.5-.3 7.7-.3 7.7-7.6.3c-5.2.2-7.7.7-7.9 1.6-.1.7 0 .8.3.2.2-.5 4-1 8.3-1h7.9l.3 7.7.3 7.8 7.8.3 7.7.3v-16.6h15.5l.3-8.1.3-8.1 7.9.4 8 .4v-16.6l8 .3 8 .4V505h16v-16l8.3-.1c4.5-.1 11.6-.2 15.7-.3l7.5-.1.3-7.8.3-7.7H581v15.5l8.3.2c4.5.1 11.7.2 16 .2l7.7.1v16h47.9l.3 7.7.3 7.8 7.5.1c4.1.1 11.2.2 15.7.3l8.2.1.3 7.7.3 7.8 4 .2c2.2.1 9.3.2 15.7.2l11.7.1.3 7.7c.3 8.7-.6 8 10.1 8.2l5.7.1v79.5h-15.5l-.3 7.7-.3 7.8H677v-16h-16.1c-10.4 0-15.8.3-15.4 1 .3.5 3.9 1 8 1h7.4l.3 7.2.3 7.3 30.9.9c22.5.6 31.5.5 32.8-.3 1-.6 4.9-1.1 8.7-1.1h7l.3-7.8.3-7.7 7.8-.3 7.7-.3V568h-14.8l-.7-48.3c-.3-26.5-.5-55.2-.3-63.7l.3-15.5 24-.5 24-.5v-16l-7.7.4-7.7.3-.3-8.4-.3-8.3-8.2-.3-8.3-.3V423h-15v-31h16v-12.3c0-6.8-.3-17.9-.7-24.5l-.6-12.2H742v-14.8l-16-.7-16-.7V312h-65zm63.7 25.2c.5 1 .9 4.7.8 8.3v6.5h16v48l-8.4.5-8.5.5.3 6.1c.2 4.3-.2 6.4-1.2 7.2-1.1.9-7.5 1.2-23.3 1l-21.9-.3-.1-5.5c0-3-.4-6.6-.8-8-.7-2.4-.9-2.5-8.1-2.2l-7.5.4v-47.4l7.5.4c8.6.4 8.9.1 8.8-8.7-.1-2.8.3-5.5.8-6.1s3.9-1.2 7.6-1.3 7-.4 7.2-.7c.2-.2 7.1-.4 15.2-.4 13.1 0 14.9.2 15.6 1.7m64.4 71.5c0 4.6.1 11.6.2 15.6l.2 7.2H742v-14.5l7.8-.1 7.7-.1.3-8.2.3-8.1H773zM725 528.5v7.5h-15v-15h15zm-256.2 16.2-.3 7.8-7.7.3-7.8.3V537h16.1z"/><path d="M693.7 375.7c-.3.5 1.8.7 4.6.5 9.2-.5 10.4-.9 3-1.1-3.9 0-7.4.2-7.6.6m3.1 16c2.3.2 6.1.2 8.5 0 2.3-.2.4-.4-4.3-.4s-6.6.2-4.2.4m-112-64c2.3.2 6.1.2 8.5 0 2.3-.2.4-.4-4.3-.4s-6.6.2-4.2.4m-16 32c2.3.2 6.1.2 8.5 0 2.3-.2.4-.4-4.3-.4s-6.6.2-4.2.4M803 407.4c0 .2.7.7 1.6 1 .8.3 1.2.2.9-.4-.6-1-2.5-1.4-2.5-.6M757.5 488v32.5l7.8.3 7.7.3v110.8l-7.7.3-7.8.3-.1 8v8l.3-7.8.4-7.7H774V520h-16l-.3-32.3-.2-32.2zM517 560v8h-16v16h16v-16h16v-16h-16zm-81 12.5v11.4l-7.7.3-7.8.3-.3 7.7-.3 7.7-7.7.3-7.7.3-.3 15.7-.3 15.7-7.7.3-7.7.3-.3 7.7-.3 7.8h-7.4c-4.1 0-7.6.3-7.8.7-.3.5 3.2.6 7.6.3l8.2-.5.3-7.7.3-7.7 7.7-.3 7.7-.3.3-15.7.3-15.7 7.7-.3 7.7-.3.3-7.8.3-7.7H437v-12c0-6.6-.2-12-.5-12s-.5 5.2-.5 11.5m113 4v8.5h16v16h16v16h16v16h16v-15.9h15.6c8.6 0 15.9-.2 16.2-.5s-3.1-.6-7.6-.6H629v-16.1l-16 .3-15.9.3-.3-8-.3-8-15.7-.3-15.8-.3V568h-16zM452.6 592l.2 8h-5.7c-10.8 0-10.1-1.1-10.1 17.1V633h16v-16h16v-16.1l7.5.2 7.5.2v15.1c0 8.3.3 26.2.7 39.8l.6 24.8H501v16h32v16h64.1l-.3-8.1-.3-8.1-31.7.1-31.8.2V681h-16v-16h-16v-32h-16v-33h16.1l-.3-7.8-.3-7.7-7.7-.3-7.8-.3V600h-15.9l-.3-7.8-.3-7.7-8.1-.3-8-.3z"/><path d="M517 617v16h16v16h7.8c4.2 0 15 .3 24 .6 11.2.4 16.2.2 16.2-.5s-3-1.1-8-1.1h-8v-16l-8 .2-8 .3v-16.4l-7.7.2-7.8.2-.3-7.8-.3-7.7H517zm103.5 31.7c4.6.2 8.3.9 8.8 1.6.6.8.7.8.4-.3-.3-1.2-2.2-1.5-8.8-1.6h-8.4zm120.8 8.3c0 4.7.2 6.6.4 4.2.2-2.3.2-6.1 0-8.5-.2-2.3-.4-.4-.4 4.3m-112 .5c0 2.7.2 3.8.4 2.2.2-1.5.2-3.7 0-5-.2-1.2-.4 0-.4 2.8m-76.5 7.2c2.3.2 6.1.2 8.5 0 2.3-.2.4-.4-4.3-.4s-6.6.2-4.2.4m28.2.3c0 .6 6.3 1 16 1h16v15h15.9l.3 7.7.3 7.8 7.8.3 7.7.3v-32.7l-32-.2c-20.2-.1-32 .2-32 .8m144.3 7.5c0 4.4.2 6.1.4 3.7.2-2.3.2-5.9 0-8-.2-2-.4-.1-.4 4.3M565 680.7c0 1.2 11.4 1.5 14.1.4 1.8-.8.5-1-5.8-1-4.6-.1-8.3.2-8.3.6m144.4 15.8c0 8.8.2 12.3.3 7.7.2-4.6.2-11.8 0-16-.1-4.2-.3-.5-.3 8.3m-47.7 1.2c-.4.3-.7 4-.7 8.2v7.6h-15.5l-.3 16.2-.2 16.3h32v-33.1l8.3.3 8.2.3-.3-8.3-.3-8.2h-15.3c-8.4 0-15.6.3-15.9.7m31.5 23.3c0 1.9.2 2.7.5 1.7.2-.9.2-2.5 0-3.5-.3-.9-.5-.1-.5 1.8m-351.4 8.7c.7.3 1.6.2 1.9-.1.4-.3-.2-.6-1.3-.5-1.1 0-1.4.3-.6.6m8 0c.6.2 1.8.2 2.5 0 .6-.3.1-.5-1.3-.5s-1.9.2-1.2.5m277.2.3c0 .5.5 1 1 1 .6 0 1-.5 1-1 0-.6-.4-1-1-1-.5 0-1 .4-1 1m82.3 7.5c0 4.4.2 6.1.4 3.7.2-2.3.2-5.9 0-8-.2-2-.4-.1-.4 4.3m-81.2 2.1c0 1.1.3 1.4.6.6.3-.7.2-1.6-.1-1.9-.3-.4-.6.2-.5 1.3m-47.1 3.7c0 1.5-2.5 1.7-24.2 2l-24.3.2 24.3.3c21.1.2 24.3 0 24.9-1.3.3-.9.3-1.9-.1-2.2-.3-.4-.6.1-.6 1m-208.5 2.4 15.4.4.3 7.7.3 7.7 7.7.3 7.7.3.3 7.7.3 7.7 31.4.3c17.3.1 31.8-.1 32.2-.5.5-.5-13.6-.7-31.1-.5l-31.9.3-.3-7.8-.3-7.8-7.7-.3-7.7-.3-.3-7.7-.3-7.7h-15.8l-15.7-.1zm256.5 7.8v7.5l-24.2.2-24.3.3 23 .3c12.7.1 23.9 0 25-.2 1.8-.5 2-1.3 2-8.1 0-4.1-.3-7.5-.7-7.5-.5 0-.8 3.4-.8 7.5m96.2 7.7L725 777l-48.2.3-48.3.2 48.3.3c38.7.2 48.4-.1 48.8-1.1.2-.7.3-8 .1-16.2l-.3-15zm-216.4.5c4.5.2 11.9.2 16.5 0 4.5-.1.8-.3-8.3-.3s-12.8.2-8.2.3"/></g><g fill="#404040" stroke-width="0"><path d="m629.2 303.7-.2 8.3h-16v14.9l-7.7.4c-4.3.2-.7.3 7.9.3l15.8-.1v-15.3l31.9-.7c17.6-.4 39.1-.4 47.9 0l16 .7.6 3.7c.3 2 .6 5.2.6 7.2v3.7l15.4.7 15.4.7.7 16c.6 13 1 15.8 2.2 15.4.7-.3 4-.3 7.3.1l6 .6.2 23.6.3 23.6 7.7.3 7.7.3.3 8.2.3 8.2 7.3.1c5.3 0 7.6.4 8.3 1.5.6 1 .9 1 .9.1 0-.8 2.2-1.2 7.5-1.2h7.5v30h-63v-14l23.8-.2 23.7-.3.1-6c.1-5.4.1-5.5-.3-.9l-.4 5.1-11.2.6c-6.2.4-15.2.7-20.2.7-4.9 0-14.1.3-20.2.7l-11.3.6V520h6.3c3.4 0 6.8.4 7.4.8.9.6 1.3 7.1 1.6 24.2.2 12.9.1-1.8-.1-32.7l-.5-56.3 32.4-.2 32.4-.3v-31l-7.7-.3-7.7-.3-.3-7.7-.3-7.7-15.7-.9-15.8-.9v-45.6l7.3-.4 7.2-.3-7.7-.2-7.8-.2v-17h-14.9l-.3-7.8-.3-7.7-7.7-.3-7.8-.3v-14.6l-16-.8-16-.7V296h-49v15h-30.9l-.4-7.8-.3-7.7zM805 416v7h-15v-14h15zm-231-56c-7.5.6-7.5.6-1.5.7 3.3 0 10.3-.3 15.5-.7l9.5-.7h-8c-4.4.1-11.4.3-15.5.7"/><path d="M696.8 392.7c2.3.2 6.1.2 8.5 0 2.3-.2.4-.4-4.3-.4s-6.6.2-4.2.4m-23 15c6.8.2 17.6.2 24 0 6.4-.1.9-.3-12.3-.3s-18.5.2-11.7.3m-108.8 40v8.2l-8.2.4-8.3.3 8.3.2 8.2.2v13.9l-8.2.3c-4.6.2 2.6.4 16 .5l24.2.1V456h-16v-15.8l-8-.4-8-.3zm-40.2 25c4.6.2 11.8.2 16 0 4.2-.1.5-.3-8.3-.3s-12.3.2-7.7.3m72.9 0c-.4.3-.7 3.9-.7 8v7.3h48v16h32v-16h-32v-16h-23.3c-12.9 0-23.7.3-24 .7m-72.9 15c4.5.2 11.9.2 16.5 0 4.5-.1.8-.3-8.3-.3s-12.8.2-8.2.3m-8.5 8.8c0 4.4.2 6.1.4 3.7.2-2.3.2-5.9 0-8-.2-2-.4-.1-.4 4.3M500 512.7c-.3 4.5-.1 7.8.3 7.4s.7-4.1.5-8.2l-.3-7.4zm-16 16c-.3 4.5-.1 7.8.3 7.4s.7-4.1.5-8.2l-.3-7.4zm-15.3 8c-.4.3-.7 3.9-.7 7.9v7.3l-7.5.4-7.5.3h7.7l7.8-.1.3-7.7c.2-6.2.6-7.8 2-8.1 1.4-.4 1.4-.5.1-.6-.9 0-1.9.2-2.2.6M437 561v8h15v-16h-15zm15.3 16c0 4.1.2 5.8.4 3.7.2-2 .2-5.4 0-7.5-.2-2-.4-.3-.4 3.8m-31.6 23.7c-.4.3-.7 7.5-.7 16 0 11.5-.3 15.3-1.2 15.4-.7 0-7.6.3-15.3.5-15.2.6-19.5 1.4-7.1 1.4h7.7l-.3 7-.3 7-15 .6c-8.2.3-15.3.8-15.7 1-.4.3-.8 1.1-.7 1.7 0 .9.2.9.6-.1.3-.8 2.9-1.2 7.9-1.2h7.4v14.9h-15c-8.3 0-15.5.3-16 .6-.6.4-1 3.9-1 8v7.4l-7.7.3-7.8.3-.3 23.7-.2 23.8h16v15.9l16.4.3c9 .2 16.2 0 15.9-.5-.2-.4-7.4-.7-15.9-.7H357v-15h47v31l-7.7.2-7.8.1 9.5.7c13.4 1 71 1.2 71 .3 0-.5 14.4-.7 32-.5l32 .3v-16.4l46.3.5c30.2.4 37.5.3 21.2-.2-13.7-.4-34.6-.8-46.2-.9L533 744v-15h48.5l-.3-7.5-.4-7.5 5.9-.1c3.2-.1 13.9-.4 23.8-.8l18-.6.3-7.1.3-7.1 24.1-.6c13.3-.4 27.7-.7 32-.7h7.8v16h-16l.2 16.2.2 16.3.3-15.6.3-15.7 15.8-.9c11.3-.7 13.6-1 8-1.1l-7.7-.2-.3-7.8-.3-7.7-15.7-.3-15.8-.3V681l31.8-.2c17.4-.1 28.2-.4 24-.5l-7.8-.4v-14.5l6.3.4c3.4.2 8-.1 10.2-.6 2.4-.6 3.1-1 1.8-1.1-2.2-.1-2.3-.5-2.3-7 0-5.8.3-7 1.8-7.4 1.3-.4 1.1-.5-.5-.6-2.2-.1-2.3.3-2.3 7.2v7.4l-11.2.6c-6.2.4-13.5.7-16.1.7h-4.8l.2-7.8.2-7.7-24.2-.3-24.2-.3.3 15.8.3 15.8 7.8.3 7.8.3-.3 7.5-.3 7.4-15.7.6-15.8.6v-15.7l-16-.3-16-.2v31.7l-12.2.6c-6.6.4-21 .7-31.9.7h-19.8l-.3-8.1-.3-8.1-15.7.1c-11.9.2-15.7-.1-16.1-1.1-.2-.7-.2-4.3.1-8.1.3-3.7.1-6.7-.4-6.8-.5 0-4.3-.1-8.4-.2l-7.5-.2-.1-15.8c-.1-8.6-.3-15.9-.5-16.1s-7.4-.6-15.9-.8l-15.5-.3-.3 7.7-.3 7.7-7.7.3-7.7.3-.3 8.2-.3 8.3h-14.8l-.3 7.7-.3 7.8-8.2.3-8.3.3V681h16l.2-16.2.3-16.1 7.8-.1h7.7V600h-7.3c-4.1 0-7.7.3-8 .7m-13 42.5c-.2 1.8-.4.4-.4-3.2s.2-5 .4-3.3c.2 1.8.2 4.8 0 6.5m60.7 7.4c.9 2.3.7 27.7-.2 29.1-.4.7-3.8 1.3-8.2 1.5l-7.5.3-.3 7.7-.3 7.8H437v-30.9l7.8-.3 7.7-.3.3-8.3.3-8.2h7.3c5.8 0 7.5.3 8 1.6M372 681.5V697h-16v31h-15v-45.9l7.8-.3 7.7-.3.3-7.8.3-7.7H372zm64 23.4v7.8l-7.5.2-7.5.2V697h15zM420 721v8h-15v-15.8l7.5-.1 7.5-.1zm112 32v7h-31v-14h31zm-124.3 4.2c-.2 1.8-.4.4-.4-3.2s.2-5 .4-3.3c.2 1.8.2 4.8 0 6.5m333.7-122.8c-.3.7-.4 4.2-.2 7.7l.3 6.4.5-7.8c.5-7.7.4-8.9-.6-6.3m13.4 14.3c.7.3 1.6.2 1.9-.1.4-.3-.2-.6-1.3-.5-1.1 0-1.4.3-.6.6m-22 1c1.8.2 4.5.2 6 0s0-.4-3.3-.4-4.5.2-2.7.4m.5 15c1.5.2 3.9.2 5.5 0 1.5-.2.2-.4-2.8-.4s-4.3.2-2.7.4"/><path d="M648.8 712.7c2.3.2 6.1.2 8.5 0 2.3-.2.4-.4-4.3-.4s-6.6.2-4.2.4m60.2 41v7.6l-63.7-.4c-35.1-.3-53.1-.3-40-.2l23.7.3.2 8.3.2 8.2.3-7.8.4-7.7H710v-8c0-4.4-.2-8-.5-8s-.5 3.4-.5 7.7m-245.2 23c.6.2 1.8.2 2.5 0 .6-.3.1-.5-1.3-.5s-1.9.2-1.2.5m257 0c.7.3 1.6.2 1.9-.1.4-.3-.2-.6-1.3-.5-1.1 0-1.4.3-.6.6"/></g><path d="M630.2 298c0 1.4.2 1.9.5 1.2.2-.6.2-1.8 0-2.5-.3-.6-.5-.1-.5 1.3m0 11c0 1.4.2 1.9.5 1.2.2-.6.2-1.8 0-2.5-.3-.6-.5-.1-.5 1.3M581 329c0 .5.5 1 1 1 .6 0 1-.5 1-1 0-.6-.4-1-1-1-.5 0-1 .4-1 1m124.5 32.9c1.6.6 2.1 2.1 2.6 7.2l.6 6.4-.1-7c-.1-6.7-.2-7-2.6-7.2-2.2-.2-2.3-.2-.5.6m2.3 35.5c.2 2.4-.1 5.4-.8 6.5-1.1 2.2-1.5 2.2-23.1 1.9-12-.2-21.9 0-21.9.5 0 .4 10.5.6 23.3.5l23.2-.3.3-6.8c.2-3.7 0-6.7-.5-6.7-.4 0-.7 2-.5 4.4m94.7 12.6c.3.5 1 1 1.6 1 .5 0 .9-.5.9-1 0-.6-.7-1-1.6-1-.8 0-1.2.4-.9 1M549 458.1c0 .5.5.7 1 .4.6-.3 1-.8 1-1.1 0-.2-.4-.4-1-.4-.5 0-1 .5-1 1.1m-48 32c0 .5.5.7 1 .4.6-.3 1-.8 1-1.1 0-.2-.4-.4-1-.4-.5 0-1 .5-1 1.1m-31.9 32.5c0 1.1.3 1.4.6.6.3-.7.2-1.6-.1-1.9-.3-.4-.6.2-.5 1.3M724.2 670c0 1.4.2 1.9.5 1.2.2-.6.2-1.8 0-2.5-.3-.6-.5-.1-.5 1.3m-135.4 57.7c1.2.2 3.2.2 4.5 0 1.2-.2.2-.4-2.3-.4s-3.5.2-2.2.4m45.9 16c1.8.2 5 .2 7 0 2.1-.2.7-.4-3.2-.4-3.8 0-5.5.2-3.8.4m50.1 0c.6.2 1.8.2 2.5 0 .6-.3.1-.5-1.3-.5s-1.9.2-1.2.5m21 0c.6.2 1.8.2 2.5 0 .6-.3.1-.5-1.3-.5s-1.9.2-1.2.5m-114.1 3c1.8.2 5 .2 7 0 2.1-.2.7-.4-3.2-.4-3.8 0-5.5.2-3.8.4m118.3.4c0 .5.5.7 1 .4.6-.3 1-.8 1-1.1 0-.2-.4-.4-1-.4-.5 0-1 .5-1 1.1m12.8-.4c.7.3 1.6.2 1.9-.1.4-.3-.2-.6-1.3-.5-1.1 0-1.4.3-.6.6m-12.5 6.8c0 2.2.2 3 .4 1.7.2-1.2.2-3 0-4-.3-.9-.5.1-.4 2.3m-61.6 9.2c10.5.2 28.1.2 39 0 10.9-.1 2.3-.2-19.2-.2-21.4 0-30.4.1-19.8.2"/><path fill="#000040" d="M630.5 299.9c-.3 2.1-.3 5.5 0 7.5l.7 3.6H661v-15h-29.8zm79.5 3.6v7.5h15.1l-.3-7.3-.3-7.2-7.2-.3-7.3-.3zm-111.7 9.2c-.9.3-1.3 2.8-1.3 7.4v6.9h16v-15l-6.7.1c-3.8 0-7.4.3-8 .6m143.7 6.8v7.5h15.1l-.3-7.3-.3-7.2-7.2-.3-7.3-.3zm-159.7 10c-.9 1-1.3 5.6-1.3 15.5v14h16v-31h-6.7c-4.6.1-7.2.5-8 1.5m175.7 6v7.5h15v-15h-15zm-192.5 26.8c-.3.6-.4 18.3-.3 39.2l.3 38 7.8.3 7.7.3V361h-7.5c-5.1 0-7.7.4-8 1.3m99.7-.5-2.2.3.2 21.7.3 21.7 21.2.3c20.5.2 21.2.2 22.3-1.8.6-1.2 1-4 .8-6.3l-.3-4.2-7.2-.3-7.3-.3V375h15v-6c0-5.6-.2-6.1-2.6-7.1-2.5-.9-34.9-1-40.2-.1M774 384v23h15v-46h-15zm16 32v7h15v-5.6c0-7.1-1.4-8.3-9.2-8.4H790zm16 17v8h-48v14h30.9c27.2 0 31-.2 31.5-1.6.3-.9.6-6.9.6-13.4s-.3-12.5-.6-13.4c-.5-1.2-2.1-1.6-7.5-1.6H806zm-255.9 25.4c-.6.7-1 3.8-1 7l.2 5.6H565v-14h-6.9c-4.5 0-7.2.5-8 1.4M517 480v7h32v-14h-32zm-14.8 10.2c-.7.7-1.2 3.8-1.2 7v5.8h15v-14h-6.3c-3.6 0-6.8.5-7.5 1.2m-17 22 .3 7.3 7.3.3 7.2.3V505h-15.1zm-15.6 11c-.3 1.3-.6 4.7-.6 7.5v5.3h15v-14.7l-6.9-.2c-6.4-.2-6.9 0-7.5 2.1M758 576.5V632h15V521h-15zm-304.3-38.8c-.4.3-.7 3.7-.7 7.5v6.8h15v-15h-6.8c-3.8 0-7.2.3-7.5.7M437 576.5v7.5h15v-15h-15zm-15.3 9.2c-.4.3-.7 3.7-.7 7.5v6.8h15v-7.3c0-6.6-.2-7.3-2-7.4-1.3-.1-1.8.2-1.4 1 .5.8.3.8-.7-.1-1.4-1.3-9.1-1.7-10.2-.5m-16.1 16c-.3.4-.6 7.3-.6 15.5V632h15.1l-.3-15.2-.3-15.3-6.6-.2c-3.7-.1-7 .1-7.3.4M389 641v7h15v-14h-15zm353.2-.3.3 6.8 4.8.3c2.7.2 6 .1 7.3-.2 2.2-.6 2.4-1.1 2.4-7.1V634h-15.1zm-288.7 9.5c-.3.7-.6 4.4-.7 8.3l-.3 7-7.7.3-7.8.3V697h15v-16h7.9c6.7 0 7.9-.3 8.2-1.8.2-.9.3-8.1.1-16l-.4-14.2h-6.9c-4.7 0-7.1.4-7.4 1.2m-79.6 0c0 .2-.3 3.3-.6 7l-.5 6.8H388v-14h-7c-3.8 0-7 .1-7.1.2M726 657v7h15v-14h-15zm-369 17v8h-7.4c-5.8 0-7.5.3-8 1.6-.3.9-.6 11.1-.6 22.8v21.3l7.5.2 7.5.2V697h16v-31h-15zm353-1v7h6.3c3.4 0 6.8-.4 7.4-.8.8-.5 1.2-2.9 1-7l-.2-6.2H710zm-48 15.5v7.4l15.8.3 15.7.3.3 7.8.3 7.8 7.2-.3 7.2-.3.3-15.3.3-15.2H662zm-241 16.6v8l7.5-.2 7.5-.2V697h-15zm208.4 8.6c.3 8.7.8 18.3 1 21.3.3 3 .5 6.1.5 6.7.1.9 2.2 1.3 7.1 1.3h7v-31h16v-14h-32.1zM405 721v8h15.1l-.3-7.8-.3-7.7-7.2-.2-7.3-.2zm176-.3v6.8l8-.3 8-.4V714h-16zm97 8.1v14.7l8.3.3c4.5.1 11.4-.1 15.4-.4l7.2-.6-.2-6.1-.2-6.2-7.7-.3-7.8-.3-.1-4.2c-.1-2.3-.1-5.9 0-8l.3-3.7H678zm-297.7.9-23.3.3v14h32v16h15v-15.5c0-8.5-.1-15.4-.2-15.3-.2.2-10.8.4-23.5.5m152.7 7v7.3h46v-7c0-3.9-.3-7-.7-7-.5 0-10.8-.2-23.1-.3l-22.2-.2zM501 753v7h31v-14h-31zm100-6-19.5.5-.3 6.2-.3 6.3H627v-6.4c0-5.8-.2-6.4-2.2-7-1.3-.3-2.7-.5-3.3-.4-.5.1-9.8.5-20.5.8m110.4.1c-.4.6-.8 4-.9 7.5-.1 3.6-.5 6.8-.9 7.2s-18.5.8-40.2 1l-39.4.3v13.4l47.2-.5 47.3-.5.3-14.1c.3-14 .2-14.2-2-14.8-3.8-1-10.6-.7-11.4.5M405 768.9c0 4.7.4 7 1.3 7.2.6.2 14.8.3 31.5.1l30.2-.3V762h-63z"/><g fill="#404080" stroke-width="0"><path d="M662.3 311.7c.9.2 2.3.2 3 0 .6-.3-.1-.5-1.8-.5-1.6 0-2.2.2-1.2.5m15 0c5.9.2 15.5.2 21.5 0 5.9-.1 1-.3-10.8-.3s-16.7.2-10.7.3m-48.3 7.9c0 7.4.1 7.6 2.3 7 1.2-.3 4.8-.6 8-.6h5.7v-14h-16zm81-.6v7l3.8.2c2 .1 5.1.2 6.8.3 1.8.1 3.8.4 4.6.7 1.1.5 1.3-.6.6-6.1-.4-3.6-.7-7.2-.7-7.9-.1-.8-2.3-1.2-7.6-1.2H710zm-104.8 8.8-8.3.3.1 14.7c.1 8.1.1 15.3 0 15.9 0 .9-2.3 1.3-8 1.3h-8v96.1l8.3-.3 8.2-.3-.2 8.5-.1 8.5 23.9-.3 23.9-.3V488h-15.5l.3 7.5.4 7.5H645v-15h32v-15h-5.6c-3.8 0-6.1.5-7.2 1.6-1.5 1.5-1.6 1.5-2.3-.2-.6-1.8-.7-1.8-1.1.1-.3 1.1-.4-2.3-.4-7.5l.1-9.5-15.1-.3-15.1-.3.3 2.8c.4 2.8.4 2.8-.5.3-.5-1.4-1-6.3-1.2-11l-.2-8.5-.7 6.5-.6 6.5-.5-6.5-.5-6.5-.2 6.7c-.1 3.7.3 7 .8 7.3.6.3 1 1.4 1 2.3 0 1.3-.2 1.3-1.5-.4-.9-1.2-1.4-4.3-1.5-8.7V441h-12v-48.1c0-31.7-.3-47.8-1-47.4-.5.3-1 .1-1-.4 0-.6.5-1.1 1-1.1.6 0 1-.8 1.1-1.8 0-1 .3-1.2.6-.5.8 2.2 3 1.4 2.9-1-.1-1.3.5-2.2 1.4-2.2.8 0 1.6 1 1.8 2.2.3 1.9 1 2.3 4.3 2.3 4.5 0 5.2-1.4 4.7-10.1l-.3-5.4H621c-4.1 0-11.2.1-15.8.3m7.8 3.9c-1.1 1.7-1.1 1.7-.6 0 .3-1 .6-2.4.7-3 0-.9.2-.9.5 0 .3.7 0 2-.6 3m-10-.3c0 .8-.7 1.6-1.5 2-1.3.4-1.4.2-.5-1.4 1.3-2.3 2-2.6 2-.6m13.4.1c-.4.8-.8 1.5-1 1.5s-.4-.7-.4-1.5.4-1.5 1-1.5c.5 0 .7.7.4 1.5m9.6 1.1c0 .8-.4 1.2-1 .9-.5-.3-1-1-1-1.6 0-.5.5-.9 1-.9.6 0 1 .7 1 1.6m-.3 5.6c-.3.7-.5.2-.5-1.2s.2-1.9.5-1.3c.2.7.2 1.9 0 2.5m-25 12c-.3.7-.5.2-.5-1.2s.2-1.9.5-1.3c.2.7.2 1.9 0 2.5m1 6c-.3.8-.6.5-.6-.6-.1-1.1.2-1.7.5-1.3.3.3.4 1.2.1 1.9m-.7 4.6c0 1.5-.2 1.5-1 .2-1.3-2-1.3-3.3 0-2.5.6.3 1 1.4 1 2.3m-.4 94.9c-1 1-1.9-.5-1-1.8.6-1.1.8-1.1 1.2 0 .2.7.1 1.5-.2 1.8m-1.9 4.5c-.3.7-.5.2-.5-1.2s.2-1.9.5-1.3c.2.7.2 1.9 0 2.5m2 0c-.3.8-.6.5-.6-.6-.1-1.1.2-1.7.5-1.3.3.3.4 1.2.1 1.9m24.9.5c-1 1-1.9-.5-1-1.8.6-1.1.8-1.1 1.2 0 .2.7.1 1.5-.2 1.8m3.1.5c-.3.8-.6.5-.6-.6-.1-1.1.2-1.7.5-1.3.3.3.4 1.2.1 1.9m44.3 13.2c0 .2-1.6.6-3.5.8s-3.5 0-3.5-.4 1.6-.8 3.5-.8 3.5.2 3.5.4m57.7-146.7c1.8.2 5 .2 7 0 2.1-.2.7-.4-3.2-.4-3.8 0-5.5.2-3.8.4m19.1 0-7.8.4v14.7l7.8.4 7.7.3v-16.3c0 .1-3.5.4-7.7.5m4.9 9.8c-.3 2.7-.4 2.6-.5-.8-.2-3.7-1.8-5-2.8-2.2-.9 2.4-2.4 1.7-2.4-1 0-1.6.6-2.5 1.5-2.5.8 0 1.5-.6 1.5-1.3 0-.6.7.1 1.6 1.8.8 1.6 1.3 4.3 1.1 6m-2-1.3c-.3.8-.6.5-.6-.6-.1-1.1.2-1.7.5-1.3.3.3.4 1.2.1 1.9m6.6 23.5c-.8.6-1.2 6.1-1.4 18.3-.1 13.2-.5 17.7-1.5 18.8-.8.7-1.5 1.1-1.5.8-.1-.3-.2-.9-.3-1.4-.6-3-4.7-4.1-10.3-2.6-2.2.6-2.3 1-2.1 12.8.1 11.1.2 11.5.8 4.6l.6-7.5.4 8.7c.4 6.8.2 8.4-.7 7.6-1-.8-1.3-.5-1.3.9 0 1.7.8 2 5.5 2.2 3.4.1 5.5-.3 5.5-.9 0-.7-.8-.9-1.9-.5-1.1.3-2.1 0-2.4-.9-.4-.9.3-1.6 1.8-1.8 1.8-.4 2.5 0 2.9 1.9.4 1.2 1.3 2.3 2.1 2.3 1.2 0 1.5-1.7 1.6-8.3.1-4.5.1-8.5 0-9 0-.4.3-.7.9-.7s1 .4 1 1c0 .5 3.3 1 7.3 1.2l7.2.3.3 7.7.3 7.8H789v-14.9l-7.7-.3-7.8-.3-.3-23.8-.2-23.7h-2.8c-1.5 0-4.3-.3-6.2-.5-1.9-.3-4-.2-4.7.2m30.1 24.8c0 12.6.2 17.7.3 11.2.2-6.5.2-16.8 0-23-.1-6.2-.3-.9-.3 11.8m2.3 41c-1 .7-1.6 3.2-1.9 7.5l-.3 6.5 7.7-.3 7.6-.3.4-5.7c.2-3.1.1-6.3-.2-7.1-.9-1.7-11.1-2.2-13.3-.6m2 8.7c-.2 1.8-.4.4-.4-3.2s.2-5 .4-3.3c.2 1.8.2 4.8 0 6.5m8.3-3.1c0 1-.4 1.9-1 1.9-.5 0-1-1.2-1-2.6s.4-2.3 1-1.9c.6.3 1 1.5 1 2.6m-60.5 10.2c-.3.6-.4 18.5-.2 39.7l.2 38.5.3-39.2.2-39.2 7.8-.4 7.7-.3-7.8-.2c-5.4-.1-7.9.2-8.2 1.1m-177.4 30.6c-.8.5.5.7 3.5.4 2.7-.3 5.1-.7 5.3-.9.9-.8-7.5-.3-8.8.5m-12.8.8c2 .2 5.4.2 7.5 0 2-.2.3-.4-3.8-.4s-5.8.2-3.7.4m-41 16c4.2.2 11.2.2 15.5 0 4.2-.1.7-.3-7.8-.3s-12 .2-7.7.3m166.7 4c0 2.1.3 8.9.7 15l.6 11.3H709v-14h-16v-15.7l-8-.2-8-.2zm12.7 8c-.2 2.1-.4.4-.4-3.7s.2-5.8.4-3.8c.2 2.1.2 5.5 0 7.5m-184.9 4c2.3.2 5.9.2 8 0 2-.2.1-.4-4.3-.4s-6.1.2-3.7.4m-16.5 16c2 .2 5.4.2 7.5 0 2-.2.3-.4-3.8-.4s-5.8.2-3.7.4m253.9 3.7c.1 2.5.5 4.3 1 4 .4-.3.8.4.8 1.6s-.4 1.9-1 1.5c-.5-.3-.9 6.5-.9 18V568h4.9c3.3 0 5-.4 5-1.3 0-.8.4-.7 1 .3s1-6.2 1.2-21l.3-22.5.3 22.2c.3 30.5 2 29.4 2.4-1.5l.3-23.8-7.7-.3-7.6-.2zm10.5 7.8c-.3.8-.6.5-.6-.6-.1-1.1.2-1.7.5-1.3.3.3.4 1.2.1 1.9m-9 20c-.3.8-.6.5-.6-.6-.1-1.1.2-1.7.5-1.3.3.3.4 1.2.1 1.9M710 528v7h5.9c3.3 0 6.6.3 7.5.6 1.3.5 1.6-.3 1.6-4.7 0-9.7-.2-9.9-8.1-9.9H710zm-231.7 8.7c.9.2 2.5.2 3.5 0 .9-.3.1-.5-1.8-.5s-2.7.2-1.7.5m-25.9 24.8c0 4.9.1 7.1.3 4.8s.2-6.4 0-9-.3-.8-.3 4.2"/><path d="M757 600.5V632h-7.4c-4.1 0-7.7.3-7.9.7-.3.5 3.3.7 7.9.5l8.4-.3v-32c0-17.5-.2-31.9-.5-31.9s-.5 14.2-.5 31.5m-320.3-15.8c-.4.3-.7 14.9-.7 32.3v31.6h-7.7l-7.8.1-.3 16.1-.2 16.2h-16v16.1l8.3-.3 8.2-.3.3-7.8.3-7.7h14.8l.3-8.3.3-8.2 7.7-.3 7.7-.3.3-7.7.3-7.7 15.5.3c10.2.3 15.8.8 16.3 1.5.6.8.7.5.3-.6-.3-1-.6-12.3-.6-25.1v-23.3l-3 .5c-1.6.2-2.8.9-2.7 1.6.1.6-.4 1.1-1 1-4-.3-4.4-.5-3.7-1.6.5-.8.2-.9-.9-.5-1 .3-1.7.2-1.7-.4s-.5-.7-1.1-.4c-.6.4-1 3.6-.9 7.3s.1 7.3.1 7.9c-.1.9-2.4 1.3-8.1 1.3h-8v16h-16.1l.3-25c.2-13.8.3-25 .2-25 0 0-.4.3-.7.7m36.6 25.8c.4 3.4.3 4.2-.3 2.5-.8-2.5-1.3-8.7-.6-7.9.2.2.6 2.6.9 5.4m-1.6 3.7c-.3.8-.6.5-.6-.6-.1-1.1.2-1.7.5-1.3.3.3.4 1.2.1 1.9M425.6 654c.8 0 1.4.7 1.4 1.5s-.7 1.5-1.5 1.5-1.5-.4-1.5-.9-.2-1.5-.3-2.3c-.2-.7-.2-1 0-.6.3.5 1.1.8 1.9.8m8.4-1.6c0 .3-.4.8-1 1.1-.5.3-1 .1-1-.4 0-.6.5-1.1 1-1.1.6 0 1 .2 1 .4m12.7 7.3c-.3 1-.5.4-.5-1.2 0-1.7.2-2.4.5-1.8.2.7.2 2.1 0 3m-13 4.5c-.3.7-.5.2-.5-1.2s.2-1.9.5-1.3c.2.7.2 1.9 0 2.5m-2 7c-.3.7-.5.2-.5-1.2s.2-1.9.5-1.3c.2.7.2 1.9 0 2.5m2 3c-.2 1.3-.4.3-.4-2.2s.2-3.5.4-2.3c.2 1.3.2 3.3 0 4.5m-24 18c-.3.8-.6.5-.6-.6-.1-1.1.2-1.7.5-1.3.3.3.4 1.2.1 1.9m217-74.6c-.4.4-3.5.6-6.9.5l-6.3-.2.3 15.1.3 15h6.5c4.4 0 6.4-.4 6.4-1.3s.3-.8.9.2c.7 1.1.9 1.1 1.4 0 .3-.8.6 2.8.6 7.8l.1 9.3h15v-15h16v-15h-16v-16.2l-7.5.4c-4.4.2-7.7-.1-7.9-.7-.3-.6-.5-.3-.5.5-.1 1.1-.3 1.2-.9.2-.5-.7-1.1-.9-1.5-.6M407.3 640c0 3.6.2 5 .4 3.2.2-1.7.2-4.7 0-6.5-.2-1.7-.4-.3-.4 3.3m323 8.7c2.6.2 6.7.2 9 0s.2-.3-4.8-.3c-4.9 0-6.8.1-4.2.3m17 0c1.5.2 3.7.2 5 0 1.2-.2 0-.4-2.8-.4-2.7 0-3.8.2-2.2.4M549 656.8v6.9l5.1.2c3.9.1 5.5-.3 6.5-1.6 1.3-1.7 1.4-1.7.8-.1-.7 2 1.2 2.5 1.9.5.4-.9.6-.9.6.1.1.7.4 1.1.9.9.4-.3.6 3.3.4 7.9l-.3 8.4H581v16h16v-5.3c0-6.9-1-12.8-2.1-12.1-.5.3-.9-.2-.9-1 0-2.9 1.8-2.6 2.5.4l.7 3H613v-15h-32v-16h-7.9c-7.5 0-8 .1-8.4 2.2l-.4 2.3-.2-2.3c-.1-1.6-.7-2.2-2.3-2.2-2.1.1-2.1.2-.5 1.1.9.5 1.7 1.7 1.7 2.4 0 .8-.8 1.5-1.7 1.5-1.4 0-1.5-.2-.4-.9 1-.7 1-1 .1-1.6-.7-.4-1.6-.2-2.1.6-.6 1.1-1.1 1.1-2.1.1-.9-.9-.9-1.2.5-1.2.9 0 1.7-.5 1.7-1 0-1.5-5.7-1.2-6.3.2q-.6 1.5-.6 0c-.1-.6-.8-1.2-1.6-1.2-1.2 0-1.5 1.4-1.5 6.8m17.7-2.6c-.3.7-.5.2-.5-1.2s.2-1.9.5-1.3c.2.7.2 1.9 0 2.5M576 668c0 .5-.4 1-1 1-.5 0-1-.5-1-1 0-.6.5-1 1-1 .6 0 1 .4 1 1m-8.9 8.3c-.8.8-1.1.5-1.1-.9 0-2.7 1.4-4.1 1.8-1.9.2.9-.1 2.2-.7 2.8m34.9.1c0 .3-.4.8-1 1.1-.5.3-1 .1-1-.4 0-.6.5-1.1 1-1.1.6 0 1 .2 1 .4m92.3-25.7c-.9.3-1.3 2.8-1.3 7.4v6.9h4.8c2.6 0 9.8-.3 16-.7l11.2-.6V650l-14.7.1c-8.2 0-15.4.3-16 .6m-322 7.3c0 3.6.2 5 .4 3.2.2-1.7.2-4.7 0-6.5-.2-1.7-.4-.3-.4 3.3m111.9 9.2c-.1 7.5.1 13.9.6 14.1.4.3.6-3.8.4-9.1-.4-17.2-.8-19-1-5m161.3 21.3v8l7.5-.2 7.5-.1.3-7.5.3-7.5-7.8-.4-7.8-.3zm-154.7-6.8c1.2.2 3 .2 4 0 .9-.3-.1-.5-2.3-.4-2.2 0-3 .2-1.7.4m126 0c1.8.2 4.5.2 6 0s0-.4-3.3-.4-4.5.2-2.7.4M500.2 694c0 1.4.2 1.9.5 1.2.2-.6.2-1.8 0-2.5-.3-.6-.5-.1-.5 1.3m8.1 3.7c4.2.2 11.2.2 15.5 0 4.2-.1.7-.3-7.8-.3s-12 .2-7.7.3m104.6 15.1-15.5.2-.2 6.9c-.2 4.8.1 7 1 7.3 2.3.9 21.2.8 25-.1 2.6-.6 3.8-.5 4.1.3 1 2.8 1.8-.8 1.5-7.5l-.3-7.4zm13.5 5.4c.3 1.7.4 3.3.1 3.6s-.5-.2-.5-1.1c0-1-.8-1.7-1.7-1.8-1 0-1.3-.3-.6-.5.7-.3.9-1.2.6-2s-.1-1.4.5-1.4c.5 0 1.2 1.4 1.6 3.2m-7.9 7.8c-.5.8-1.1.8-1.7.2s-.7-1.6-.3-2.2c.5-.8 1.1-.8 1.7-.2s.7 1.6.3 2.2m-73.7-12.3c6.7.2 17.7.2 24.5 0 6.7-.1 1.2-.3-12.3-.3s-19 .2-12.2.3m152.5 16c2 .2 5.4.2 7.5 0 2-.2.3-.4-3.8-.4s-5.8.2-3.7.4m21.5 16c1.2.2 3.2.2 4.5 0 1.2-.2.2-.4-2.3-.4s-3.5.2-2.2.4M407.3 754c0 3.6.2 5 .4 3.2.2-1.7.2-4.7 0-6.5-.2-1.7-.4-.3-.4 3.3m63 6.7c.9.2 2.5.2 3.5 0 .9-.3.1-.5-1.8-.5s-2.7.2-1.7.5m-2 7.8c0 3.8.2 5.3.4 3.2.2-2 .2-5.2 0-7-.2-1.7-.4-.1-.4 3.8"/></g><g fill="#408080" stroke-width="0"><path d="M634.7 326.7c1.8.2 5 .2 7 0 2.1-.2.7-.4-3.2-.4-3.8 0-5.5.2-3.8.4m77.1 0c1.2.2 3 .2 4 0 .9-.3-.1-.5-2.3-.4-2.2 0-3 .2-1.7.4m-99.2 3.8c-.9 2.6-.7 3.2.5 1.2.6-1 .9-2.1.6-2.3-.2-.3-.7.2-1.1 1.1m139.4-.8c0 .7-.7 1.3-1.5 1.3-.9 0-1.5.9-1.5 2.5 0 2.7 1.5 3.4 2.4 1 1-2.8 2.6-1.5 2.8 2.2.1 3.4.2 3.5.5.8.2-1.7-.3-4.4-1.1-6-.9-1.7-1.6-2.4-1.6-1.8M601 332c-.9 1.6-.8 1.8.5 1.4.8-.4 1.5-1.2 1.5-2 0-2-.7-1.7-2 .6m14-.5c0 .8.2 1.5.4 1.5s.6-.7 1-1.5c.3-.8.1-1.5-.4-1.5-.6 0-1 .7-1 1.5m9 .4c0 .6.5 1.3 1 1.6.6.3 1-.1 1-.9 0-.9-.4-1.6-1-1.6-.5 0-1 .4-1 .9"/><path d="M752.1 335.6c0 1.1.3 1.4.6.6.3-.7.2-1.6-.1-1.9-.3-.4-.6.2-.5 1.3M625.2 337c0 1.4.2 1.9.5 1.2.2-.6.2-1.8 0-2.5-.3-.6-.5-.1-.5 1.3m-8.8 2.4c-.7 1.9.3 3.6 2.2 3.6 1 0 1.4-.8 1.2-2.2-.4-2.6-2.6-3.6-3.4-1.4m-5.4 5.7c0 .5.5.7 1 .4.6-.3 1-.8 1-1.1 0-.2-.4-.4-1-.4-.5 0-1 .5-1 1.1m146.3 6.4c0 4.4.2 6.1.4 3.7.2-2.3.2-5.9 0-8-.2-2-.4-.1-.4 4.3M600.2 349c0 1.4.2 1.9.5 1.2.2-.6.2-1.8 0-2.5-.3-.6-.5-.1-.5 1.3m.9 6.6c0 1.1.3 1.4.6.6.3-.7.2-1.6-.1-1.9-.3-.4-.6.2-.5 1.3m-2.1 3.1c0 .4.5 1.5 1 2.3.8 1.3 1 1.3 1-.2 0-.9-.4-2-1-2.3-.5-.3-1-.3-1 .2m143 34.2c0 .5 2.3.7 5.3.4 5.7-.6 7.7.5 7.7 4.3 0 .3.7-.1 1.5-1 .8-.8 1.2-2.2.9-3.1-.6-1.3-.8-1.4-1.5-.3-.7 1-.9 1-.9 0 0-.8-2-1.2-6.5-1.2-3.6 0-6.5.4-6.5.9m.9 18.4c-.2 4.6 0 8.2.6 8.7.7.5.9-1.3.7-5.3-.5-10.6-.8-11.5-1.3-3.4m14.6-5.3c.3.5.8 1 1.1 1 .2 0 .4-.5.4-1 0-.6-.5-1-1.1-1-.5 0-.7.4-.4 1m-7.2 12.8c-1.5.2-2 .8-1.6 1.8.3.9 1.3 1.2 2.4.9 1.2-.4 1.9-.2 1.9.6 0 .7.2 1 .5.7 1.3-1.3-1.1-4.3-3.2-4m26.4 4.9c1.8.2 5 .2 7 0 2.1-.2.7-.4-3.2-.4-3.8 0-5.5.2-3.8.4m16.6 7.3c0 3.6.2 5 .4 3.2.2-1.7.2-4.7 0-6.5-.2-1.7-.4-.3-.4 3.3m6.7-.6c0 1.4.5 2.6 1 2.6.6 0 1-.9 1-1.9 0-1.1-.4-2.3-1-2.6-.6-.4-1 .5-1 1.9m-181.2 10.3 6.2.4v6.7c.1 4.3.6 7.4 1.5 8.6 1.3 1.7 1.5 1.7 1.5.4 0-.9-.4-2-1-2.3-.5-.3-.9-3.6-.8-7.3l.1-6.7.7 6.5.6 6.5.4-6.6.5-6.7-8 .1c-7.2.1-7.4.1-1.7.4m-19.2 13.2c-.4.7-.5 1.5-.2 1.8.9.9 1.9-.4 1.4-1.8-.4-1.1-.6-1.1-1.2 0m30.1 2.8c-.2.5 0 1.9.4 3.3.8 2.4.9 2.4.5-.3l-.3-2.8 15.2.3c8.4.2 15.1 0 14.8-.5-.2-.4-7.1-.7-15.3-.7s-15.1.3-15.3.7m-31.5 2.3c0 1.4.2 1.9.5 1.2.2-.6.2-1.8 0-2.5-.3-.6-.5-.1-.5 1.3m1.9.6c0 1.1.3 1.4.6.6.3-.7.2-1.6-.1-1.9-.3-.4-.6.2-.5 1.3m24.5-.7c-.4.7-.5 1.5-.2 1.8.9.9 1.9-.4 1.4-1.8-.4-1.1-.6-1.1-1.2 0m3.5 1.7c0 1.1.3 1.4.6.6.3-.7.2-1.6-.1-1.9-.3-.4-.6.2-.5 1.3m32 13.2c0 2.4.1 2.5.9.7.7-1.7.9-1.7.9-.3.1 1.1.6 1.5 1.6 1.2 2.2-.9 1.8-1.9-1-3.2-2.3-1.1-2.5-1-2.4 1.6m5.9 1c0 .4 1.6.6 3.5.4s3.5-.6 3.5-.8-1.6-.4-3.5-.4-3.5.4-3.5.8M629.3 496c0 4.1.2 5.8.4 3.7.2-2 .2-5.4 0-7.5-.2-2-.4-.3-.4 3.8m60 1c0 4.1.2 5.8.4 3.7.2-2 .2-5.4 0-7.5-.2-2-.4-.3-.4 3.8m-55 6.7c2 .2 5.4.2 7.5 0 2-.2.3-.4-3.8-.4s-5.8.2-3.7.4m47 16c1.5.2 3.9.2 5.5 0 1.5-.2.2-.4-2.8-.4s-4.3.2-2.7.4m15 0c2.6.2 6.7.2 9 0s.2-.3-4.8-.3c-4.9 0-6.8.1-4.2.3m27.8 2.9c0 1.1.3 1.4.6.6.3-.7.2-1.6-.1-1.9-.3-.4-.6.2-.5 1.3m30.3 23.4c0 12.4.2 17.4.3 11.2.2-6.1.2-16.3 0-22.5-.1-6.1-.3-1.1-.3 11.3m-12-16.9c-.3.6-.1 1.6.5 2.2.8.8 1.1.5 1.1-1.1 0-2.4-.5-2.8-1.6-1.1m9.7 2.5c0 1.1.3 1.4.6.6.3-.7.2-1.6-.1-1.9-.3-.4-.6.2-.5 1.3m-39.4 4.1c1.8.2 5 .2 7 0 2.1-.2.7-.4-3.2-.4-3.8 0-5.5.2-3.8.4m30.4 15.9c0 1.1.3 1.4.6.6.3-.7.2-1.6-.1-1.9-.3-.4-.6.2-.5 1.3M471 602c0 .5.7.6 1.7.3 1.1-.4 1.4-.3.9.5-.4.7-.1 1.3.8 1.3.9.1 2.1.2 2.6.3.6.1 1-.4.9-.9 0-.6 1-1.3 2.3-1.7 1.4-.4.2-.6-3.4-.7-3.2-.1-5.8.3-5.8.9m1.1 5.6c.1 1.6.5 4 .9 5.4.6 1.7.7.9.3-2.5-.6-5.6-1.4-7.4-1.2-2.9m-1 6c0 1.1.3 1.4.6.6.3-.7.2-1.6-.1-1.9-.3-.4-.6.2-.5 1.3m-14.3 4.1c2.3.2 6.1.2 8.5 0 2.3-.2.4-.4-4.3-.4s-6.6.2-4.2.4m156.3-.3c.7.8 12.9 1 13.6.3.3-.4-2.7-.7-6.7-.7s-7.1.2-6.9.4m17.6.3c-.3.5 1.8.7 4.6.5 9.2-.5 10.4-.9 3-1.1-3.9 0-7.4.2-7.6.6m-17.3 15.8c0 8.2.2 11.5.3 7.2.2-4.3.2-11 0-15-.1-4-.3-.5-.3 7.8m-172.6.2c2.3.2 6.1.2 8.5 0 2.3-.2.4-.4-4.3-.4s-6.6.2-4.2.4m188.3 13.9c0 1.1.3 1.4.6.6.3-.7.2-1.6-.1-1.9-.3-.4-.6.2-.5 1.3m-77.9 2.8c.7.8 1.5 1 1.6.5.5-1.2 6.2-1.1 6.2.1 0 .5-.8 1-1.7 1-1.4 0-1.4.3-.5 1.2 1 1 1.5 1 2.1-.1.5-.8 1.4-1 2.1-.6.9.6.9.9-.1 1.6-1.1.7-1 .9.4.9 2.1 0 2.3-2.8.1-3.7-1.3-.5-1.3-.7-.2-1.4.8-.5-1.2-.9-5-.9-5.3 0-6.1.2-5 1.4m12.6 1.1c.2 1.4.6 2.5.8 2.5s.4-1.1.4-2.5-.4-2.5-.9-2.5c-.4 0-.6 1.1-.3 2.5m2.4 1.5c0 1.4.2 1.9.5 1.2.2-.6.2-1.8 0-2.5-.3-.6-.5-.1-.5 1.3m-142.5.8c.1.8.3 1.8.3 2.3s.7.9 1.5.9 1.5-.7 1.5-1.5-.6-1.5-1.4-1.5-1.6-.3-1.9-.8c-.2-.4-.2-.1 0 .6m8.3-.7c0 .5.5.7 1 .4.6-.3 1-.8 1-1.1 0-.2-.4-.4-1-.4-.5 0-1 .5-1 1.1m14.2 5.4c0 1.6.2 2.2.5 1.2.2-.9.2-2.3 0-3-.3-.6-.5.1-.5 1.8m-13 4.5c0 1.4.2 1.9.5 1.2.2-.6.2-1.8 0-2.5-.3-.6-.5-.1-.5 1.3m127.3-.9c-.4.6-.5 1.2-.2 1.5.2.3.7-.2 1-1.1.7-1.7.1-2-.8-.4M574 668c0 .5.5 1 1 1 .6 0 1-.5 1-1 0-.6-.4-1-1-1-.5 0-1 .4-1 1m-142.8 2c0 1.4.2 1.9.5 1.2.2-.6.2-1.8 0-2.5-.3-.6-.5-.1-.5 1.3m2.1 2c0 2.5.2 3.5.4 2.2.2-1.2.2-3.2 0-4.5-.2-1.2-.4-.2-.4 2.3m133.5.6c-.5.4-.8 1.6-.8 2.8 0 1.4.3 1.7 1.1.9.6-.6.9-1.9.7-2.8-.1-.9-.6-1.3-1-.9m27.9 3c-1.1 1.1-.8 3.6.3 2.9.6-.4 1.1.6 1.1 2.2.1 2 .3 2.2.6.8.5-2.5-1-6.9-2-5.9m5.3 1.5c0 .5.5.7 1 .4.6-.3 1-.8 1-1.1 0-.2-.4-.4-1-.4-.5 0-1 .5-1 1.1m45.3 11.9c0 4.1.2 5.8.4 3.7.2-2 .2-5.4 0-7.5-.2-2-.4-.3-.4 3.8m-236.2 2.6c0 1.1.3 1.4.6.6.3-.7.2-1.6-.1-1.9-.3-.4-.6.2-.5 1.3m175.6 5.1c1.8.2 5 .2 7 0 2.1-.2.7-.4-3.2-.4-3.8 0-5.5.2-3.8.4m39.6 19.7c.3.8.1 1.7-.6 2-.7.2-.4.5.6.5.9.1 1.7.8 1.7 1.8 0 .9.2 1.4.5 1.1.8-.8-.7-6.8-1.7-6.8-.6 0-.8.6-.5 1.4m-7.8 7.6c-.4.6-.3 1.6.3 2.2s1.2.6 1.7-.2c.4-.6.3-1.6-.3-2.2s-1.2-.6-1.7.2"/></g><path fill="#BF80BF" d="M360.8 664.7c.7.3 1.6.2 1.9-.1.4-.3-.2-.6-1.3-.5-1.1 0-1.4.3-.6.6m338 49c.6.2 1.8.2 2.5 0 .6-.3.1-.5-1.3-.5s-1.9.2-1.2.5"/><path fill="#BF8080" d="M685.3 343.7c4.2.2 11.2.2 15.5 0 4.2-.1.7-.3-7.8-.3s-12 .2-7.7.3m-22.3 1.7c-.6.9-1 2.1-.7 2.8.4.9.6.7.6-.4.1-.9.7-1.8 1.4-2.1.6-.2.9-.7.6-1.1s-1.2 0-1.9.8m5.3-.7c1.5.2 3.7.2 5 0 1.2-.2 0-.4-2.8-.4-2.7 0-3.8.2-2.2.4m41.1 10.5.1 4.3 7.7.3 7.8.3.3 23.7.3 23.7-.1-24v-24l-7.7-.3-7.7-.3-.4-3.9-.4-4zm-42.1 3.5c.9.2 2.5.2 3.5 0 .9-.3.1-.5-1.8-.5s-2.7.2-1.7.5m-14.8 2.2 7 .6v22.7c0 12.4.3 22.4.8 22.1.4-.2.7-10.5.7-22.8 0-25.4.7-23.6-9.3-23.3l-6.2.2zm-5.2 45.8c.9.2 2.3.2 3 0 .6-.3-.1-.5-1.8-.5-1.6 0-2.2.2-1.2.5m14.7 3.4c0 .5.5.7 1 .4.6-.3 1-.8 1-1.1 0-.2-.4-.4-1-.4-.5 0-1 .5-1 1.1m44.7 0c.6.8 1.3 2.7 1.6 4.4.4 2.3.4 2 .3-.9-.1-2.5-.6-4.1-1.6-4.4-1.2-.4-1.3-.2-.3.9m-44.5 9.9c0 1.4.2 1.9.5 1.2.2-.6.2-1.8 0-2.5-.3-.6-.5-.1-.5 1.3m-80.9 318c0 2.5.2 3.5.4 2.2.2-1.2.2-3.2 0-4.5-.2-1.2-.4-.2-.4 2.3m98 8.7c.9.2 2.5.2 3.5 0 .9-.3.1-.5-1.8-.5s-2.7.2-1.7.5m22.7-.3c0 .2 1.5.6 3.4.8s3.2 0 3-.4c-.5-.8-6.4-1.2-6.4-.4"/><path fill="#BF8040" d="M669.8 345c-3.1.3-5.8.7-6.1 1-.7.8-1.4 12-.8 12.1.3 0 3.6.2 7.4.4l6.7.3V352c0-3.8-.3-7-.7-7.2-.5-.2-3.4-.1-6.5.2M646 383.3v22.4l3.8.7c7 1.1 9.1.8 9.7-1.7.3-1.2.4-11.4.3-22.7l-.3-20.5-6.7-.3-6.8-.3zm17.7 26.4c-.6 1-1 6.8-.8 10.6l.1 2.8 22-.2c19.9-.1 22.1-.3 23-1.9 1-1.9.2-8.8-1.3-10.8-.7-.9-6.3-1.2-21.8-1.2-11.4 0-21 .3-21.2.7m-81.4 321.8c-.5.8-.6 3.8-.3 6.7l.5 5.3 23.1.3 23.2.2-.3-6.1c-.2-3.8-.8-6.5-1.6-7s-10.9-.9-22.6-.9c-17.7 0-21.3.2-22 1.5m48.9 15.7c-.7.7-1.2 3.1-1.2 5.4 0 8-3.3 7.4 39.6 7.4H708l.6-2.3c.3-1.3.4-4.1.2-6.3-.3-3.7-.5-3.9-4.2-4.5-2.2-.4-19.3-.7-38.1-.8-25.5-.1-34.4.2-35.3 1.1"/><path fill="#BFBF80" d="m677.2 351.5-.1 7.5H709v-15h-31.7zm7.1 1.2c-.7.2-1.9.2-2.5 0-.7-.3-.2-.5 1.2-.5s1.9.2 1.3.5m25.4 19.3c-.4 6.6-.4 17.4 0 24l.6 12H725v-48h-14.7z"/><path fill="#BFBF40" d="M681.8 352.7c.6.2 1.8.2 2.5 0 .6-.3.1-.5-1.3-.5s-1.9.2-1.2.5"/><path fill="#808040" d="m692.8 359.7 16.4.4-.4 7.9c-.2 4.3.1 7.5.5 7.1s.7-4.1.5-8.2l-.3-7.4H693l-16.5-.1zm16.4 40-.2 8.3-24.2.2c-18.6.2-24.2.6-24.4 1.6-.1.7 0 .8.3.2s9.1-1 24.4-1c19.1 0 24.1-.3 24.5-1.3.3-.8.3-4.7.1-8.8l-.3-7.4zM597 729.2c0 .4 6.8.8 15 1 8.3.2 15 0 15-.4s-6.8-.8-15-1c-8.3-.2-15 0-15 .4m-3.2 15.5c6.8.2 17.6.2 24 0 6.4-.1.9-.3-12.3-.3s-18.5.2-11.7.3m55.9 16c10.5.2 28.1.2 39 0 10.9-.1 2.3-.2-19.2-.2-21.4 0-30.4.1-19.8.2"/><path fill="#804040" d="M664.8 359.7c2.3.2 6.1.2 8.5 0 2.3-.2.4-.4-4.3-.4s-6.6.2-4.2.4M610 728l-12.5.6 15.5.1c9.4.1 14.7-.2 13.5-.7-1.1-.5-2.4-.8-3-.7-.5 0-6.6.4-13.5.7m-25.2 1.7c2.3.2 6.1.2 8.5 0 2.3-.2.4-.4-4.3-.4s-6.6.2-4.2.4m48 16c2.3.2 6.1.2 8.5 0 2.3-.2.4-.4-4.3-.4s-6.6.2-4.2.4m54 0c4.5.2 11.9.2 16.5 0 4.5-.1.8-.3-8.3-.3s-12.8.2-8.2.3"/><path fill="#400040" d="M504.8 503.7c2.3.2 5.9.2 8 0 2-.2.1-.4-4.3-.4s-6.1.2-3.7.4m240.9 130c1.8.2 5 .2 7 0 2.1-.2.7-.4-3.2-.4-3.8 0-5.5.2-3.8.4M468.4 663c0 6.9.1 9.7.3 6.2.2-3.4.2-9 0-12.5-.2-3.4-.3-.6-.3 6.3m-91.6 1.7c2.3.2 5.9.2 8 0 2-.2.1-.4-4.3-.4s-6.1.2-3.7.4m-8.5 65c6.4.2 17 .2 23.5 0 6.4-.1 1.1-.3-11.8-.3s-18.2.2-11.7.3m178.5 0c5 .2 13.4.2 18.5 0 5-.1.9-.3-9.3-.3s-14.3.2-9.2.3m31 0c.6.2 1.8.2 2.5 0 .6-.3.1-.5-1.3-.5s-1.9.2-1.2.5m49.5 26.8c0 2.2.2 3 .4 1.7.2-1.2.2-3 0-4-.3-.9-.5.1-.4 2.3m-205 20.2c7.5.2 19.9.2 27.5 0 7.5-.1 1.3-.3-13.8-.3s-21.3.2-13.7.3m231 0c12.6.2 32.8.2 45 0 12.2-.1 2-.2-22.8-.2-24.7 0-34.7.1-22.2.2"/><path fill="#400000" d="m662.2 382.7.2 22.8.6-22 .5-21.9 2.5-.7c2.3-.6 2.2-.7-.7-.8l-3.3-.1zm10.1-22c1.5.2 3.7.2 5 0 1.2-.2 0-.4-2.8-.4-2.7 0-3.8.2-2.2.4m12.2 0c12.2.7 24.5.7 24.5 0 0-.4-6.6-.6-14.7-.5-8.2.1-12.5.3-9.8.5M583 728.1c0 .5 3.2.9 7.2.9 3.9 0 6.9-.3 6.6-.6-1-.9-13.8-1.2-13.8-.3m-4 8.3c0 3.6.5 6.8 1 7.1.6.4 1-2 1-6.4 0-4.1-.4-7.1-1-7.1s-1 2.8-1 6.4m50.2.8.3 7.3 7.5.1c6.1.1 6.4 0 1.5-.3-7.5-.5-8.5-1.7-7.8-8.9.4-3.8.2-5.4-.6-5.4s-1.1 2.2-.9 7.2M695 744l-7.5.6 8.8.2c5.2.1 8.7-.2 8.7-.8s-.6-.9-1.2-.8c-.7.1-4.7.4-8.8.8m-14.7.7c.9.2 2.3.2 3 0 .6-.3-.1-.5-1.8-.5-1.6 0-2.2.2-1.2.5m-97.5 2c1.2.2 3.2.2 4.5 0 1.2-.2.2-.4-2.3-.4s-3.5.2-2.2.4m23.5 0c2.6.2 6.7.2 9 0s.2-.3-4.8-.3c-4.9 0-6.8.1-4.2.3m18.8 0c1.2.3 2 2.3 2.7 7.1l.9 6.7.2-7.3.1-7.2-2.7.1c-1.6.1-2.1.3-1.2.6"/><path fill="#404000" d="M661.4 384c0 12.9.2 18.2.3 11.7.2-6.4.2-17 0-23.5-.1-6.4-.3-1.1-.3 11.8m23.4 360.7c.6.2 1.8.2 2.5 0 .6-.3.1-.5-1.3-.5s-1.9.2-1.2.5m21 0c.7.3 1.6.2 1.9-.1.4-.3-.2-.6-1.3-.5-1.1 0-1.4.3-.6.6"/><path fill="#8080BF" d="M693.3 384c0 4.1.2 5.8.4 3.7.2-2 .2-5.4 0-7.5-.2-2-.4-.3-.4 3.8m97.5 23.7c.7.3 1.6.2 1.9-.1.4-.3-.2-.6-1.3-.5-1.1 0-1.4.3-.6.6m5.5 0c1.5.2 3.7.2 5 0 1.2-.2 0-.4-2.8-.4-2.7 0-3.8.2-2.2.4m-34.5 1c2.3.2 5.9.2 8 0 2-.2.1-.4-4.3-.4s-6.1.2-3.7.4m-12 16c1.2.2 3.2.2 4.5 0 1.2-.2.2-.4-2.3-.4s-3.5.2-2.2.4m-165.5 64c.9.2 2.5.2 3.5 0 .9-.3.1-.5-1.8-.5s-2.7.2-1.7.5m90.5 32c.7.3 1.6.2 1.9-.1.4-.3-.2-.6-1.3-.5-1.1 0-1.4.3-.6.6M468.3 527c0 2.5.2 3.5.4 2.2.2-1.2.2-3.2 0-4.5-.2-1.2-.4-.2-.4 2.3m-.2 6.6c0 1.1.3 1.4.6.6.3-.7.2-1.6-.1-1.9-.3-.4-.6.2-.5 1.3m20.7 3.1c.6.2 1.8.2 2.5 0 .6-.3.1-.5-1.3-.5s-1.9.2-1.2.5M436.2 558c0 1.9.2 2.7.5 1.7.2-.9.2-2.5 0-3.5-.3-.9-.5-.1-.5 1.8m16 29c0 1.4.2 1.9.5 1.2.2-.6.2-1.8 0-2.5-.3-.6-.5-.1-.5 1.3m32 7c0 1.9.2 2.7.5 1.7.2-.9.2-2.5 0-3.5-.3-.9-.5-.1-.5 1.8m-32 3.5c0 1.6.2 2.2.5 1.2.2-.9.2-2.3 0-3-.3-.6-.5.1-.5 1.8m-14.4 3.2c.7.3 1.6.2 1.9-.1.4-.3-.2-.6-1.3-.5-1.1 0-1.4.3-.6.6m97 16c.6.2 1.8.2 2.5 0 .6-.3.1-.5-1.3-.5s-1.9.2-1.2.5m110.5 7.8c0 4.4.2 6.1.4 3.7.2-2.3.2-5.9 0-8-.2-2-.4-.1-.4 4.3m32 15.5c0 3.6.2 5 .4 3.2.2-1.7.2-4.7 0-6.5-.2-1.7-.4-.3-.4 3.3m-58 9.7c1.5.2 3.7.2 5 0 1.2-.2 0-.4-2.8-.4-2.7 0-3.8.2-2.2.4m-255.5 15c.7.3 1.6.2 1.9-.1.4-.3-.2-.6-1.3-.5-1.1 0-1.4.3-.6.6m4.5 0c.9.2 2.3.2 3 0 .6-.3-.1-.5-1.8-.5-1.6 0-2.2.2-1.2.5m136.5 0c2.3.2 5.9.2 8 0 2-.2.1-.4-4.3-.4s-6.1.2-3.7.4m109 0c.6.2 1.8.2 2.5 0 .6-.3.1-.5-1.3-.5s-1.9.2-1.2.5m8 0c1.2.2 3.2.2 4.5 0 1.2-.2.2-.4-2.3-.4s-3.5.2-2.2.4m-69 1c2.3.2 6.1.2 8.5 0 2.3-.2.4-.4-4.3-.4s-6.6.2-4.2.4m14 16c.6.2 1.8.2 2.5 0 .6-.3.1-.5-1.3-.5s-1.9.2-1.2.5m12 0c.7.3 1.6.2 1.9-.1.4-.3-.2-.6-1.3-.5-1.1 0-1.4.3-.6.6m114.6 32.8c-.3.8-.4 2-.2 2.7.3.7.7.1 1-1.5.6-2.9.1-3.6-.8-1.2m-.2 11.5c0 1.4.2 1.9.5 1.2.2-.6.2-1.8 0-2.5-.3-.6-.5-.1-.5 1.3m-347.9 3.7c.9.2 2.3.2 3 0 .6-.3-.1-.5-1.8-.5-1.6 0-2.2.2-1.2.5m8.5 0c.7.3 1.6.2 1.9-.1.4-.3-.2-.6-1.3-.5-1.1 0-1.4.3-.6.6m123 32c4.5.2 11.9.2 16.5 0 4.5-.1.8-.3-8.3-.3s-12.8.2-8.2.3"/><path fill="#80BFBF" d="M500.3 578c0 2.5.2 3.5.4 2.2.2-1.2.2-3.2 0-4.5-.2-1.2-.4-.2-.4 2.3m-16.1 10.5c0 1.6.2 2.2.5 1.2.2-.9.2-2.3 0-3-.3-.6-.5.1-.5 1.8m6.1 12.2c1.5.2 3.7.2 5 0 1.2-.2 0-.4-2.8-.4-2.7 0-3.8.2-2.2.4m30 80c2 .2 5.4.2 7.5 0 2-.2.3-.4-3.8-.4s-5.8.2-3.7.4m24.5 16c6.7.2 17.7.2 24.5 0 6.7-.1 1.2-.3-12.3-.3s-19 .2-12.2.3"/><path fill="#804080" d="M441.3 584.7c2 .2 5.4.2 7.5 0 2-.2.3-.4-3.8-.4s-5.8.2-3.7.4m271 161c.9.2 2.5.2 3.5 0 .9-.3.1-.5-1.8-.5s-2.7.2-1.7.5"/></svg>