<svg xmlns="http://www.w3.org/2000/svg" version="1.0" viewBox="0 0 812 832"><path fill="#408092" d="M298.8 292.7c1.2.2 3.2.2 4.5 0 1.2-.2.2-.4-2.3-.4s-3.5.2-2.2.4m84.2 4.1.5 4.7.3-3.9c.2-2.1 0-4.2-.5-4.7-.4-.4-.6 1.3-.3 3.9m26.3 39.2c0 4.7.2 6.6.4 4.2.2-2.3.2-6.1 0-8.5-.2-2.3-.4-.4-.4 4.3m-136.5 43.7c1.2.2 3 .2 4 0 .9-.3-.1-.5-2.3-.4-2.2 0-3 .2-1.7.4m148 0c1.2.2 3.2.2 4.5 0 1.2-.2.2-.4-2.3-.4s-3.5.2-2.2.4m-157 26c1.2.2 3.2.2 4.5 0 1.2-.2.2-.4-2.3-.4s-3.5.2-2.2.4m219 0c2.3.2 6.1.2 8.5 0 2.3-.2.4-.4-4.3-.4s-6.6.2-4.2.4m30.8 26.1c-.2.4 1.2.6 3.2.4 5.6-.5 6.2-1 1.5-1.1-2.3-.1-4.4.3-4.7.7m2.7 25.9c.9.2 2.5.2 3.5 0 .9-.3.1-.5-1.8-.5s-2.7.2-1.7.5m-243.5 9c1.2.2 3.2.2 4.5 0 1.2-.2.2-.4-2.3-.4s-3.5.2-2.2.4M548.3 488c0 2.5.2 3.5.4 2.2.2-1.2.2-3.2 0-4.5-.2-1.2-.4-.2-.4 2.3m-12.5 4.7c2.3.2 5.9.2 8 0 2-.2.1-.4-4.3-.4s-6.1.2-3.7.4M322.2 514c0 1.9.2 2.7.5 1.7.2-.9.2-2.5 0-3.5-.3-.9-.5-.1-.5 1.8m5.1 4.7c2.6.2 6.7.2 9 0s.2-.3-4.8-.3c-4.9 0-6.8.1-4.2.3m141 0c3.7.2 9.6.2 13 0s.4-.3-6.8-.3c-7.1 0-9.9.1-6.2.3m-24.1 13 .1 4.8.4-4.2.4-4.2 8.2-.4 8.2-.3-8.7-.2-8.8-.2zm-104.8 4.7c-.3.8-.4 2.9-.1 4.8.3 3 .4 2.9.5-.9.2-4.2.2-4.2 4.5-4.6l4.2-.4-4.3-.1c-2.9-.1-4.4.3-4.8 1.2m51.9 3.6c0 2.5.2 3.5.4 2.2.2-1.2.2-3.2 0-4.5-.2-1.2-.4-.2-.4 2.3m36.3 13.8c-.2.4 1.1.6 3 .4s3.4-.6 3.4-.8c0-.8-5.9-.4-6.4.4M323 562.4c0 .2 1.8.6 4 .8s4 0 4-.4c0-.5-1.8-.8-4-.8s-4 .2-4 .4m43 1.3c0 1.4.2 1.5.9.5.6-1 2.9-1.3 8.5-1 4.2.1 7.6 0 7.6-.5 0-.4-3.8-.7-8.5-.7-7.4 0-8.5.2-8.5 1.7m52.2 3 .1 4.8.4-4.2c.4-4.1.5-4.2 4.6-4.6l4.2-.4-4.7-.1-4.8-.2z"/><path fill="#00406D" d="M400.3 321c0 3.6.2 5 .4 3.2.2-1.7.2-4.7 0-6.5-.2-1.7-.4-.3-.4 3.3m98 93.7c.9.2 2.5.2 3.5 0 .9-.3.1-.5-1.8-.5s-2.7.2-1.7.5m66.9 47.3c0 1.9.2 2.7.5 1.7.2-.9.2-2.5 0-3.5-.3-.9-.5-.1-.5 1.8M395.8 570.7c3.9.2 10.5.2 14.5 0 3.9-.1.7-.3-7.3-.3s-11.2.2-7.2.3"/><path fill="#004049" d="M329.8 275.7c3.4.2 9 .2 12.5 0 3.4-.2.6-.3-6.3-.3s-9.7.1-6.2.3M305.2 288c0 1.9.2 2.7.5 1.7.2-.9.2-2.5 0-3.5-.3-.9-.5-.1-.5 1.8m-25.9 33c0 3.6.2 5 .4 3.2.2-1.7.2-4.7 0-6.5-.2-1.7-.4-.3-.4 3.3m0 67c0 4.7.2 6.6.4 4.2.2-2.3.2-6.1 0-8.5-.2-2.3-.4-.4-.4 4.3m147.1-3 .1 3.5h12l12 .1-11.7-.3-11.7-.4-.4-3.2c-.4-3.1-.4-3.1-.3.3M540 462.7c-.3 2.3-.2 3.9.3 3.4s.7-2.4.5-4.2c-.3-3.3-.4-3.3-.8.8m25.3 7.3c0 3 .2 4.3.4 2.7.2-1.5.2-3.9 0-5.5-.2-1.5-.4-.2-.4 2.8m-286 .5c0 2.2.2 3 .4 1.7.2-1.2.2-3 0-4-.3-.9-.5.1-.4 2.3m251.9.2c-.2 3-.7 4.3-1.9 4.6-1.7.4-1.7.5 0 .6 2.2.1 3-1.7 2.4-6.1-.3-3-.4-3-.5.9m-94.4 13c1.2.2 3.2.2 4.5 0 1.2-.2.2-.4-2.3-.4s-3.5.2-2.2.4m93 3.3c-.2 2.2 0 4 .4 4 .5 0 .8-1.8.8-4s-.2-4-.4-4-.6 1.8-.8 4m21-3.3c1.2.2 3.2.2 4.5 0 1.2-.2.2-.4-2.3-.4s-3.5.2-2.2.4m-245.5 12.8c0 2.2.2 3 .4 1.7.2-1.2.2-3 0-4-.3-.9-.5.1-.4 2.3m198.9 8.5c0 1.9.2 2.7.5 1.7.2-.9.2-2.5 0-3.5-.3-.9-.5-.1-.5 1.8m-19.2 3c0 1.5 4 2.1 11.5 1.7l7-.3-8.2-.2c-4.8-.1-8.3-.6-8.3-1.2s-.4-1-1-1c-.5 0-1 .4-1 1m-168.2 1.7c1.2.2 3 .2 4 0 .9-.3-.1-.5-2.3-.4-2.2 0-3 .2-1.7.4"/><path fill="#000024" d="M323 280.2v3.8h25v-7.5h-25zm17 1.8c0 .6-3.3.9-8.2.8l-8.3-.2 8-.6c4.4-.3 8.1-.7 8.3-.8.1-.1.2.2.2.8m16.8 2.7-7.8.4v6.9h16v-4c0-2.2-.1-3.9-.2-3.8-.2.1-3.8.4-8 .5m-50.8 3.8v3.5h16v-7h-16zm-9 8c0 3.4.1 3.5 4 3.5s4-.1 4-3.5-.1-3.5-4-3.5-4 .1-4 3.5m69 .5v4h17v-8h-17zm-78 8.3c0 3.3.2 3.5 3.9 3.9 3.8.3 3.8.3 3.7-3.2-.1-3.3-.3-3.5-3.8-3.8-3.7-.3-3.8-.2-3.8 3.1m96 .7c0 3.9.1 4 3.5 4s3.5-.1 3.5-4-.1-4-3.5-4-3.5.1-3.5 4m-104 13.2v8.8h-9v51h6.5l-.2-9.7c-.2-6.5.1-9.1.7-7.8.6 1.5.9.7.9-3.2l.1-5.2 8.3-.3 8.2-.3.3-9c.2-5 0-10.5-.3-12.3-.5-3-.9-3.2-4.5-3.2h-4v-17.5h-7zm8 21.1v4.8l-4.7-.3c-4.8-.3-4.8-.3-5.1-4.2-.4-4.5.3-5.1 5.7-5.1h4.1zm5.8 11.4c-1 .2-2.8.2-4 0-1.3-.2-.5-.4 1.7-.4 2.2-.1 3.2.1 2.3.4M274.1 376c.6 0 .7.4.4 1-1.2 1.9-2.5 1-2.4-1.8.1-1.6.3-2 .6-1 .2 1 .9 1.8 1.4 1.8M392 318.6v8.4h8v-8c0-7.6-.1-8-2.2-8.1-1.3 0-3.1-.2-4-.4-1.6-.3-1.8.6-1.8 8.1m-59.7 12.8c-.2 3.4-.1 3.5 4 3.8l4.2.3v9l-4.7.3-4.8.3v-3.9c0-4.2-1.1-5.2-5.6-5.2-2.3 0-2.4.2-2.4 8.5v8.5h4c3.3 0 4.2.4 4.9 2.2.5 1.3.6 2.9.4 3.5-.4 1 1.4 1.3 6.8 1.5l7.4.2-7.5.6-7.5.6 8.3.2 8.2.2v-9h9.2l-.4-8.5-.3-8.5H348v-8h-15.5zm-2.6 11.3c-.3 1-.5.2-.5-1.7s.2-2.7.5-1.8c.2 1 .2 2.6 0 3.5m26 7c-.2 1.6-.4.5-.4-2.2 0-2.8.2-4 .4-2.8.2 1.3.2 3.5 0 5m45.3-13.8v7.9l4 .4 4 .4V328h-8zm9.7 9.8c-.4.3-.7 10-.7 21.5V388h9v8h33v-6.9l-12.7-.3-12.8-.3-.3-4.3c-.3-4.2-.3-4.2-4.3-4.2H418v-17.8c0-11.8-.4-17.2-1-16.2s-1 1.1-1 .2c0-1.2-4.2-1.7-5.3-.5M280 388v8h7v-16h-7zm-9 13v4h8v-8h-8zm7-2.1c0 1.6-1.9 2.3-4 1.6-3-1-2.4-2.5 1-2.5 1.7 0 3 .4 3 .9m114 2.3c0 3.8 0 3.8 4 3.8 3.9 0 4-.1 4-3.4 0-3.2-.2-3.4-4-3.8l-4-.4zm81.5-3.5c-20.3 1.6-18.5 1.2-18.5 4.4v2.9h22.5v-7.8c0 .1-1.8.3-4 .5m-211.3 29.4.3 21.2 3.8.1 3.7.1V406h-8zm122.5-20.4c-.4.3-.7 9.9-.7 21.3v20.6l3.5-.4 3.5-.4V406h-2.8c-1.6 0-3.2.3-3.5.7m94.7 3.3.1 4.1 8-.3 8.1-.3-.4-2.8c-.4-2.6-.7-2.7-6.6-2.9l-6.1-.1 6.5-.7 6.5-.7-8.1-.1-8.1-.2zm23.6 5.9c0 .5-1.2 1.1-2.7 1.3-2.3.2-2.8.8-2.9 3-.1 2.5.2 2.8 3.2 2.8 3.3 0 3.4-.1 3.4-4 0-2.2-.2-4-.5-4s-.5.4-.5.9m2 11.6c0 3.4.1 3.5 4 3.5s4-.1 4-3.5-.1-3.5-4-3.5-4 .1-4 3.5m10.2 12.7.3 8.3h3.4c3 0 3.6.4 4.3 3 .4 1.6.6 3.6.3 4.2-.3.9.8 1.3 3.5 1.3h4l.2 4.7.1 4.8.7-4.5.7-4.5.1 4.2c.2 4.1.4 4.3 3.2 4.3 2.9 0 3-.2 3-4.5V457h18v-6.9l-13.2-.3-13.3-.3-.3-4.3c-.3-4.2-.3-4.2-4.3-4.2-4.1 0-4.3-.3-4.2-7.3 0-1.3-.9-1.7-3.4-1.7h-3.4zm-241.4 9.6c-2.8.3-2.8.4-2.8 8.3v7.9h8l-.2-6.8-.1-6.7-.7 6.5-.7 6.5-.1-7.3c-.1-4.2.2-7.2.8-7.2s1-.4 1-.8c0-.9-.7-1-5.2-.4m118.2 3.7c0 3.4.1 3.5 4 3.5s4-.1 4-3.5-.1-3.5-4-3.5-4 .1-4 3.5m165.5 7.2c.1 1.6.3 5.2.3 8l.2 5.3h7v-16h-3.9c-3.5 0-3.8.2-3.6 2.7M401 462.5c0 3.3.2 3.5 3.5 3.5s3.5-.2 3.5-3.5-.2-3.5-3.5-3.5-3.5.2-3.5 3.5m-121 8c0 3.3.2 3.5 3.5 3.5s3.5-.2 3.5-3.5-.2-3.5-3.5-3.5-3.5.2-3.5 3.5m130.2.2.3 3.8 7.8.3 7.7.3V467h-16.1zm112.8.1c0 3.7.1 3.8 3.4 3.4 3-.4 3.4-.8 3.8-3.8.4-3.3.3-3.4-3.4-3.4s-3.8.1-3.8 3.8m-235 8c0 3.7.1 3.8 4 4l4 .3-.2-4.1c-.1-4-.2-4-4-4-3.7 0-3.8.1-3.8 3.8m139 .2v4h17.3l-.7-3.1c-.3-1.7-.6-3.5-.6-4s-3.6-.9-8-.9h-8zm11.8-2.3c-2.1.2-5.5.2-7.5 0-2.1-.2-.4-.4 3.7-.4s5.8.2 3.8.4m58.2 2.5v3.8h25v-8.2l-12.5.4-12.5.3zm55-3.2c0 .5-.7 1-1.5 1q-1.5 0-1.5 3c0 2.8.2 3 3.9 3h4l-.2-4c-.1-3.5-.4-4-2.4-4-1.3 0-2.3.4-2.3 1m-255 12v4h8v-8h-8zm147.5-2c-.3 1.1-.3 2.9 0 4 .6 1.9 1.5 2 26.1 2H496v-3c0-2.5-.4-3-2.5-3-1.4 0-2.5-.5-2.5-1 0-1.5-10.7-1.3-11.3.2q-.6 1.5-.6 0c-.1-.9-4.2-1.2-17-1.2-16.1 0-17 .1-17.6 2m87.3 1.9-.4 4.1H548v-7.6l-7.9-.2-7.9-.3zM306 497c0 3.9.1 4 3.5 4s3.5-.1 3.5-4-.1-4-3.5-4-3.5.1-3.5 4m199 0v4h25v-8h-25zm17.3 2.7c-2.4.2-6.2.2-8.5 0-2.4-.2-.5-.4 4.2-.4s6.6.2 4.3.4M314 503.9c0 3.8 1.1 5.1 4.6 5.1 3.2 0 3.4-.2 3.4-3.5 0-3.4-.1-3.5-4-3.5-3.3 0-4 .3-4 1.9m174 1.6v3.5h16v-7h-16zM323 514v4.1l12.3-.3 12.2-.3.3-3.8.3-3.7H323zm139.4-3.1c.3.4.1 2.2-.4 4l-.9 3.1H487v-8h-12.6c-6.9 0-12.3.4-12 .9M349 527.7v8.3h-4.1c-3.3 0-4 .3-3.5 1.6.3.9.6 2.4.6 3.5 0 1.9 1.9 2.2 3.2.4.5-.6.8-.5.8.3 0 .9 1.3 1.2 3.8 1.1 2.1-.2 4.2 0 4.7.3.6.4 1-2.6 1-7.5v-8.2l9.3-.3 9.3-.3-.3-3.7-.3-3.7h-12.2l-12.3-.1zm96-6.3c0 1.3-.3 3.1-.6 4-.5 1.4.6 1.6 8 1.6h8.6v-8h-8c-7.8 0-8 .1-8 2.4m-69.7 18.1.1 12 .6-11.5.6-11.5.1 13.5c.1 8.3-.2 12.7-.7 11.5-.5-1.1-.9-1.5-.9-.8-.1.7-2 1.3-4.3 1.5-4.3.3-4.3.3-4.5 4.3 0 2.2.1 3 .4 1.7.3-1.5 1.2-2.2 2.9-2.2 1.3 0 2.4.4 2.4 1 0 .5.8 1.1 1.8 1.1.9.1-.1.5-2.3.9-3.1.6-2.3.7 4 .7s7.1-.1 4-.7c-2.2-.4-3.2-.8-2.2-.9 2.3-.1 4.7-2.5 4.7-4.5 0-.8.5-1.8 1-2.1.6-.4.8-1.1.5-1.6-.4-.5 1-.9 3.1-.9 3.3 0 3.6-.2 3.2-2.5-.3-1.3 0-2.6.6-2.9.6-.2-.8-.5-3.1-.5l-4.3-.1v-10h9l.1 4.2.2 4.3.7-4 .7-4 .2 3.7.1 3.8h15v-14.9l-16.9-.3-16.9-.3zm53.4-10.3c.4.7.6 6.4.4 12.5l-.3 11.3h6.2v-18h4.5c4.5 0 4.5 0 4.5-3.5V528h-8.1c-6.2 0-7.8.3-7.2 1.2M332 548c0 2.7.3 3 3.3 3.1l3.2.2-3.5.7-3.5.8 3.5-.1c3.2-.2 3.5-.5 4.1-4l.6-3.7h-3.9c-3.6 0-3.8.2-3.8 3m-9 10v4h8v-8h-8zm96.4-2.8c.3.7.7 2.5 1 4 .5 2.1 1.2 2.8 3.1 2.8 2.2 0 2.5-.4 2.5-4 0-3.9-.1-4-3.5-4-2.3 0-3.3.4-3.1 1.2m-35.4 11v3.8h33v-2.4c0-1.3.2-3 .5-3.8.4-1-2.8-1.3-16.5-1.3h-17zm-52 .3v3.5h33.6l-.4-3.5-.4-3.5H332z"/><g fill="#000049" stroke-width="0"><path d="M330.3 276.7c3.2.2 8.1.2 11 0s.3-.3-5.8-.3c-6 0-8.4.1-5.2.3m1.2 5.3-8 .6 8.3.2c4.9.1 8.2-.2 8.2-.8s-.1-.9-.2-.8c-.2.1-3.9.5-8.3.8m-21.7 2.7c2.3.2 6.1.2 8.5 0 2.3-.2.4-.4-4.3-.4s-6.6.2-4.2.4m43 0c2.3.2 5.9.2 8 0 2-.2.1-.4-4.3-.4s-6.1.2-3.7.4m12.5 3.8c0 2.2.2 3 .4 1.7.2-1.2.2-3 0-4-.3-.9-.5.1-.4 2.3m26 17c0 2.2.2 3 .4 1.7.2-1.2.2-3 0-4-.3-.9-.5.1-.4 2.3m-101.5 4.2c1.2.2 3 .2 4 0 .9-.3-.1-.5-2.3-.4-2.2 0-3 .2-1.7.4m41.2 21.4c0 3.5.8 3.5 1.5.1.2-1.2 0-2.4-.6-2.7-.5-.4-.9.8-.9 2.6m-1.8 9.9c0 1.9.2 2.7.5 1.7.2-.9.2-2.5 0-3.5-.3-.9-.5-.1-.5 1.8m26.1 6.5c0 2.7.2 3.8.4 2.2.2-1.5.2-3.7 0-5-.2-1.2-.4 0-.4 2.8m-65.5 4.2c1.2.2 3 .2 4 0 .9-.3-.1-.5-2.3-.4-2.2 0-3 .2-1.7.4m41.3 5.8-.1 4 7.7-.5 7.8-.5-7.3-.3c-5.2-.2-7.2-.6-6.9-1.5.2-.7.1-2.1-.4-3.2-.6-1.5-.8-1-.8 2M277.4 369c0 5.2.1 7.4.3 4.7.2-2.6.2-6.8 0-9.5-.2-2.6-.3-.4-.3 4.8m-5.3 6.2c-.1 2.8 1.2 3.7 2.4 1.8.3-.6.2-1-.4-1-.5 0-1.2-.8-1.4-1.8-.3-1-.5-.6-.6 1m15 17c-.1 3.5-.3 3.7-3.8 4.1l-3.8.4 3.8.1c4.2.2 5.1-.9 4.4-5.5-.3-2.4-.4-2.3-.6.9m190.6 5.5c-1.1 1-.8 6.1.3 6.8.6.4 1-1 1-3.4 0-4.2-.2-4.6-1.3-3.4M272 398.9c0 1.2 3.7 2.4 5 1.6 2-1.2 1-2.5-2-2.5-1.6 0-3 .4-3 .9m182.2 2.8c.1 3.7.1 3.7.5.6.4-2.8.8-3.2 4.1-3.6l3.7-.4-4.2-.1-4.3-.2zm-63 25-.2 21.2-3.2.4-3.3.4 3.3.1c1.9.1 3.5-.3 3.8-1.1.2-.7.3-10.5.1-21.7l-.2-20.5zm94.6-19c1.7.2 4.7.2 6.5 0 1.7-.2.3-.4-3.3-.4s-5 .2-3.2.4m10.2 10.8c0 1.9.4 3.5.8 3.5.5 0 .8-1 .8-2.3-.1-1.7.5-2.3 2.7-2.5 3.9-.5 3.3-2.2-.8-2.2-3.3 0-3.5.2-3.5 3.5m10.8 5.2c1.2.2 3.2.2 4.5 0 1.2-.2.2-.4-2.3-.4s-3.5.2-2.2.4m23.6 21.5.1 4.3h13l13 .1-12.7-.3-12.7-.4-.4-3.9-.4-4zm-9.4 3.5c.5.2 1 2.3 1 4.6 0 2.9.3 3.8 1.1 3 1.3-1.3-.2-7.6-1.9-7.9-.7-.1-.8 0-.2.3m-126.2 1c1.2.2 3 .2 4 0 .9-.3-.1-.5-2.3-.4-2.2 0-3 .2-1.7.4M277.3 458c0 4.1.2 5.8.4 3.7.2-2 .2-5.4 0-7.5-.2-2-.4-.3-.4 3.8m261.7 3.5c0 4.3-.1 4.5-3 4.5-2.8 0-3-.2-3.2-4.3l-.1-4.2-.6 4.5c-.4 2.5-.6 4.8-.4 5.1.1.3 1.9.3 4 0 3.6-.6 3.8-.8 4.1-4.8l.3-4.2 8.7-.4 8.7-.3-9.2-.2-9.3-.2zm18.2 7.2-.2 6.3 4.3-.2 4.2-.1-3.7-.4-3.7-.4-.4-5.7-.3-5.7zm-27.2 2.2c0 2.6-.4 3-3.2 3.4-3.2.4-3.2.4.5.5 3.6.2 3.7.1 3.7-3.3 0-1.9-.2-3.5-.5-3.5s-.5 1.3-.5 2.9m-248.2 3.8c1.2.2 3 .2 4 0 .9-.3-.1-.5-2.3-.4-2.2 0-3 .2-1.7.4m217.5 1c.9.2 2.5.2 3.5 0 .9-.3.1-.5-1.8-.5s-2.7.2-1.7.5M522 479v4h-12.4c-6.9 0-12.7.4-13 .9-.3.4-1.7.6-3.1.3-1.5-.2-2.5 0-2.5.7 0 .6 1.1 1.1 2.5 1.1 2.1 0 2.5.5 2.5 3v3h-25.4c-16.4 0-25.6-.4-25.9-1s-.4-.5-.3.2c.2 1 6 1.3 26.2 1.3h25.9l.3-4.3.3-4.2H523v-4.5c0-2.5-.2-4.5-.5-4.5s-.5 1.8-.5 4m26.2.2c.1 3.7.2 3.9.5 1 .3-1.9 1-3.2 1.9-3.2.8 0 1.4-.5 1.4-1 0-.6-.9-1-2-1-1.7 0-2 .6-1.8 4.2m-116.9-2.5c2 .2 5.4.2 7.5 0 2-.2.3-.4-3.8-.4s-5.8.2-3.7.4m99.5 10.5-.3 4.3-13 .5-13 .6 12.8.2 12.7.2.1 4.2c.1 5.9.6 3.8 1.4-5.4l.7-7.7 3.6-.4 3.7-.4-4.2-.1-4.2-.2z"/><path d="M513.8 499.7c2.3.2 6.1.2 8.5 0 2.3-.2.4-.4-4.3-.4s-6.6.2-4.2.4M487 505v3.9l-12.7.3-12.8.3-.2 4c-.2 3.8-.2 3.8.7 1.1.5-1.6.7-3.3.4-3.7-.3-.5 5.3-1 12.3-1.1l12.8-.3.3-3.7.3-3.7 8.7-.4 8.7-.3-9.2-.2-9.3-.2zm-43.3 13.7c-.2.5 0 2.1.4 3.8l.7 3 .1-3.2.1-3.2 8.3-.4 8.2-.3-8.7-.2c-4.8-.1-8.9.1-9.1.5m-7.5 4c-.2 4.1-.3 4.2-3.9 4.6-2.1.2-.2.4 4.2.4s6.3-.2 4.3-.4c-3.5-.4-3.7-.6-4.1-4.6l-.4-4.2zM376.4 542c0 7.4.1 10.5.3 6.7.2-3.7.2-9.7 0-13.5-.2-3.7-.3-.6-.3 6.8m51.8-1 .1 12.5.7-11.5c.3-6.3.3-11.9-.2-12.5-.4-.5-.7 4.7-.6 11.5m-72.9-4.5c0 3.8.2 5.3.4 3.2.2-2 .2-5.2 0-7-.2-1.7-.4-.1-.4 3.8m83.5-.8c1.2.2 3 .2 4 0 .9-.3-.1-.5-2.3-.4-2.2 0-3 .2-1.7.4m-45.5 3.8c0 2.2.2 3 .4 1.7.2-1.2.2-3 0-4-.3-.9-.5.1-.4 2.3m-53.3 1c0 1.4.5 2.5 1 2.5.6 0 1-1.1 1-2.5s-.4-2.5-1-2.5c-.5 0-1 1.1-1 2.5m49.7 7.9c.5 2.2.1 2.5-3.3 2.9l-3.9.4 4.3.1c4 .2 4.2.1 4.2-2.8 0-1.7-.4-3-.9-3-.4 0-.6 1.1-.4 2.4m-58.7 3.1c0 .7 1.4.9 3.5.7 1.9-.2 3.5-.5 3.5-.7s-1.6-.5-3.5-.7c-2.1-.2-3.5 0-3.5.7m95.3 6c0 2.2.2 3 .4 1.7.2-1.2.2-3 0-4-.3-.9-.5.1-.4 2.3m-7.3.8c0 2 .4 3.7 1 3.7.5 0 .7-1.4.3-3.3-.8-4.5-1.3-4.7-1.3-.4m-52 1.5c0 1.5.7 1.7 4.3 1.3 2.3-.3 3.4-.6 2.5-.9-1-.2-1.8-.8-1.8-1.3s-1.1-.9-2.5-.9c-1.7 0-2.5.5-2.5 1.8m13-.9c0 .5-1 1.2-2.2 1.4-1.7.3-1.4.5 1 .6 2.2.1 3.2-.3 3.2-1.4 0-.8-.4-1.5-1-1.5-.5 0-1 .4-1 .9m-31.6 3.8 16.5.3.4 2.8c.4 2.5.4 2.5.3-.3l-.1-3h-16.8l-16.7-.1zm47.8 0c3.7.2 10 .2 14 0 4-.1 1-.3-6.7-.3s-11 .1-7.3.3"/></g><path fill="#40406D" d="M348.3 284c0 4.7.2 6.6.4 4.2.2-2.3.2-6.1 0-8.5-.2-2.3-.4-.4-.4 4.3m-26.1 3.7-.2 4.2-8.7.4-8.8.3 8.8.2c9.7.2 10.2-.1 9.4-6-.3-3-.4-2.9-.5.9M292 301l-4.5.7 4.2.1c2.3.1 4.5-.3 4.8-.8.3-.6.5-.9.3-.8-.2 0-2.3.4-4.8.8m74.7.7c-.4.3-.7 2.4-.7 4.5v3.8h9v17h3.9c4.7 0 5.1.8 5.1 10.3v7.2h7.5l.3 17.2.2 17.3h17v-33.9l-4.2-.3-4.3-.3v-16l3.5-.6c2.4-.4 1.1-.7-4.2-.8l-7.8-.1v-17h-9v-3.9c0-3.9.1-4 3.8-4.4 2-.2-1.5-.4-7.9-.5s-11.9.1-12.2.5M287.3 314c0 2.5.2 3.5.4 2.2.2-1.2.2-3.2 0-4.5-.2-1.2-.4-.2-.4 2.3m-16.8 14.3c-.3.7-.4 12.5-.2 26.2l.2 25 .3-25.7.2-25.7 4.3-.4 4.2-.4-4.3-.1c-2.7-.1-4.4.3-4.7 1.1m25.9 11.2c0 6.6.1 9.2.3 5.7.2-3.4.2-8.8 0-12-.2-3.1-.3-.3-.3 6.3m25.8 5.7-.2 8.8 4.8-.2 4.7-.1-4.2-.4-4.2-.4-.4-8.2-.3-8.2zm34.8 6.6c0 .7-1.6 1.2-3.9 1.2-2.2 0-4.2.3-4.5.8-.6 1 7.7.2 8.8-.9.5-.5.7-1.2.3-1.6-.4-.3-.7-.1-.7.5m-76.2 1.9c1.2.2 3.2.2 4.5 0 1.2-.2.2-.4-2.3-.4s-3.5.2-2.2.4m7.2 38.8v4.5h-9v8h17v-17h-8zM270.5 431c-.1 24.2 0 26.8.2 8.7l.3-25.7h8v-8.2l-4 .4-3.9.3-.3-5c-.2-2.7-.3 10.5-.3 29.5m117.3-25.3c2.3.2 6.1.2 8.5 0 2.3-.2.4-.4-4.3-.4s-6.6.2-4.2.4m70 .1 4.2.3v15.7l4 .4 4 .4v-16.5l4.8-.3c2.6-.2-1.1-.3-8.3-.3-7.1 0-11.1.1-8.7.3m30 16.7.3 8.5h7.8l.3-8.3.3-8.4-4.5-.2-4.5-.2zm25.2 4.9c0 3.3-.2 3.5-3.7 3.9l-3.8.4 4.3.1 4.2.2v-4c0-2.2-.2-4-.5-4s-.5 1.5-.5 3.4m-66.2 12.3c1.2.2 3 .2 4 0 .9-.3-.1-.5-2.3-.4-2.2 0-3 .2-1.7.4m78 1c1.2.2 3 .2 4 0 .9-.3-.1-.5-2.3-.4-2.2 0-3 .2-1.7.4m-88.7 3.5c.2 3 .2 3 .6.6.3-2 1.1-2.8 3.1-3.1 2.4-.4 2.4-.4-.5-.6-3.1-.1-3.3.1-3.2 3.1m77.9 8.7v3.9l7.6.7c4.1.4 7.8.4 8.1.1.4-.3-1.2-.6-3.5-.6H522v-8h-4c-4 0-4 0-4 3.9m-120 4.5c0 .2 1.6.6 3.5.8s3.5 0 3.5-.4-1.6-.8-3.5-.8-3.5.2-3.5.4m18.3 9.3c2.6.2 6.8.2 9.5 0 2.6-.2.4-.3-4.8-.3s-7.4.1-4.7.3m136.4 0c-.4.3-.7 2.4-.7 4.5 0 3.8 0 3.8-4 3.8s-4 0-4 3.9c0 3.7.2 3.9 3.5 4.3 2 .2 3.8.2 4-.1.3-.2.5-2.1.5-4.2 0-3.7.1-3.8 4.3-4.1s4.2-.3 4.5-4.6l.3-4.2h-3.9c-2.1 0-4.2.3-4.5.7m-52.7 6.5c0 1.5.8 1.8 4.8 1.6 4.7-.1 4.7-.1.7-.5-2.2-.3-4.3-1-4.7-1.6-.5-.8-.8-.6-.8.5m-12.7 10.5c2.6.2 6.7.2 9 0s.2-.3-4.8-.3c-4.9 0-6.8.1-4.2.3m-176 9c1.5.2 3.7.2 5 0 1.2-.2 0-.4-2.8-.4-2.7 0-3.8.2-2.2.4m15 12.8c0 2.7.2 3.8.4 2.2.2-1.5.2-3.7 0-5-.2-1.2-.4 0-.4 2.8m121.7.1c0 4.2 0 4.3-3.7 4.6s-3.8.4-3.8 4.3.1 4 3.5 4 3.5-.1 3.8-4.2l.3-4.2 8.7-.3 8.7-.3.3-4.3.3-4.3-9 .2-9.1.2zm-95.7 7.9c0 2.2.2 3 .4 1.7.2-1.2.2-3 0-4-.3-.9-.5.1-.4 2.3m139 0c0 2.2.2 3 .4 1.7.2-1.2.2-3 0-4-.3-.9-.5.1-.4 2.3m-146.1 5c.3.4 7.8.6 16.6.6l16.1-.1.4 4 .4 4-.1-4.2-.1-4.3-16.9-.3c-9.4-.1-16.7 0-16.4.3m93.8 26.2c-.3 5.1-.1 8.9.3 8.4.4-.4.7-4.6.5-9.2l-.3-8.4zm-101.2 0c1.2.2 3.2.2 4.5 0 1.2-.2.2-.4-2.3-.4s-3.5.2-2.2.4m51 0c1.2.2 3.2.2 4.5 0 1.2-.2.2-.4-2.3-.4s-3.5.2-2.2.4M322.3 558c0 2.5.2 3.5.4 2.2.2-1.2.2-3.2 0-4.5-.2-1.2-.4-.2-.4 2.3m19 12.7c4.2.2 11.2.2 15.5 0 4.2-.1.7-.3-7.8-.3s-12 .2-7.7.3"/><path fill="#404092" d="M296.3 296.5c0 2.2.2 3 .4 1.7.2-1.2.2-3 0-4-.3-.9-.5.1-.4 2.3m167.5 126.2c1.2.2 3 .2 4 0 .9-.3-.1-.5-2.3-.4-2.2 0-3 .2-1.7.4m-10.6 4c.3 3.6.5 3.8 4.1 4.1l3.8.3-.3-3.8c-.3-3.6-.5-3.8-4.1-4.1l-3.8-.3zm-9.2 9v3.9l4.1-.4c3.8-.4 4-.6 3.7-3.6-.3-2.8-.7-3.1-4-3.4-3.8-.3-3.8-.3-3.8 3.5m35.2 4.5.3 8.3 3.8.3 3.7.3V432h-8.1zm-39.4 1.5c-1.9.3-2.8 1-2.8 2.3 0 1-.3 2.5-.6 3.4-.5 1.3.2 1.6 3.5 1.6h4.1v-4c0-2.2-.3-3.9-.7-3.9-.5.1-2 .4-3.5.6m-21.1 8c-.4.3-.7 2.1-.7 4v3.3h17v-8h-7.8c-4.3 0-8.2.3-8.5.7m52.5 3c.3 3.5.6 3.8 3.6 4.1 3.1.3 3.2.2 3.2-3.7 0-4-.1-4.1-3.6-4.1s-3.5.1-3.2 3.7m-8.5 6c-.4.3-.7 2.1-.7 4 0 3.2.1 3.3 4 3.3h4v-4c0-3.9-.1-4-3.3-4-1.9 0-3.7.3-4 .7m42.7.7c-.3.8-.4 2.5-.2 3.8.2 1.9 1 2.4 4.1 2.6l3.7.3v-4c0-4-.1-4.1-3.5-4.1-2.2 0-3.8.6-4.1 1.4M453 471v4h8v-8h-8zm44-.5c0 3.4.1 3.5 4 3.5s4-.1 4-3.5-.1-3.5-4-3.5-4 .1-4 3.5m-18.1 8.7-.4 4.3 8.8-.3 8.7-.3V475h-16.8zM296 488.9c0 1.7.4 3.2.8 3.5.4.2.6-1.1.4-3-.5-4.2-1.2-4.5-1.2-.5M435.3 521c0 3.6.2 5 .4 3.2.2-1.7.2-4.7 0-6.5-.2-1.7-.4-.3-.4 3.3m26 2c0 2.5.2 3.5.4 2.2.2-1.2.2-3.2 0-4.5-.2-1.2-.4-.2-.4 2.3m-113 4.5c0 4.4.2 6.1.4 3.7.2-2.3.2-5.9 0-8-.2-2-.4-.1-.4 4.3m35 13c0 2.2.2 3 .4 1.7.2-1.2.2-3 0-4-.3-.9-.5.1-.4 2.3"/><path fill="#4080DB" d="M272.8 544.7c1.2.2 3 .2 4 0 .9-.3-.1-.5-2.3-.4-2.2 0-3 .2-1.7.4m243.5 0c.9.2 2.5.2 3.5 0 .9-.3.1-.5-1.8-.5s-2.7.2-1.7.5"/><path fill="#8080B6" d="M359.3 283.7c1.5.2 3.7.2 5 0 1.2-.2 0-.4-2.8-.4-2.7 0-3.8.2-2.2.4m-28.5 1c5.1.3 8.2.8 8.2 1.5q0 1.05-6.9.6c-7.1-.5-8.9.3-7.1 3.1.5.9 1 1 1.4.2.4-.6 3.4-1.1 6.7-1.1 4.5 0 5.9.3 5.9 1.5 0 1.1-1.8 1.5-8.2 1.8l-8.3.3 8.8.2 8.7.2v-9l-8.7.2-8.8.2zM305.3 297c0 2.5.2 3.5.4 2.2.2-1.2.2-3.2 0-4.5-.2-1.2-.4-.2-.4 2.3m-1.1 10c0 1.9.2 2.7.5 1.7.2-.9.2-2.5 0-3.5-.3-.9-.5-.1-.5 1.8m-16.2 3.5c.5.6.7 2.7.6 4.8l-.3 3.7 4.1-.1c3.5-.1 3.8-.2 1.6-.9-1.8-.6-2-.8-.7-.9 2.9-.2 1.8-4.5-1.3-5l-2.5-.4 2.5-.7c2.3-.6 2.2-.7-1.2-1.1-2.6-.3-3.4-.2-2.8.6M418.3 353c0 3.6.2 5 .4 3.2.2-1.7.2-4.7 0-6.5-.2-1.7-.4-.3-.4 3.3m-34.9 27.4c-.3.7-.3 3.5-.1 6.2l.3 4.9.2-5.7.2-5.7 3.8-.4 3.7-.4-3.8-.1c-2.4-.1-4 .3-4.3 1.2m75.9 16.3c3.7.2 9.6.2 13 0s.4-.3-6.8-.3c-7.1 0-9.9.1-6.2.3M374.4 427c0 16.8.2 23.6.3 15.2.2-8.3.2-22.1 0-30.5-.1-8.3-.3-1.5-.3 15.3m-78-20.7c-.2.7-.3 8.7-.1 17.7l.3 16.5.2-17.2.2-17.2 3.3-.4 3.2-.4-3.3-.1c-1.9-.1-3.5.3-3.8 1.1m127.1-.6c14.6.7 29.3.7 28.8 0-.2-.4-8.2-.6-17.6-.5-9.5.1-14.5.3-11.2.5m28.9 7.3c.1 1.1 1.4 1.5 4.4 1.6l4.2.1-3.9-.4c-2.2-.2-4.2-.9-4.4-1.6s-.3-.5-.3.3m-17.1 5.5c0 2.7.2 3.8.4 2.2.2-1.5.2-3.7 0-5-.2-1.2-.4 0-.4 2.8m20.5 4.2c1.2.2 3 .2 4 0 .9-.3-.1-.5-2.3-.4-2.2 0-3 .2-1.7.4m-133.6 4c-.2 4.2-.2 4.2-4.4 4.6l-4.3.4 4.2.1c4.1.2 4.2.3 4.6 3.9l.4 3.8.1-3.7.2-3.7 9.3-.4 9.2-.3-9.2-.2-9.2-.2-.4-4.3-.4-4.2zm129.8.2c0 4 0 4-4.2 4.4l-4.3.4 4.8.1 4.7.2v-4.5c0-2.5-.2-4.5-.5-4.5s-.5 1.8-.5 3.9m9.3 1.1c0 2.5.2 3.5.4 2.2.2-1.2.2-3.2 0-4.5-.2-1.2-.4-.2-.4 2.3m16.9 12.2c-.1 4.8.1 8.9.6 9.1.4.3.6-2.3.4-5.6-.5-11.1-.9-12.4-1-3.5m17.9-2.5-.1 3.3 4.8-.2 4.7-.1-4.2-.4c-3.6-.4-4.2-.7-4.6-3.1s-.4-2.4-.6.5m-196.3 3c1.2.2 3 .2 4 0 .9-.3-.1-.5-2.3-.4-2.2 0-3 .2-1.7.4m27.5 0c2.6.2 6.7.2 9 0s.2-.3-4.8-.3c-4.9 0-6.8.1-4.2.3m119 0c1.5.2 3.7.2 5 0 1.2-.2 0-.4-2.8-.4-2.7 0-3.8.2-2.2.4m14.5 8.8c-.2 4.7 0 8.5.5 8.5.4 0 .7-3.8.7-8.5s-.2-8.5-.4-8.5c-.3 0-.6 3.8-.8 8.5m70.4-4.5c0 1.9.2 2.7.5 1.7.2-.9.2-2.5 0-3.5-.3-.9-.5-.1-.5 1.8m-96.2 6.9c0 4.6-.2 5-2.7 5.4-2.6.4-2.6.4.5.6l3.2.1v-5.5c0-3-.2-5.5-.5-5.5s-.5 2.2-.5 4.9m-25.1-2.2c-.1.5 0 2.2.1 4 .1 3.1 0 3.2-4.7 3.6-2.6.2 1.3.3 8.7.3s11.4-.1 8.8-.3l-4.8-.4v-4c0-3.9 0-3.9-4-3.9-2.2 0-4 .3-4.1.7m-103.1 8c1.2.2 3.2.2 4.5 0 1.2-.2.2-.4-2.3-.4s-3.5.2-2.2.4m29 0c2.3.2 6.1.2 8.5 0 2.3-.2.4-.4-4.3-.4s-6.6.2-4.2.4m15 0c1.2.2 3.2.2 4.5 0 1.2-.2.2-.4-2.3-.4s-3.5.2-2.2.4m115.5 0c3.6.4 3.7.6 3.7 4.4v3.9h-9l.2 4.2.1 4.3.4-3.7c.4-3.5.6-3.7 4.6-4l4.2-.3v-9l-4-.1-4-.1zm32 0c.9.2 2.5.2 3.5 0 .9-.3.1-.5-1.8-.5s-2.7.2-1.7.5M444 469.9c0 3.5.4 4.2 2.4 4.7 4.7 1.1 6.1.2 6.1-4.1 0-4 0-4-4.2-4.3l-4.3-.3zM322.3 471c0 2.5.2 3.5.4 2.2.2-1.2.2-3.2 0-4.5-.2-1.2-.4-.2-.4 2.3m-40.5 4.7c1.2.2 3 .2 4 0 .9-.3-.1-.5-2.3-.4-2.2 0-3 .2-1.7.4m92.5 3.8c0 2.7.2 3.8.4 2.2.2-1.5.2-3.7 0-5-.2-1.2-.4 0-.4 2.8m26-1c0 2.2.2 3 .4 1.7.2-1.2.2-3 0-4-.3-.9-.5.1-.4 2.3m159.5-2.8c1.2.2 3 .2 4 0 .9-.3-.1-.5-2.3-.4-2.2 0-3 .2-1.7.4m-215.9 17c3.9.4 4 .5 4.4 4.6l.4 4.2-.1-4.5-.1-4.5-4.3-.1-4.2-.1zm15.9 0c1.2.2 3.2.2 4.5 0 1.2-.2.2-.4-2.3-.4s-3.5.2-2.2.4m14.5 12.8c0 2.7.2 3.8.4 2.2.2-1.5.2-3.7 0-5-.2-1.2-.4 0-.4 2.8m35 0c0 2.7.2 3.8.4 2.2.2-1.5.2-3.7 0-5-.2-1.2-.4 0-.4 2.8m-108 74.2c2.6.2 6.8.2 9.5 0 2.6-.2.4-.3-4.8-.3s-7.4.1-4.7.3"/><path fill="#8080DB" d="M311.7 283.7c1.8.2 5 .2 7 0 2.1-.2.7-.4-3.2-.4-3.8 0-5.5.2-3.8.4m40.6 0c.9.2 2.5.2 3.5 0 .9-.3.1-.5-1.8-.5s-2.7.2-1.7.5m14 3.8c0 2.2.2 3 .4 1.7.2-1.2.2-3 0-4-.3-.9-.5.1-.4 2.3m156 267.5c0 4.1.2 5.8.4 3.7.2-2 .2-5.4 0-7.5-.2-2-.4-.3-.4 3.8m-26.2 20.7-.1 3.3-19.7.3-19.8.2 19.8.3c21.3.2 21.4.2 20.4-5q-.45-2.7-.6.9m-175.3 4c3.4.2 9 .2 12.5 0 3.4-.2.6-.3-6.3-.3s-9.7.1-6.2.3"/><g fill="#808092" stroke-width="0"><path d="M340 288.6v4.5l-9-.3-9-.3v8.4l-12.7.3-12.8.3-.3 8.7-.3 8.8H292c-4 0-4 0-4 4v4h9v26h8.5c4.7 0 8.5.3 8.5.7.1 1.3.1 22.6.1 24.5-.1 1.6-1.4 1.8-13.1 1.8h-13v4c0 4 0 4 3.9 4 2.2 0 4.1.4 4.3 1 .2.5.2 4.5 0 8.8l-.3 7.8-8.2-.1h-8.2l-.3 4.2c-.3 4.3-.3 4.3-4.3 4.3H271v35h8v17h9v9h8.9l-.2 4.2-.2 4.3h8.5v8.5h9v9h9v9h26v8l12.8.1c7 .1 13 .1 13.3.1.4-.1.4 1.9.1 4.3l-.5 4.5H435v-4.8c0-2.6.3-6.4.6-8.5.6-3.5.8-3.7 4.5-3.7h3.9v-26h-17v-9h17v4c0 3.6.2 4 3.3 4.5 1.7.3 9.5.5 17.2.3l14-.3.3-4.3.3-4.2h16.7l.7-4c.7-3.9.8-4 4.6-4 3.9 0 3.9 0 3.9 4v4h17v-9h9v-8.1l-8.7.3-8.8.3-.3 3.7c-.3 3.7-.4 3.8-4.3 3.8s-3.9 0-3.9-4v-4h9.1l-.6-11.8c-.4-6.4-.8-12.3-1-13-.3-.6-2-1.2-4-1.2-3.5 0-3.5 0-3.5-4.5V423h-9v4c0 4 0 4-4 4h-3.9l-.3-8.3-.3-8.2-4.2-.3c-4.3-.3-4.3-.3-4.3-4.3V406h-9v17h9v9h7.9l.4 8.7.3 8.8.2-8.8.2-8.7h4.4c2.9 0 4.4.4 4.3 1.2-.2 6.2.2 6.8 4.3 6.8h4v18h-9v8.5l-8.5-.3-8.5-.3v9.1l-16.2-.1c-8.9-.1-16.8-.3-17.5-.6-.8-.3-1.3-2.1-1.3-4.4V466h-17v9h-18v-3.9c0-4 0-4-4.2-4.3-4.3-.3-4.3-.3-4.6-4.6-.3-4.2-.3-4.2-4.3-4.2H392v-9h-9v-44h9v-8h26v8l17.3.2 17.2.3.3 4.2c.3 4.3.3 4.3 4.2 4.3h3.9l.4 5.2c.2 3.4.4 2 .5-4l.2-9.2h-4.5c-4.8 0-4.6.2-4.9-6.5-.1-1.9-.9-2-17.4-2.3L418 397v-9h-9v-9h-17v-34h-9v-18h-7.9l-.3-8.3-.3-8.2-4.2-.3-4.3-.3-.1-4.7c-.1-2.6-.1-6.4 0-8.4l.1-3.7-8.7-.3-8.8-.3-.3-4.3c-.3-4.2-.3-4.2-4.3-4.2H340zM305 306v4h-8v-8h8zm44 25.5v4.5h9.1l-.3 8.7-.3 8.8-4.2.3-4.3.3v8.9h-18v-9h-9v-18h9v-9h18zm42.8 52.2.3 4.3h-4c-4.3 0-4.3.1-4.5 6-.1 2.2-.6 2.5-4.3 2.8l-4.3.3V458h8v8h9v9h9v9h17v17h-8v9h-36v-9h-26v-8h-8v-9h-9v-9h-9v-9h-8v-8h-9v-17h-3.2c-5.9 0-5.9-.1-5.6-18.6l.3-16.9 4-.1c4 0 4-.1 4.3-4.2l.3-4.2H349v-9h34v-3.8c0-4.8.6-5.4 5-5 3.4.3 3.5.5 3.8 4.5"/><path d="M314 427v4h8v-8h-8zm26.2.2.3 4.3h8v-8l-4.3-.3-4.3-.3zm-17.4 8.8-.4 4H340v-8h-16.8zm26.2 17v4h8v-8h-8zm-18 9v4h18v-8h-18zm35 17.5v4.5h-9v8h9v-8h8v-9h-8zm-86.8-122.1c.2 3.2.5 3.5 4 3.8 3.8.4 3.8.3 3.8-3.4 0-3.8 0-3.8-4-3.8s-4.1.1-3.8 3.4m147.8 61v4.5l-4.2.3c-4.3.3-4.3.3-4.3 4.3s0 4 4.3 4.3l4.2.3V423h8v-9h-8zm25.4 14c-.3.8-.4 2.9-.1 4.8.3 3 .4 2.9.5-.9.2-4.2.2-4.2 4.5-4.6l4.2-.4-4.3-.1c-2.9-.1-4.4.3-4.8 1.2m-17 9c-.3.8-.4 2.5-.1 3.8.3 1.8.5 1.6.6-.9.1-3 .4-3.2 4.4-3.6l4.2-.4-4.3-.1c-2.9-.1-4.4.3-4.8 1.2m26.6 3.1v4.5h8v9h4.5c4.3 0 4.5-.1 4.4-2.8-.2-2.3-.2-2.4-.6-.5-.4 1.8-1.1 2.3-3.8 2.3h-3.3l-.7-8.3-.7-8.4-3.9-.1-3.9-.2zm-9 8.5c0 3.4.4 4.1 2.5 4.6 4.1 1 5.5-.1 5.5-4.6v-4h-4c-4 0-4 0-4 4m8.7 4.7c-.4.3-.7 2.3-.7 4.4 0 3.7-.1 3.8-4.2 4.2l-4.3.4 4.5-.1 4.5-.1.5-4.8c.3-2.6.5-4.7.5-4.7-.1 0-.5.3-.8.7m-52.4 4.3c0 2.5.2 3.5.4 2.2.2-1.2.2-3.2 0-4.5-.2-1.2-.4-.2-.4 2.3"/></g><g fill="#BFBFB6" stroke-width="0"><path d="M323 288c0 1.6.2 3 .4 3s.6-1.4.8-3c.3-1.7.1-3-.4-3-.4 0-.8 1.3-.8 3m-17 8.9c0 2.3.2 4.1.4 4.1.8 0 1.2-7.1.4-7.6-.4-.3-.8 1.3-.8 3.5m-9 6.7c0 1.2.3 1.4 1.3.6.6-.5 2.1-1.2 3.2-1.5q1.95-.45-1.2-.6c-2.4-.1-3.3.3-3.3 1.5m-9.8 36.1c-.2 4.1-.3 4.2-3.9 4.6l-3.8.4 3.8.1c4.3.2 5.1-.9 4.4-6-.3-3-.4-2.9-.5.9m44.1 1.5c.2 3 .5 3.3 3.7 3.4 3.4.1 3.4.1.3-.3-2.6-.3-3.3-.9-3.7-3.4-.6-2.8-.6-2.7-.3.3M384 384v4h8v-8h-8zm-35 8.5v4.5h-44v9h-8v34h8v16.9l4.3.3c4.2.3 4.2.3 4.5 4.5s.3 4.2 4.5 4.5 4.2.3 4.5 4.5.3 4.2 4.5 4.5 4.2.3 3.9 4l-.3 3.7 4.3.3c4.3.3 4.3.3 4.6 4.5l.3 4.3h8.9v9h25.9l.3 4.2.3 4.3 16.8.3 16.7.2v-9h9v-16.9l-8.7-.3-8.8-.3-.3-4.3c-.3-4.2-.3-4.2-4.3-4.2-3.9 0-3.9 0-3.9-3.9s0-4-4.5-4.7c-4.4-.6-4.5-.7-4.5-4.5 0-3.7 0-3.8-4.2-4.1l-4.3-.3-.3-30.3-.2-30.2h9v-9h-34zM323 427v4h17v-8h9v9h-9v9.1l-8.7-.3-8.8-.3-.3-4.2c-.3-4.1-.4-4.2-4.4-4.5-4.1-.3-4.1-.3-4.2-4.6l-.1-4.2h9.5zm34.2 26.6-.4 4.5-4.2-.3c-3.7-.3-4.1-.6-4.4-3.1-.6-4.7.3-5.7 5-5.7h4.3zm-8.4 8.1.3 4.3H331v-3.8c0-2.1.3-4.2.7-4.6s4.3-.5 8.8-.4l8 .3zm26.2 17.8v4.5h-9v9h-9.1l.3-4.8.3-4.7 4.3-.3c4.2-.3 4.2-.3 4.2-4.3V475h9z"/><path d="M400.7 403.7c-.4 3.8-.7 15.3-.7 25.6v18.8l-3.2-.3-3.3-.3-.5-20.5-.6-20.5-.2 21.2-.2 21.2 8.8.3c4.8.2 14.4.2 21.5 0l12.7-.3V440h9v-9h3.9c4 0 4 0 4.3-4.3.3-4.2.3-4.2 4.6-4.5 4.1-.3 4.2-.4 4.2-3.7s-.1-3.4-4.2-3.7c-4.3-.3-4.3-.3-4.4-4.3v-4l-17.2-.3-17.2-.2v-9h-16.7zm35.3 14.8v4.5h-9v9h-9v-8.9l4.3-.3c4.2-.3 4.2-.3 4.5-4.6l.3-4.2h8.9zm29.8 5.2c-3.7.4-3.8.5-3.8 4.4v3.9h-9v9h-9v8h-8v9h-4.3c-2.4 0-4.6.2-4.8.5-.3.2-.3 2-.1 4l.4 3.5H461v-3.9c0-4 0-4-4.2-4.3-4.3-.3-4.3-.3-4.6-4.6l-.3-4.2h9l.3-4.3.3-4.2h8.9v4c.1 3.9.2 4 3.9 4.3l3.7.3v-6.3c0-3.5.3-9.3.7-13.1l.6-6.7-4.9.2c-2.7.1-6.6.3-8.6.5"/><path d="M488 440.5v8.5h-2.9c-5 0-6.1.9-6.1 5.1 0 3.9 0 3.9-4 3.9h-4v8.9l-4.2.3c-4.2.3-4.3.4-4.6 4l-.3 3.8H479v-9h17v-9h9v-16h-9v-9h-8zM462 453v4h8v-8h-8zm-52.8 1c0 1.9.2 2.7.5 1.7.2-.9.2-2.5 0-3.5-.3-.9-.5-.1-.5 1.8"/></g><path fill="#80BFB6" d="M324.5 286.1c-.4.6-.4 1.3-.1 1.6.3.4.6.2.6-.4 0-.7 2.5-.9 7-.5 4.8.3 7 .1 7-.7 0-1.4-13.6-1.5-14.5 0m-.8 4.3c-.6 1.4.5 1.6 7.3 1.6 6.4 0 8-.3 8-1.5s-1.3-1.5-5.9-1.5c-3.3 0-6.3.5-6.7 1.1-.5.8-.9.8-1.4-.1-.5-.8-.9-.7-1.3.4m-16.1 4.3c-.3.4-.6 1.9-.6 3.5v2.8h15v-6.5l-6.9-.2c-3.8-.1-7.1.1-7.5.4m-6.1 8c-3.1.8-4.5 2.3-4.5 4.9 0 2.1.5 2.4 3.5 2.4s3.5-.3 3.5-2.4c0-1.3.3-3.1.6-4 .6-1.6.3-1.7-3.1-.9M292 311l-2.5.7 2.5.4c3.1.5 4.1 4.5 1.3 5.2-1.4.4-1.3.5.5.6 1.9.1 2.2-.4 2.2-3.3 0-4-.6-4.5-4-3.6m67.8 172.7c1.2.2 3 .2 4 0 .9-.3-.1-.5-2.3-.4-2.2 0-3 .2-1.7.4"/><g fill="#4080B6" stroke-width="0"><path d="M371.3 292.7c2 .2 5.4.2 7.5 0 2-.2.3-.4-3.8-.4s-5.8.2-3.7.4m40.5 52c1.2.2 3.2.2 4.5 0 1.2-.2.2-.4-2.3-.4s-3.5.2-2.2.4m6.5 22.3c0 4.7.2 6.6.4 4.2.2-2.3.2-6.1 0-8.5-.2-2.3-.4-.4-.4 4.3m-145.5 29.7c1.2.2 3 .2 4 0 .9-.3-.1-.5-2.3-.4-2.2 0-3 .2-1.7.4m-11.6 30c-.1 12.2.1 22.4.6 22.6.4.3.6-6.3.4-14.6-.4-27.7-.8-30.5-1-8M496.3 410c0 2.5.2 3.5.4 2.2.2-1.2.2-3.2 0-4.5-.2-1.2-.4-.2-.4 2.3m61.1 43.2.1 4.3 4.5.1 4.5.1-4.2-.4c-4.1-.4-4.2-.5-4.6-4.4l-.4-3.9zm-270.1 25.3c0 2.2.2 3 .4 1.7.2-1.2.2-3 0-4-.3-.9-.5.1-.4 2.3m270 .5c0 2.5.2 3.5.4 2.2.2-1.2.2-3.2 0-4.5-.2-1.2-.4-.2-.4 2.3m-38.8 22-13 .6 12.7.2c7.6.1 12.9-.2 13.3-.8.3-.6.5-.9.3-.8s-6.1.5-13.3.8m-209.6.7c3.9.4 4 .5 4.4 4.6l.4 4.2-.1-4.5-.1-4.5-4.3-.1-4.2-.1zm31.1 21.2v4.1h-44v9h-16.9l-.3 4.2c-.3 4.2-.4 4.3-4 4.6s-3.7.4-4.3 5.5c-.4 2.9-.5 6.6-.3 8.2.3 2.7.7 3 4.5 3.3 4.2.3 4.2.3 4.5 4.5l.3 4.2 8.3.3 8.2.3v7.9h44v9h113v-3.9c0-2.6.5-4.1 1.6-4.5.9-.3 10.5-.6 21.5-.6H496v-8h18v-9h8v-17h-8v-9h-8.4c-9.1 0-9.6-.3-9.6-6.1V527h-13.3c-7.4 0-18.9.3-25.5.7l-12.2.6v7.7h-9v17.9l-4.2.3c-3.6.2-4.2.6-4 2.2.2 1 .1 2.9-.2 4.2-.5 2-1.3 2.4-4.6 2.4h-4v8l-18.2-.2-18.2-.3V567l-.1-3.5-7.4-.3c-8.1-.3-9.1.2-9.1 5v2.7l-17.5.3c-18.9.3-17.6.7-17.9-5.2-.1-2.1-.7-2.6-4.1-3l-4-.5v-10h4c3.9 0 3.9 0 4-4s.2-4 4.3-4.3c4-.3 4.1-.4 4.4-4.5.3-4.2.3-4.2 4.6-4.5l4.3-.3-.3-7.7-.3-7.7-3.7-.3-3.8-.3z"/><path d="M384 540c0 3.9.1 4 3.5 4s3.5-.1 3.5-4-.1-4-3.5-4-3.5.1-3.5 4"/></g><path fill="#404049" d="M352.8 292.7c2.3.2 6.1.2 8.5 0 2.3-.2.4-.4-4.3-.4s-6.6.2-4.2.4m30.4 14.3c0 1.9.2 2.7.5 1.7.2-.9.2-2.5 0-3.5-.3-.9-.5-.1-.5 1.8m-95.8 16 .1 4.5 4 .1 4 .1-3.7-.4c-3.5-.4-3.7-.6-4.1-4.6l-.4-4.2zm53 4.7 7.5.4.4 3.9.4 4-.1-4.2-.1-4.3-7.8-.1H333zm59.8 13.3c0 1.9.2 2.7.5 1.7.2-.9.2-2.5 0-3.5-.3-.9-.5-.1-.5 1.8m9.2 22c0 9.6.2 13.6.3 8.7.2-4.8.2-12.6 0-17.5-.1-4.8-.3-.8-.3 8.8m-61.2-5c0 1.9.2 2.7.5 1.7.2-.9.2-2.5 0-3.5-.3-.9-.5-.1-.5 1.8m-60.9 26.5c0 2.2.2 3 .4 1.7.2-1.2.2-3 0-4-.3-.9-.5.1-.4 2.3m121.9-.5c0 1.9.2 2.7.5 1.7.2-.9.2-2.5 0-3.5-.3-.9-.5-.1-.5 1.8m21 12.7c3.7.2 10 .2 14 0 4-.1 1-.3-6.7-.3s-11 .1-7.3.3m-29.9 4.3c0 2.5.2 3.5.4 2.2.2-1.2.2-3.2 0-4.5-.2-1.2-.4-.2-.4 2.3m-127.5 4.7c1.2.2 3.2.2 4.5 0 1.2-.2.2-.4-2.3-.4s-3.5.2-2.2.4m192.5 0c.9.2 2.5.2 3.5 0 .9-.3.1-.5-1.8-.5s-2.7.2-1.7.5M383.4 427c0 11.8.2 16.7.3 10.7.2-5.9.2-15.5 0-21.5-.1-5.9-.3-1-.3 10.8m-113.2-16c0 1.9.2 2.7.5 1.7.2-.9.2-2.5 0-3.5-.3-.9-.5-.1-.5 1.8m130.1 42.5c0 2.2.2 3 .4 1.7.2-1.2.2-3 0-4-.3-.9-.5.1-.4 2.3m140.2 8.7c0 4.3 0 4.3-4 4.8-3.8.5-4 .7-4.5 4.5-.4 3-.9 4-2.2 3.9-7-.3-6.8-.2-6.8-4.3 0-3.9.1-4 3.8-4.4l3.7-.4-4 .1-4 .1.3 8.7.3 8.8h-26l-.4-4.3c-.2-2.3-.2-.2.1 4.6l.4 8.8-26.6-.3-26.7-.3.3 4.4.3 4.4 8.8-.2 8.8-.2-.3 4.3-.3 4.3-8.7.3-8.7.3-.3 4.2c-.3 4.1-.4 4.2-3.8 4.2h-3.5l.4 4.2c.3 3.7.6 4.3 2.6 4.3 3 0 4.7-2.3 4.3-5.7l-.3-2.8 8.6-.3 8.6-.3.1-3.5c.1-1.9.4-3.9.7-4.4.4-.6 5.6-1 11.6-1 12 0 13.9-.7 13.9-5.4 0-2.5.2-2.5 8.3-2.8l8.2-.3.3-4.3.3-4.2h13c7.1 0 12.8-.3 12.8-.8-.1-.4-.1-2.5 0-4.6l.1-3.9 7.8.5c4.2.2 6.5.3 5 .1-2.5-.4-2.8-.8-2.8-4.4 0-3.9 0-3.9 3.9-3.9 4 0 4 0 4.3-4.3.3-4.2.3-4.2 4.6-4.5l4.3-.3-.3-4-.2-3.9h-16.1zm-257.3 4.5c3.4.4 3.7.7 4.1 3.9.4 3.4.4 3.4.3-.3s-.2-3.8-4.1-3.9l-4-.1zm126.1 3.8c0 2.2.2 3 .4 1.7.2-1.2.2-3 0-4-.3-.9-.5.1-.4 2.3m17 1c0 2.2.2 3 .4 1.7.2-1.2.2-3 0-4-.3-.9-.5.1-.4 2.3m2.5 12.2c1.2.2 3.2.2 4.5 0 1.2-.2.2-.4-2.3-.4s-3.5.2-2.2.4M313.3 497c0 2.5.2 3.5.4 2.2.2-1.2.2-3.2 0-4.5-.2-1.2-.4-.2-.4 2.3m3.5 4.7c1.2.2 3 .2 4 0 .9-.3-.1-.5-2.3-.4-2.2 0-3 .2-1.7.4m68 26c4.6.2 11.8.2 16 0 4.2-.1.5-.3-8.3-.3s-12.3.2-7.7.3"/><path fill="#BF80B6" d="M309.7 293.7c1.8.2 5 .2 7 0 2.1-.2.7-.4-3.2-.4-3.8 0-5.5.2-3.8.4"/><path fill="#80806D" d="M287.3 358c0 2.5.2 3.5.4 2.2.2-1.2.2-3.2 0-4.5-.2-1.2-.4-.2-.4 2.3m-6.5 3.7c1.2.2 3 .2 4 0 .9-.3-.1-.5-2.3-.4-2.2 0-3 .2-1.7.4M513.3 442c0 3 .2 4.3.4 2.7.2-1.5.2-3.9 0-5.5-.2-1.5-.4-.2-.4 2.8"/><path d="M298.8 300.7c1.2.2 3.2.2 4.5 0 1.2-.2.2-.4-2.3-.4s-3.5.2-2.2.4M278.3 340c0 2.5.2 3.5.4 2.2.2-1.2.2-3.2 0-4.5-.2-1.2-.4-.2-.4 2.3m0 31c0 4.7.2 6.6.4 4.2.2-2.3.2-6.1 0-8.5-.2-2.3-.4-.4-.4 4.3m116.5 26.7c1.2.2 3 .2 4 0 .9-.3-.1-.5-2.3-.4-2.2 0-3 .2-1.7.4m58.6.7c-.3.8-.4 2.7-.1 4.3.3 2.4.4 2.2.6-.9l.1-3.7 11.8-.4 11.7-.3-11.8-.2c-9.4-.2-11.9.1-12.3 1.2m41.9 11.1c0 2.2.2 3 .4 1.7.2-1.2.2-3 0-4-.3-.9-.5.1-.4 2.3m19.1 31c0 4.9.1 7.1.3 4.8s.2-6.4 0-9-.3-.8-.3 4.2m-110.2 18.2c3.4.4 3.7.7 4.1 4.1l.4 3.7.1-4.3.2-4.2-4.2.2-4.3.1zm-47.8 76.8c0 4.9.1 7.1.3 4.8s.2-6.4 0-9-.3-.8-.3 4.2m71 4.5c0 6.9.1 9.7.3 6.2.2-3.4.2-9 0-12.5-.2-3.4-.3-.6-.3 6.3m-83.1 3.7c2 .2 5.4.2 7.5 0 2-.2.3-.4-3.8-.4s-5.8.2-3.7.4m52 0c2.6.2 6.7.2 9 0s.2-.3-4.8-.3c-4.9 0-6.8.1-4.2.3m-57.4 5.5c-.3 2.2-.1 3.4.4 2.9s.7-2.1.5-3.7c-.3-2.7-.4-2.6-.9.8m46.4 3.5c.9.2 2.5.2 3.5 0 .9-.3.1-.5-1.8-.5s-2.7.2-1.7.5m-3.1 4.3c0 1.9.2 2.7.5 1.7.2-.9.2-2.5 0-3.5-.3-.9-.5-.1-.5 1.8m35 10c0 1.9.2 2.7.5 1.7.2-.9.2-2.5 0-3.5-.3-.9-.5-.1-.5 1.8"/><path fill="#40806D" d="M383.3 336.5c0 4.4.2 6.1.4 3.7.2-2.3.2-5.9 0-8-.2-2-.4-.1-.4 4.3m-26 10.5c0 2.5.2 3.5.4 2.2.2-1.2.2-3.2 0-4.5-.2-1.2-.4-.2-.4 2.3m29-2.3c.9.2 2.5.2 3.5 0 .9-.3.1-.5-1.8-.5s-2.7.2-1.7.5m-49 18c2 .2 5.4.2 7.5 0 2-.2.3-.4-3.8-.4s-5.8.2-3.7.4M400.2 463c0 1.9.2 2.7.5 1.7.2-.9.2-2.5 0-3.5-.3-.9-.5-.1-.5 1.8"/><path fill="#BFBFDB" d="M279.4 337.4c-.3.8-.4 2.7-.1 4.3.3 2.4.4 2.3.6-.9.1-3.5.3-3.7 3.9-4.1l3.7-.4-3.8-.1c-2.4-.1-4 .3-4.3 1.2m52.3-.7c-.3.5 1.2.7 3.3.5 3.8-.4 3.9-.3 4.3 3.2l.4 3.6-.1-3.7c-.1-3.6-.3-3.8-3.8-4.1-2-.2-3.8.1-4.1.5m61.1 90 .3 20.8 3.4.2 3.5.3v-42h-7.5zM401 453v4h8v-8h-8zm9 9v4h17.1l-.3-4-.2-4H410z"/><path fill="#BFBFFF" d="M280 340.5c0 1.9.5 3.5 1 3.5.6 0 1-1.3 1-2.9s.6-3.2 1.3-3.4c.6-.3.2-.6-1-.6-2-.1-2.3.4-2.3 3.4"/><path fill="#BFFFFF" d="M282.2 341c0 1.9.2 2.7.5 1.7.2-.9.2-2.5 0-3.5-.3-.9-.5-.1-.5 1.8"/><path fill="#BFFFDB" d="M284.8 337.7c-2.7.7-2.5 6.3.2 6.3 1.6 0 2-.7 2-3.5 0-1.9-.1-3.4-.2-3.4-.2.1-1.1.3-2 .6m47.7.3c-.3.5-.3 2.1.1 3.5.5 1.9 1.2 2.5 3.5 2.5 2.6 0 2.9-.3 2.9-3.5s-.2-3.5-2.9-3.5c-1.7 0-3.2.4-3.6 1"/><path fill="#804024" d="M289.8 353.7c1.2.2 3 .2 4 0 .9-.3-.1-.5-2.3-.4-2.2 0-3 .2-1.7.4m-8.5 26c1.5.2 3.7.2 5 0 1.2-.2 0-.4-2.8-.4-2.7 0-3.8.2-2.2.4M374.4 540c0 7.4.1 10.5.3 6.7.2-3.7.2-9.7 0-13.5-.2-3.7-.3-.6-.3 6.8m34.8-4.3-.2 8.2-7.7.4-7.8.3 7.8.2c5.7.1 7.9-.2 8.3-1.1.3-.8.3-4.7.1-8.8l-.3-7.4zm17.2 4.3c0 6.9.1 9.7.3 6.2.2-3.4.2-9 0-12.5-.2-3.4-.3-.6-.3 6.3m-81.6 4.7c2.3.2 6.1.2 8.5 0 2.3-.2.4-.4-4.3-.4s-6.6.2-4.2.4M331 557.5v4.5l17.8-.2 17.7-.2-17.2-.3-17.3-.3v-3.5c0-3.3.2-3.4 4.3-3.8l4.2-.4-4.7-.1-4.8-.2zm52.4-3.1c-.3.8-.4 2.7-.2 4.3.2 2.3.8 2.8 3.3 2.9 2.9.2 2.9.2.3-.3-2.4-.4-2.8-.9-2.8-3.8 0-3.3.2-3.4 4.3-3.8l4.2-.4-4.3-.1c-2.9-.1-4.4.3-4.8 1.2"/><path fill="#BF8049" d="m305.2 353.7 7.7.4.4 3.9.4 4-.1-4.2-.1-4.3-8-.1h-8zm-23.4 9c1.2.2 3 .2 4 0 .9-.3-.1-.5-2.3-.4-2.2 0-3 .2-1.7.4m31.5 6.8c0 3.3.2 4.5.4 2.7s.2-4.5 0-6-.4 0-.4 3.3m-17 10.2c1.5.2 3.9.2 5.5 0 1.5-.2.2-.4-2.8-.4s-4.3.2-2.7.4"/><path fill="#BF8024" d="M287.8 358.2c-.3 4.3-.3 4.3-4.5 4.6-4.8.4-4.9.6-3.7 10.9l.7 5.3H313v-25h-24.9zm70.2 175c0 3.5-.3 9.3-.7 13l-.6 6.8h-6.2c-3.4 0-9 .3-12.4.6l-6.1.7v6.7h34.2l-.3-4.3-.3-4.2h8.4v-24.2l-6.1-.7c-10.5-1.1-9.9-1.4-9.9 5.6m51.9 2.4c-.1 4.6-.3 8.8-.4 9.4-.1.5-.3 2.6-.4 4.5l-.1 3.5h-6.4c-3.4 0-9.1.3-12.5.6l-6.1.7v6.7h16c8.8 0 16.3.1 16.8.2.4.2.8-1.7 1-4.2l.3-4.5 3.8.3 3.9.4.1-13.1.2-13H410z"/><path fill="#808024" d="M357.3 536c0 4.7.2 6.6.4 4.2.2-2.3.2-6.1 0-8.5-.2-2.3-.4-.4-.4 4.3"/><path fill="#BF4024" d="M279.3 375.5c0 2.2.2 3 .4 1.7.2-1.2.2-3 0-4-.3-.9-.5.1-.4 2.3m86.3 177.3c-.2.4 1.3.6 3.5.4 2.1-.2 3.9-.6 3.9-.8 0-.7-6.9-.4-7.4.4m28.7 8.9c3.1.2 8.3.2 11.5 0 3.1-.2.5-.3-5.8-.3s-8.9.1-5.7.3"/><path fill="#400024" d="M368.8 553.7c1.2.2 3.2.2 4.5 0 1.2-.2.2-.4-2.3-.4s-3.5.2-2.2.4m52 0c1.2.2 3 .2 4 0 .9-.3-.1-.5-2.3-.4-2.2 0-3 .2-1.7.4"/><path fill="#BFBF6D" d="M340.2 548.7c.1 3.7.1 3.7.5.6l.4-3.2 8.2-.4 8.2-.3-8.7-.2-8.8-.2zm56.1-3c2.6.2 6.7.2 9 0s.2-.3-4.8-.3c-4.9 0-6.8.1-4.2.3"/><path fill="#BFBF49" d="m340.8 549.5-.4 3.5H357v-7h-15.8zm51.2-1.6c0 4.6.8 5.1 9.1 5.1h7.9v-7h-8.5c-7.7 0-8.5.2-8.5 1.9"/></svg>